<?xml version="1.0" encoding="utf-8" standalone="no"?>
<!DOCTYPE svg PUBLIC "-//W3C//DTD SVG 1.1//EN"
  "http://www.w3.org/Graphics/SVG/1.1/DTD/svg11.dtd">
<svg xmlns:xlink="http://www.w3.org/1999/xlink" width="686.48625pt" height="515.230937pt" viewBox="0 0 686.48625 515.230937" xmlns="http://www.w3.org/2000/svg" version="1.1">
 <metadata>
  <rdf:RDF xmlns:dc="http://purl.org/dc/elements/1.1/" xmlns:cc="http://creativecommons.org/ns#" xmlns:rdf="http://www.w3.org/1999/02/22-rdf-syntax-ns#">
   <cc:Work>
    <dc:type rdf:resource="http://purl.org/dc/dcmitype/StillImage"/>
    <dc:date>2023-06-09T13:32:35.197900</dc:date>
    <dc:format>image/svg+xml</dc:format>
    <dc:creator>
     <cc:Agent>
      <dc:title>Matplotlib v3.5.2, https://matplotlib.org/</dc:title>
     </cc:Agent>
    </dc:creator>
   </cc:Work>
  </rdf:RDF>
 </metadata>
 <defs>
  <style type="text/css">*{stroke-linejoin: round; stroke-linecap: butt}</style>
 </defs>
 <g id="figure_1">
  <g id="patch_1">
   <path d="M 0 515.230937 
L 686.48625 515.230937 
L 686.48625 0 
L 0 0 
z
" style="fill: #ffffff"/>
  </g>
  <g id="axes_1">
   <g id="patch_2">
    <path d="M 121.28625 458.318437 
L 679.28625 458.318437 
L 679.28625 14.798437 
L 121.28625 14.798437 
z
" style="fill: #ffffff"/>
   </g>
   <g id="matplotlib.axis_1">
    <g id="xtick_1">
     <g id="line2d_1">
      <path d="M 169.707738 458.318437 
L 169.707738 14.798437 
" clip-path="url(#pce99f434c0)" style="fill: none; stroke: #b0b0b0; stroke-width: 0.8; stroke-linecap: square"/>
     </g>
     <g id="line2d_2">
      <defs>
       <path id="md541f6af13" d="M 0 0 
L 0 3.5 
" style="stroke: #000000; stroke-width: 0.8"/>
      </defs>
      <g>
       <use xlink:href="#md541f6af13" x="169.707738" y="458.318437" style="stroke: #000000; stroke-width: 0.8"/>
      </g>
     </g>
     <g id="text_1">
      <!-- 0 -->
      <g transform="translate(163.345238 480.515312)scale(0.2 -0.2)">
       <defs>
        <path id="DejaVuSans-30" d="M 2034 4250 
Q 1547 4250 1301 3770 
Q 1056 3291 1056 2328 
Q 1056 1369 1301 889 
Q 1547 409 2034 409 
Q 2525 409 2770 889 
Q 3016 1369 3016 2328 
Q 3016 3291 2770 3770 
Q 2525 4250 2034 4250 
z
M 2034 4750 
Q 2819 4750 3233 4129 
Q 3647 3509 3647 2328 
Q 3647 1150 3233 529 
Q 2819 -91 2034 -91 
Q 1250 -91 836 529 
Q 422 1150 422 2328 
Q 422 3509 836 4129 
Q 1250 4750 2034 4750 
z
" transform="scale(0.015625)"/>
       </defs>
       <use xlink:href="#DejaVuSans-30"/>
      </g>
     </g>
    </g>
    <g id="xtick_2">
     <g id="line2d_3">
      <path d="M 246.567242 458.318437 
L 246.567242 14.798437 
" clip-path="url(#pce99f434c0)" style="fill: none; stroke: #b0b0b0; stroke-width: 0.8; stroke-linecap: square"/>
     </g>
     <g id="line2d_4">
      <g>
       <use xlink:href="#md541f6af13" x="246.567242" y="458.318437" style="stroke: #000000; stroke-width: 0.8"/>
      </g>
     </g>
     <g id="text_2">
      <!-- 2 -->
      <g transform="translate(240.204742 480.515312)scale(0.2 -0.2)">
       <defs>
        <path id="DejaVuSans-32" d="M 1228 531 
L 3431 531 
L 3431 0 
L 469 0 
L 469 531 
Q 828 903 1448 1529 
Q 2069 2156 2228 2338 
Q 2531 2678 2651 2914 
Q 2772 3150 2772 3378 
Q 2772 3750 2511 3984 
Q 2250 4219 1831 4219 
Q 1534 4219 1204 4116 
Q 875 4013 500 3803 
L 500 4441 
Q 881 4594 1212 4672 
Q 1544 4750 1819 4750 
Q 2544 4750 2975 4387 
Q 3406 4025 3406 3419 
Q 3406 3131 3298 2873 
Q 3191 2616 2906 2266 
Q 2828 2175 2409 1742 
Q 1991 1309 1228 531 
z
" transform="scale(0.015625)"/>
       </defs>
       <use xlink:href="#DejaVuSans-32"/>
      </g>
     </g>
    </g>
    <g id="xtick_3">
     <g id="line2d_5">
      <path d="M 323.426746 458.318437 
L 323.426746 14.798437 
" clip-path="url(#pce99f434c0)" style="fill: none; stroke: #b0b0b0; stroke-width: 0.8; stroke-linecap: square"/>
     </g>
     <g id="line2d_6">
      <g>
       <use xlink:href="#md541f6af13" x="323.426746" y="458.318437" style="stroke: #000000; stroke-width: 0.8"/>
      </g>
     </g>
     <g id="text_3">
      <!-- 4 -->
      <g transform="translate(317.064246 480.515312)scale(0.2 -0.2)">
       <defs>
        <path id="DejaVuSans-34" d="M 2419 4116 
L 825 1625 
L 2419 1625 
L 2419 4116 
z
M 2253 4666 
L 3047 4666 
L 3047 1625 
L 3713 1625 
L 3713 1100 
L 3047 1100 
L 3047 0 
L 2419 0 
L 2419 1100 
L 313 1100 
L 313 1709 
L 2253 4666 
z
" transform="scale(0.015625)"/>
       </defs>
       <use xlink:href="#DejaVuSans-34"/>
      </g>
     </g>
    </g>
    <g id="xtick_4">
     <g id="line2d_7">
      <path d="M 400.28625 458.318437 
L 400.28625 14.798437 
" clip-path="url(#pce99f434c0)" style="fill: none; stroke: #b0b0b0; stroke-width: 0.8; stroke-linecap: square"/>
     </g>
     <g id="line2d_8">
      <g>
       <use xlink:href="#md541f6af13" x="400.28625" y="458.318437" style="stroke: #000000; stroke-width: 0.8"/>
      </g>
     </g>
     <g id="text_4">
      <!-- 6 -->
      <g transform="translate(393.92375 480.515312)scale(0.2 -0.2)">
       <defs>
        <path id="DejaVuSans-36" d="M 2113 2584 
Q 1688 2584 1439 2293 
Q 1191 2003 1191 1497 
Q 1191 994 1439 701 
Q 1688 409 2113 409 
Q 2538 409 2786 701 
Q 3034 994 3034 1497 
Q 3034 2003 2786 2293 
Q 2538 2584 2113 2584 
z
M 3366 4563 
L 3366 3988 
Q 3128 4100 2886 4159 
Q 2644 4219 2406 4219 
Q 1781 4219 1451 3797 
Q 1122 3375 1075 2522 
Q 1259 2794 1537 2939 
Q 1816 3084 2150 3084 
Q 2853 3084 3261 2657 
Q 3669 2231 3669 1497 
Q 3669 778 3244 343 
Q 2819 -91 2113 -91 
Q 1303 -91 875 529 
Q 447 1150 447 2328 
Q 447 3434 972 4092 
Q 1497 4750 2381 4750 
Q 2619 4750 2861 4703 
Q 3103 4656 3366 4563 
z
" transform="scale(0.015625)"/>
       </defs>
       <use xlink:href="#DejaVuSans-36"/>
      </g>
     </g>
    </g>
    <g id="xtick_5">
     <g id="line2d_9">
      <path d="M 477.145754 458.318437 
L 477.145754 14.798437 
" clip-path="url(#pce99f434c0)" style="fill: none; stroke: #b0b0b0; stroke-width: 0.8; stroke-linecap: square"/>
     </g>
     <g id="line2d_10">
      <g>
       <use xlink:href="#md541f6af13" x="477.145754" y="458.318437" style="stroke: #000000; stroke-width: 0.8"/>
      </g>
     </g>
     <g id="text_5">
      <!-- 8 -->
      <g transform="translate(470.783254 480.515312)scale(0.2 -0.2)">
       <defs>
        <path id="DejaVuSans-38" d="M 2034 2216 
Q 1584 2216 1326 1975 
Q 1069 1734 1069 1313 
Q 1069 891 1326 650 
Q 1584 409 2034 409 
Q 2484 409 2743 651 
Q 3003 894 3003 1313 
Q 3003 1734 2745 1975 
Q 2488 2216 2034 2216 
z
M 1403 2484 
Q 997 2584 770 2862 
Q 544 3141 544 3541 
Q 544 4100 942 4425 
Q 1341 4750 2034 4750 
Q 2731 4750 3128 4425 
Q 3525 4100 3525 3541 
Q 3525 3141 3298 2862 
Q 3072 2584 2669 2484 
Q 3125 2378 3379 2068 
Q 3634 1759 3634 1313 
Q 3634 634 3220 271 
Q 2806 -91 2034 -91 
Q 1263 -91 848 271 
Q 434 634 434 1313 
Q 434 1759 690 2068 
Q 947 2378 1403 2484 
z
M 1172 3481 
Q 1172 3119 1398 2916 
Q 1625 2713 2034 2713 
Q 2441 2713 2670 2916 
Q 2900 3119 2900 3481 
Q 2900 3844 2670 4047 
Q 2441 4250 2034 4250 
Q 1625 4250 1398 4047 
Q 1172 3844 1172 3481 
z
" transform="scale(0.015625)"/>
       </defs>
       <use xlink:href="#DejaVuSans-38"/>
      </g>
     </g>
    </g>
    <g id="xtick_6">
     <g id="line2d_11">
      <path d="M 554.005258 458.318437 
L 554.005258 14.798437 
" clip-path="url(#pce99f434c0)" style="fill: none; stroke: #b0b0b0; stroke-width: 0.8; stroke-linecap: square"/>
     </g>
     <g id="line2d_12">
      <g>
       <use xlink:href="#md541f6af13" x="554.005258" y="458.318437" style="stroke: #000000; stroke-width: 0.8"/>
      </g>
     </g>
     <g id="text_6">
      <!-- 10 -->
      <g transform="translate(541.280258 480.515312)scale(0.2 -0.2)">
       <defs>
        <path id="DejaVuSans-31" d="M 794 531 
L 1825 531 
L 1825 4091 
L 703 3866 
L 703 4441 
L 1819 4666 
L 2450 4666 
L 2450 531 
L 3481 531 
L 3481 0 
L 794 0 
L 794 531 
z
" transform="scale(0.015625)"/>
       </defs>
       <use xlink:href="#DejaVuSans-31"/>
       <use xlink:href="#DejaVuSans-30" x="63.623047"/>
      </g>
     </g>
    </g>
    <g id="xtick_7">
     <g id="line2d_13">
      <path d="M 630.864762 458.318437 
L 630.864762 14.798437 
" clip-path="url(#pce99f434c0)" style="fill: none; stroke: #b0b0b0; stroke-width: 0.8; stroke-linecap: square"/>
     </g>
     <g id="line2d_14">
      <g>
       <use xlink:href="#md541f6af13" x="630.864762" y="458.318437" style="stroke: #000000; stroke-width: 0.8"/>
      </g>
     </g>
     <g id="text_7">
      <!-- 12 -->
      <g transform="translate(618.139762 480.515312)scale(0.2 -0.2)">
       <use xlink:href="#DejaVuSans-31"/>
       <use xlink:href="#DejaVuSans-32" x="63.623047"/>
      </g>
     </g>
    </g>
    <g id="text_8">
     <!-- Blur Size [pixels] -->
     <g transform="translate(316.637812 503.871562)scale(0.2 -0.2)">
      <defs>
       <path id="DejaVuSans-42" d="M 1259 2228 
L 1259 519 
L 2272 519 
Q 2781 519 3026 730 
Q 3272 941 3272 1375 
Q 3272 1813 3026 2020 
Q 2781 2228 2272 2228 
L 1259 2228 
z
M 1259 4147 
L 1259 2741 
L 2194 2741 
Q 2656 2741 2882 2914 
Q 3109 3088 3109 3444 
Q 3109 3797 2882 3972 
Q 2656 4147 2194 4147 
L 1259 4147 
z
M 628 4666 
L 2241 4666 
Q 2963 4666 3353 4366 
Q 3744 4066 3744 3513 
Q 3744 3084 3544 2831 
Q 3344 2578 2956 2516 
Q 3422 2416 3680 2098 
Q 3938 1781 3938 1306 
Q 3938 681 3513 340 
Q 3088 0 2303 0 
L 628 0 
L 628 4666 
z
" transform="scale(0.015625)"/>
       <path id="DejaVuSans-6c" d="M 603 4863 
L 1178 4863 
L 1178 0 
L 603 0 
L 603 4863 
z
" transform="scale(0.015625)"/>
       <path id="DejaVuSans-75" d="M 544 1381 
L 544 3500 
L 1119 3500 
L 1119 1403 
Q 1119 906 1312 657 
Q 1506 409 1894 409 
Q 2359 409 2629 706 
Q 2900 1003 2900 1516 
L 2900 3500 
L 3475 3500 
L 3475 0 
L 2900 0 
L 2900 538 
Q 2691 219 2414 64 
Q 2138 -91 1772 -91 
Q 1169 -91 856 284 
Q 544 659 544 1381 
z
M 1991 3584 
L 1991 3584 
z
" transform="scale(0.015625)"/>
       <path id="DejaVuSans-72" d="M 2631 2963 
Q 2534 3019 2420 3045 
Q 2306 3072 2169 3072 
Q 1681 3072 1420 2755 
Q 1159 2438 1159 1844 
L 1159 0 
L 581 0 
L 581 3500 
L 1159 3500 
L 1159 2956 
Q 1341 3275 1631 3429 
Q 1922 3584 2338 3584 
Q 2397 3584 2469 3576 
Q 2541 3569 2628 3553 
L 2631 2963 
z
" transform="scale(0.015625)"/>
       <path id="DejaVuSans-20" transform="scale(0.015625)"/>
       <path id="DejaVuSans-53" d="M 3425 4513 
L 3425 3897 
Q 3066 4069 2747 4153 
Q 2428 4238 2131 4238 
Q 1616 4238 1336 4038 
Q 1056 3838 1056 3469 
Q 1056 3159 1242 3001 
Q 1428 2844 1947 2747 
L 2328 2669 
Q 3034 2534 3370 2195 
Q 3706 1856 3706 1288 
Q 3706 609 3251 259 
Q 2797 -91 1919 -91 
Q 1588 -91 1214 -16 
Q 841 59 441 206 
L 441 856 
Q 825 641 1194 531 
Q 1563 422 1919 422 
Q 2459 422 2753 634 
Q 3047 847 3047 1241 
Q 3047 1584 2836 1778 
Q 2625 1972 2144 2069 
L 1759 2144 
Q 1053 2284 737 2584 
Q 422 2884 422 3419 
Q 422 4038 858 4394 
Q 1294 4750 2059 4750 
Q 2388 4750 2728 4690 
Q 3069 4631 3425 4513 
z
" transform="scale(0.015625)"/>
       <path id="DejaVuSans-69" d="M 603 3500 
L 1178 3500 
L 1178 0 
L 603 0 
L 603 3500 
z
M 603 4863 
L 1178 4863 
L 1178 4134 
L 603 4134 
L 603 4863 
z
" transform="scale(0.015625)"/>
       <path id="DejaVuSans-7a" d="M 353 3500 
L 3084 3500 
L 3084 2975 
L 922 459 
L 3084 459 
L 3084 0 
L 275 0 
L 275 525 
L 2438 3041 
L 353 3041 
L 353 3500 
z
" transform="scale(0.015625)"/>
       <path id="DejaVuSans-65" d="M 3597 1894 
L 3597 1613 
L 953 1613 
Q 991 1019 1311 708 
Q 1631 397 2203 397 
Q 2534 397 2845 478 
Q 3156 559 3463 722 
L 3463 178 
Q 3153 47 2828 -22 
Q 2503 -91 2169 -91 
Q 1331 -91 842 396 
Q 353 884 353 1716 
Q 353 2575 817 3079 
Q 1281 3584 2069 3584 
Q 2775 3584 3186 3129 
Q 3597 2675 3597 1894 
z
M 3022 2063 
Q 3016 2534 2758 2815 
Q 2500 3097 2075 3097 
Q 1594 3097 1305 2825 
Q 1016 2553 972 2059 
L 3022 2063 
z
" transform="scale(0.015625)"/>
       <path id="DejaVuSans-5b" d="M 550 4863 
L 1875 4863 
L 1875 4416 
L 1125 4416 
L 1125 -397 
L 1875 -397 
L 1875 -844 
L 550 -844 
L 550 4863 
z
" transform="scale(0.015625)"/>
       <path id="DejaVuSans-70" d="M 1159 525 
L 1159 -1331 
L 581 -1331 
L 581 3500 
L 1159 3500 
L 1159 2969 
Q 1341 3281 1617 3432 
Q 1894 3584 2278 3584 
Q 2916 3584 3314 3078 
Q 3713 2572 3713 1747 
Q 3713 922 3314 415 
Q 2916 -91 2278 -91 
Q 1894 -91 1617 61 
Q 1341 213 1159 525 
z
M 3116 1747 
Q 3116 2381 2855 2742 
Q 2594 3103 2138 3103 
Q 1681 3103 1420 2742 
Q 1159 2381 1159 1747 
Q 1159 1113 1420 752 
Q 1681 391 2138 391 
Q 2594 391 2855 752 
Q 3116 1113 3116 1747 
z
" transform="scale(0.015625)"/>
       <path id="DejaVuSans-78" d="M 3513 3500 
L 2247 1797 
L 3578 0 
L 2900 0 
L 1881 1375 
L 863 0 
L 184 0 
L 1544 1831 
L 300 3500 
L 978 3500 
L 1906 2253 
L 2834 3500 
L 3513 3500 
z
" transform="scale(0.015625)"/>
       <path id="DejaVuSans-73" d="M 2834 3397 
L 2834 2853 
Q 2591 2978 2328 3040 
Q 2066 3103 1784 3103 
Q 1356 3103 1142 2972 
Q 928 2841 928 2578 
Q 928 2378 1081 2264 
Q 1234 2150 1697 2047 
L 1894 2003 
Q 2506 1872 2764 1633 
Q 3022 1394 3022 966 
Q 3022 478 2636 193 
Q 2250 -91 1575 -91 
Q 1294 -91 989 -36 
Q 684 19 347 128 
L 347 722 
Q 666 556 975 473 
Q 1284 391 1588 391 
Q 1994 391 2212 530 
Q 2431 669 2431 922 
Q 2431 1156 2273 1281 
Q 2116 1406 1581 1522 
L 1381 1569 
Q 847 1681 609 1914 
Q 372 2147 372 2553 
Q 372 3047 722 3315 
Q 1072 3584 1716 3584 
Q 2034 3584 2315 3537 
Q 2597 3491 2834 3397 
z
" transform="scale(0.015625)"/>
       <path id="DejaVuSans-5d" d="M 1947 4863 
L 1947 -844 
L 622 -844 
L 622 -397 
L 1369 -397 
L 1369 4416 
L 622 4416 
L 622 4863 
L 1947 4863 
z
" transform="scale(0.015625)"/>
      </defs>
      <use xlink:href="#DejaVuSans-42"/>
      <use xlink:href="#DejaVuSans-6c" x="68.603516"/>
      <use xlink:href="#DejaVuSans-75" x="96.386719"/>
      <use xlink:href="#DejaVuSans-72" x="159.765625"/>
      <use xlink:href="#DejaVuSans-20" x="200.878906"/>
      <use xlink:href="#DejaVuSans-53" x="232.666016"/>
      <use xlink:href="#DejaVuSans-69" x="296.142578"/>
      <use xlink:href="#DejaVuSans-7a" x="323.925781"/>
      <use xlink:href="#DejaVuSans-65" x="376.416016"/>
      <use xlink:href="#DejaVuSans-20" x="437.939453"/>
      <use xlink:href="#DejaVuSans-5b" x="469.726562"/>
      <use xlink:href="#DejaVuSans-70" x="508.740234"/>
      <use xlink:href="#DejaVuSans-69" x="572.216797"/>
      <use xlink:href="#DejaVuSans-78" x="600"/>
      <use xlink:href="#DejaVuSans-65" x="656.054688"/>
      <use xlink:href="#DejaVuSans-6c" x="717.578125"/>
      <use xlink:href="#DejaVuSans-73" x="745.361328"/>
      <use xlink:href="#DejaVuSans-5d" x="797.460938"/>
     </g>
    </g>
   </g>
   <g id="matplotlib.axis_2">
    <g id="ytick_1">
     <g id="line2d_15">
      <path d="M 121.28625 458.318437 
L 679.28625 458.318437 
" clip-path="url(#pce99f434c0)" style="fill: none; stroke: #b0b0b0; stroke-width: 0.8; stroke-linecap: square"/>
     </g>
     <g id="line2d_16">
      <defs>
       <path id="m0f1acb18ef" d="M 0 0 
L -3.5 0 
" style="stroke: #000000; stroke-width: 0.8"/>
      </defs>
      <g>
       <use xlink:href="#m0f1acb18ef" x="121.28625" y="458.318437" style="stroke: #000000; stroke-width: 0.8"/>
      </g>
     </g>
     <g id="text_9">
      <!-- −1.00 -->
      <g transform="translate(52.995625 465.916875)scale(0.2 -0.2)">
       <defs>
        <path id="DejaVuSans-2212" d="M 678 2272 
L 4684 2272 
L 4684 1741 
L 678 1741 
L 678 2272 
z
" transform="scale(0.015625)"/>
        <path id="DejaVuSans-2e" d="M 684 794 
L 1344 794 
L 1344 0 
L 684 0 
L 684 794 
z
" transform="scale(0.015625)"/>
       </defs>
       <use xlink:href="#DejaVuSans-2212"/>
       <use xlink:href="#DejaVuSans-31" x="83.789062"/>
       <use xlink:href="#DejaVuSans-2e" x="147.412109"/>
       <use xlink:href="#DejaVuSans-30" x="179.199219"/>
       <use xlink:href="#DejaVuSans-30" x="242.822266"/>
      </g>
     </g>
    </g>
    <g id="ytick_2">
     <g id="line2d_17">
      <path d="M 121.28625 402.878437 
L 679.28625 402.878437 
" clip-path="url(#pce99f434c0)" style="fill: none; stroke: #b0b0b0; stroke-width: 0.8; stroke-linecap: square"/>
     </g>
     <g id="line2d_18">
      <g>
       <use xlink:href="#m0f1acb18ef" x="121.28625" y="402.878437" style="stroke: #000000; stroke-width: 0.8"/>
      </g>
     </g>
     <g id="text_10">
      <!-- −0.75 -->
      <g transform="translate(52.995625 410.476875)scale(0.2 -0.2)">
       <defs>
        <path id="DejaVuSans-37" d="M 525 4666 
L 3525 4666 
L 3525 4397 
L 1831 0 
L 1172 0 
L 2766 4134 
L 525 4134 
L 525 4666 
z
" transform="scale(0.015625)"/>
        <path id="DejaVuSans-35" d="M 691 4666 
L 3169 4666 
L 3169 4134 
L 1269 4134 
L 1269 2991 
Q 1406 3038 1543 3061 
Q 1681 3084 1819 3084 
Q 2600 3084 3056 2656 
Q 3513 2228 3513 1497 
Q 3513 744 3044 326 
Q 2575 -91 1722 -91 
Q 1428 -91 1123 -41 
Q 819 9 494 109 
L 494 744 
Q 775 591 1075 516 
Q 1375 441 1709 441 
Q 2250 441 2565 725 
Q 2881 1009 2881 1497 
Q 2881 1984 2565 2268 
Q 2250 2553 1709 2553 
Q 1456 2553 1204 2497 
Q 953 2441 691 2322 
L 691 4666 
z
" transform="scale(0.015625)"/>
       </defs>
       <use xlink:href="#DejaVuSans-2212"/>
       <use xlink:href="#DejaVuSans-30" x="83.789062"/>
       <use xlink:href="#DejaVuSans-2e" x="147.412109"/>
       <use xlink:href="#DejaVuSans-37" x="179.199219"/>
       <use xlink:href="#DejaVuSans-35" x="242.822266"/>
      </g>
     </g>
    </g>
    <g id="ytick_3">
     <g id="line2d_19">
      <path d="M 121.28625 347.438437 
L 679.28625 347.438437 
" clip-path="url(#pce99f434c0)" style="fill: none; stroke: #b0b0b0; stroke-width: 0.8; stroke-linecap: square"/>
     </g>
     <g id="line2d_20">
      <g>
       <use xlink:href="#m0f1acb18ef" x="121.28625" y="347.438437" style="stroke: #000000; stroke-width: 0.8"/>
      </g>
     </g>
     <g id="text_11">
      <!-- −0.50 -->
      <g transform="translate(52.995625 355.036875)scale(0.2 -0.2)">
       <use xlink:href="#DejaVuSans-2212"/>
       <use xlink:href="#DejaVuSans-30" x="83.789062"/>
       <use xlink:href="#DejaVuSans-2e" x="147.412109"/>
       <use xlink:href="#DejaVuSans-35" x="179.199219"/>
       <use xlink:href="#DejaVuSans-30" x="242.822266"/>
      </g>
     </g>
    </g>
    <g id="ytick_4">
     <g id="line2d_21">
      <path d="M 121.28625 291.998437 
L 679.28625 291.998437 
" clip-path="url(#pce99f434c0)" style="fill: none; stroke: #b0b0b0; stroke-width: 0.8; stroke-linecap: square"/>
     </g>
     <g id="line2d_22">
      <g>
       <use xlink:href="#m0f1acb18ef" x="121.28625" y="291.998437" style="stroke: #000000; stroke-width: 0.8"/>
      </g>
     </g>
     <g id="text_12">
      <!-- −0.25 -->
      <g transform="translate(52.995625 299.596875)scale(0.2 -0.2)">
       <use xlink:href="#DejaVuSans-2212"/>
       <use xlink:href="#DejaVuSans-30" x="83.789062"/>
       <use xlink:href="#DejaVuSans-2e" x="147.412109"/>
       <use xlink:href="#DejaVuSans-32" x="179.199219"/>
       <use xlink:href="#DejaVuSans-35" x="242.822266"/>
      </g>
     </g>
    </g>
    <g id="ytick_5">
     <g id="line2d_23">
      <path d="M 121.28625 236.558437 
L 679.28625 236.558437 
" clip-path="url(#pce99f434c0)" style="fill: none; stroke: #b0b0b0; stroke-width: 0.8; stroke-linecap: square"/>
     </g>
     <g id="line2d_24">
      <g>
       <use xlink:href="#m0f1acb18ef" x="121.28625" y="236.558437" style="stroke: #000000; stroke-width: 0.8"/>
      </g>
     </g>
     <g id="text_13">
      <!-- 0.00 -->
      <g transform="translate(69.755 244.156875)scale(0.2 -0.2)">
       <use xlink:href="#DejaVuSans-30"/>
       <use xlink:href="#DejaVuSans-2e" x="63.623047"/>
       <use xlink:href="#DejaVuSans-30" x="95.410156"/>
       <use xlink:href="#DejaVuSans-30" x="159.033203"/>
      </g>
     </g>
    </g>
    <g id="ytick_6">
     <g id="line2d_25">
      <path d="M 121.28625 181.118437 
L 679.28625 181.118437 
" clip-path="url(#pce99f434c0)" style="fill: none; stroke: #b0b0b0; stroke-width: 0.8; stroke-linecap: square"/>
     </g>
     <g id="line2d_26">
      <g>
       <use xlink:href="#m0f1acb18ef" x="121.28625" y="181.118437" style="stroke: #000000; stroke-width: 0.8"/>
      </g>
     </g>
     <g id="text_14">
      <!-- 0.25 -->
      <g transform="translate(69.755 188.716875)scale(0.2 -0.2)">
       <use xlink:href="#DejaVuSans-30"/>
       <use xlink:href="#DejaVuSans-2e" x="63.623047"/>
       <use xlink:href="#DejaVuSans-32" x="95.410156"/>
       <use xlink:href="#DejaVuSans-35" x="159.033203"/>
      </g>
     </g>
    </g>
    <g id="ytick_7">
     <g id="line2d_27">
      <path d="M 121.28625 125.678437 
L 679.28625 125.678437 
" clip-path="url(#pce99f434c0)" style="fill: none; stroke: #b0b0b0; stroke-width: 0.8; stroke-linecap: square"/>
     </g>
     <g id="line2d_28">
      <g>
       <use xlink:href="#m0f1acb18ef" x="121.28625" y="125.678437" style="stroke: #000000; stroke-width: 0.8"/>
      </g>
     </g>
     <g id="text_15">
      <!-- 0.50 -->
      <g transform="translate(69.755 133.276875)scale(0.2 -0.2)">
       <use xlink:href="#DejaVuSans-30"/>
       <use xlink:href="#DejaVuSans-2e" x="63.623047"/>
       <use xlink:href="#DejaVuSans-35" x="95.410156"/>
       <use xlink:href="#DejaVuSans-30" x="159.033203"/>
      </g>
     </g>
    </g>
    <g id="ytick_8">
     <g id="line2d_29">
      <path d="M 121.28625 70.238437 
L 679.28625 70.238437 
" clip-path="url(#pce99f434c0)" style="fill: none; stroke: #b0b0b0; stroke-width: 0.8; stroke-linecap: square"/>
     </g>
     <g id="line2d_30">
      <g>
       <use xlink:href="#m0f1acb18ef" x="121.28625" y="70.238437" style="stroke: #000000; stroke-width: 0.8"/>
      </g>
     </g>
     <g id="text_16">
      <!-- 0.75 -->
      <g transform="translate(69.755 77.836875)scale(0.2 -0.2)">
       <use xlink:href="#DejaVuSans-30"/>
       <use xlink:href="#DejaVuSans-2e" x="63.623047"/>
       <use xlink:href="#DejaVuSans-37" x="95.410156"/>
       <use xlink:href="#DejaVuSans-35" x="159.033203"/>
      </g>
     </g>
    </g>
    <g id="ytick_9">
     <g id="line2d_31">
      <path d="M 121.28625 14.798437 
L 679.28625 14.798437 
" clip-path="url(#pce99f434c0)" style="fill: none; stroke: #b0b0b0; stroke-width: 0.8; stroke-linecap: square"/>
     </g>
     <g id="line2d_32">
      <g>
       <use xlink:href="#m0f1acb18ef" x="121.28625" y="14.798437" style="stroke: #000000; stroke-width: 0.8"/>
      </g>
     </g>
     <g id="text_17">
      <!-- 1.00 -->
      <g transform="translate(69.755 22.396875)scale(0.2 -0.2)">
       <use xlink:href="#DejaVuSans-31"/>
       <use xlink:href="#DejaVuSans-2e" x="63.623047"/>
       <use xlink:href="#DejaVuSans-30" x="95.410156"/>
       <use xlink:href="#DejaVuSans-30" x="159.033203"/>
      </g>
     </g>
    </g>
    <g id="text_18">
     <!-- $\longleftarrow$ Weak Eye              Strong Eye $\longrightarrow$ -->
     <g transform="translate(22.4 428.258438)rotate(-90)scale(0.2 -0.2)">
      <defs>
       <path id="DejaVuSans-27f5" d="M 313 1866 
L 313 2147 
L 1541 3375 
L 1916 3000 
L 1188 2272 
L 8809 2272 
L 8809 1741 
L 1188 1741 
L 1916 1013 
L 1541 638 
L 313 1866 
z
" transform="scale(0.015625)"/>
       <path id="DejaVuSans-57" d="M 213 4666 
L 850 4666 
L 1831 722 
L 2809 4666 
L 3519 4666 
L 4500 722 
L 5478 4666 
L 6119 4666 
L 4947 0 
L 4153 0 
L 3169 4050 
L 2175 0 
L 1381 0 
L 213 4666 
z
" transform="scale(0.015625)"/>
       <path id="DejaVuSans-61" d="M 2194 1759 
Q 1497 1759 1228 1600 
Q 959 1441 959 1056 
Q 959 750 1161 570 
Q 1363 391 1709 391 
Q 2188 391 2477 730 
Q 2766 1069 2766 1631 
L 2766 1759 
L 2194 1759 
z
M 3341 1997 
L 3341 0 
L 2766 0 
L 2766 531 
Q 2569 213 2275 61 
Q 1981 -91 1556 -91 
Q 1019 -91 701 211 
Q 384 513 384 1019 
Q 384 1609 779 1909 
Q 1175 2209 1959 2209 
L 2766 2209 
L 2766 2266 
Q 2766 2663 2505 2880 
Q 2244 3097 1772 3097 
Q 1472 3097 1187 3025 
Q 903 2953 641 2809 
L 641 3341 
Q 956 3463 1253 3523 
Q 1550 3584 1831 3584 
Q 2591 3584 2966 3190 
Q 3341 2797 3341 1997 
z
" transform="scale(0.015625)"/>
       <path id="DejaVuSans-6b" d="M 581 4863 
L 1159 4863 
L 1159 1991 
L 2875 3500 
L 3609 3500 
L 1753 1863 
L 3688 0 
L 2938 0 
L 1159 1709 
L 1159 0 
L 581 0 
L 581 4863 
z
" transform="scale(0.015625)"/>
       <path id="DejaVuSans-45" d="M 628 4666 
L 3578 4666 
L 3578 4134 
L 1259 4134 
L 1259 2753 
L 3481 2753 
L 3481 2222 
L 1259 2222 
L 1259 531 
L 3634 531 
L 3634 0 
L 628 0 
L 628 4666 
z
" transform="scale(0.015625)"/>
       <path id="DejaVuSans-79" d="M 2059 -325 
Q 1816 -950 1584 -1140 
Q 1353 -1331 966 -1331 
L 506 -1331 
L 506 -850 
L 844 -850 
Q 1081 -850 1212 -737 
Q 1344 -625 1503 -206 
L 1606 56 
L 191 3500 
L 800 3500 
L 1894 763 
L 2988 3500 
L 3597 3500 
L 2059 -325 
z
" transform="scale(0.015625)"/>
       <path id="DejaVuSans-74" d="M 1172 4494 
L 1172 3500 
L 2356 3500 
L 2356 3053 
L 1172 3053 
L 1172 1153 
Q 1172 725 1289 603 
Q 1406 481 1766 481 
L 2356 481 
L 2356 0 
L 1766 0 
Q 1100 0 847 248 
Q 594 497 594 1153 
L 594 3053 
L 172 3053 
L 172 3500 
L 594 3500 
L 594 4494 
L 1172 4494 
z
" transform="scale(0.015625)"/>
       <path id="DejaVuSans-6f" d="M 1959 3097 
Q 1497 3097 1228 2736 
Q 959 2375 959 1747 
Q 959 1119 1226 758 
Q 1494 397 1959 397 
Q 2419 397 2687 759 
Q 2956 1122 2956 1747 
Q 2956 2369 2687 2733 
Q 2419 3097 1959 3097 
z
M 1959 3584 
Q 2709 3584 3137 3096 
Q 3566 2609 3566 1747 
Q 3566 888 3137 398 
Q 2709 -91 1959 -91 
Q 1206 -91 779 398 
Q 353 888 353 1747 
Q 353 2609 779 3096 
Q 1206 3584 1959 3584 
z
" transform="scale(0.015625)"/>
       <path id="DejaVuSans-6e" d="M 3513 2113 
L 3513 0 
L 2938 0 
L 2938 2094 
Q 2938 2591 2744 2837 
Q 2550 3084 2163 3084 
Q 1697 3084 1428 2787 
Q 1159 2491 1159 1978 
L 1159 0 
L 581 0 
L 581 3500 
L 1159 3500 
L 1159 2956 
Q 1366 3272 1645 3428 
Q 1925 3584 2291 3584 
Q 2894 3584 3203 3211 
Q 3513 2838 3513 2113 
z
" transform="scale(0.015625)"/>
       <path id="DejaVuSans-67" d="M 2906 1791 
Q 2906 2416 2648 2759 
Q 2391 3103 1925 3103 
Q 1463 3103 1205 2759 
Q 947 2416 947 1791 
Q 947 1169 1205 825 
Q 1463 481 1925 481 
Q 2391 481 2648 825 
Q 2906 1169 2906 1791 
z
M 3481 434 
Q 3481 -459 3084 -895 
Q 2688 -1331 1869 -1331 
Q 1566 -1331 1297 -1286 
Q 1028 -1241 775 -1147 
L 775 -588 
Q 1028 -725 1275 -790 
Q 1522 -856 1778 -856 
Q 2344 -856 2625 -561 
Q 2906 -266 2906 331 
L 2906 616 
Q 2728 306 2450 153 
Q 2172 0 1784 0 
Q 1141 0 747 490 
Q 353 981 353 1791 
Q 353 2603 747 3093 
Q 1141 3584 1784 3584 
Q 2172 3584 2450 3431 
Q 2728 3278 2906 2969 
L 2906 3500 
L 3481 3500 
L 3481 434 
z
" transform="scale(0.015625)"/>
       <path id="DejaVuSans-27f6" d="M 8863 2147 
L 8863 1866 
L 7634 638 
L 7259 1013 
L 7988 1741 
L 366 1741 
L 366 2272 
L 7988 2272 
L 7259 3000 
L 7634 3375 
L 8863 2147 
z
" transform="scale(0.015625)"/>
      </defs>
      <use xlink:href="#DejaVuSans-27f5" transform="translate(19.482422 0.015625)"/>
      <use xlink:href="#DejaVuSans-20" transform="translate(182.324219 0.015625)"/>
      <use xlink:href="#DejaVuSans-57" transform="translate(214.111328 0.015625)"/>
      <use xlink:href="#DejaVuSans-65" transform="translate(312.988281 0.015625)"/>
      <use xlink:href="#DejaVuSans-61" transform="translate(374.511719 0.015625)"/>
      <use xlink:href="#DejaVuSans-6b" transform="translate(435.791016 0.015625)"/>
      <use xlink:href="#DejaVuSans-20" transform="translate(493.701172 0.015625)"/>
      <use xlink:href="#DejaVuSans-45" transform="translate(525.488281 0.015625)"/>
      <use xlink:href="#DejaVuSans-79" transform="translate(588.671875 0.015625)"/>
      <use xlink:href="#DejaVuSans-65" transform="translate(647.851562 0.015625)"/>
      <use xlink:href="#DejaVuSans-20" transform="translate(709.375 0.015625)"/>
      <use xlink:href="#DejaVuSans-20" transform="translate(741.162109 0.015625)"/>
      <use xlink:href="#DejaVuSans-20" transform="translate(772.949219 0.015625)"/>
      <use xlink:href="#DejaVuSans-20" transform="translate(804.736328 0.015625)"/>
      <use xlink:href="#DejaVuSans-20" transform="translate(836.523438 0.015625)"/>
      <use xlink:href="#DejaVuSans-20" transform="translate(868.310547 0.015625)"/>
      <use xlink:href="#DejaVuSans-20" transform="translate(900.097656 0.015625)"/>
      <use xlink:href="#DejaVuSans-20" transform="translate(931.884766 0.015625)"/>
      <use xlink:href="#DejaVuSans-20" transform="translate(963.671875 0.015625)"/>
      <use xlink:href="#DejaVuSans-20" transform="translate(995.458984 0.015625)"/>
      <use xlink:href="#DejaVuSans-20" transform="translate(1027.246094 0.015625)"/>
      <use xlink:href="#DejaVuSans-20" transform="translate(1059.033203 0.015625)"/>
      <use xlink:href="#DejaVuSans-20" transform="translate(1090.820312 0.015625)"/>
      <use xlink:href="#DejaVuSans-20" transform="translate(1122.607422 0.015625)"/>
      <use xlink:href="#DejaVuSans-53" transform="translate(1154.394531 0.015625)"/>
      <use xlink:href="#DejaVuSans-74" transform="translate(1217.871094 0.015625)"/>
      <use xlink:href="#DejaVuSans-72" transform="translate(1257.080078 0.015625)"/>
      <use xlink:href="#DejaVuSans-6f" transform="translate(1298.193359 0.015625)"/>
      <use xlink:href="#DejaVuSans-6e" transform="translate(1359.375 0.015625)"/>
      <use xlink:href="#DejaVuSans-67" transform="translate(1422.753906 0.015625)"/>
      <use xlink:href="#DejaVuSans-20" transform="translate(1486.230469 0.015625)"/>
      <use xlink:href="#DejaVuSans-45" transform="translate(1518.017578 0.015625)"/>
      <use xlink:href="#DejaVuSans-79" transform="translate(1581.201172 0.015625)"/>
      <use xlink:href="#DejaVuSans-65" transform="translate(1640.380859 0.015625)"/>
      <use xlink:href="#DejaVuSans-20" transform="translate(1701.904297 0.015625)"/>
      <use xlink:href="#DejaVuSans-27f6" transform="translate(1753.173828 0.015625)"/>
     </g>
     <!-- ODI -->
     <g transform="translate(44.83625 255.080312)rotate(-90)scale(0.2 -0.2)">
      <defs>
       <path id="DejaVuSans-4f" d="M 2522 4238 
Q 1834 4238 1429 3725 
Q 1025 3213 1025 2328 
Q 1025 1447 1429 934 
Q 1834 422 2522 422 
Q 3209 422 3611 934 
Q 4013 1447 4013 2328 
Q 4013 3213 3611 3725 
Q 3209 4238 2522 4238 
z
M 2522 4750 
Q 3503 4750 4090 4092 
Q 4678 3434 4678 2328 
Q 4678 1225 4090 567 
Q 3503 -91 2522 -91 
Q 1538 -91 948 565 
Q 359 1222 359 2328 
Q 359 3434 948 4092 
Q 1538 4750 2522 4750 
z
" transform="scale(0.015625)"/>
       <path id="DejaVuSans-44" d="M 1259 4147 
L 1259 519 
L 2022 519 
Q 2988 519 3436 956 
Q 3884 1394 3884 2338 
Q 3884 3275 3436 3711 
Q 2988 4147 2022 4147 
L 1259 4147 
z
M 628 4666 
L 1925 4666 
Q 3281 4666 3915 4102 
Q 4550 3538 4550 2338 
Q 4550 1131 3912 565 
Q 3275 0 1925 0 
L 628 0 
L 628 4666 
z
" transform="scale(0.015625)"/>
       <path id="DejaVuSans-49" d="M 628 4666 
L 1259 4666 
L 1259 0 
L 628 0 
L 628 4666 
z
" transform="scale(0.015625)"/>
      </defs>
      <use xlink:href="#DejaVuSans-4f"/>
      <use xlink:href="#DejaVuSans-44" x="78.710938"/>
      <use xlink:href="#DejaVuSans-49" x="155.712891"/>
     </g>
    </g>
   </g>
   <g id="LineCollection_1">
    <path d="M 169.707738 240.863921 
L 169.707738 234.919514 
" clip-path="url(#pce99f434c0)" style="fill: none; stroke: #440154"/>
    <path d="M 208.13749 253.637817 
L 208.13749 237.719595 
" clip-path="url(#pce99f434c0)" style="fill: none; stroke: #440154"/>
    <path d="M 246.567242 265.286416 
L 246.567242 204.504181 
" clip-path="url(#pce99f434c0)" style="fill: none; stroke: #440154"/>
    <path d="M 284.996994 200.810488 
L 284.996994 105.281587 
" clip-path="url(#pce99f434c0)" style="fill: none; stroke: #440154"/>
    <path d="M 323.426746 124.992035 
L 323.426746 49.015724 
" clip-path="url(#pce99f434c0)" style="fill: none; stroke: #440154"/>
    <path d="M 361.856498 48.13302 
L 361.856498 28.80144 
" clip-path="url(#pce99f434c0)" style="fill: none; stroke: #440154"/>
    <path d="M 400.28625 58.875848 
L 400.28625 24.602165 
" clip-path="url(#pce99f434c0)" style="fill: none; stroke: #440154"/>
    <path d="M 438.716002 33.565725 
L 438.716002 24.439026 
" clip-path="url(#pce99f434c0)" style="fill: none; stroke: #440154"/>
    <path d="M 477.145754 34.58946 
L 477.145754 25.690626 
" clip-path="url(#pce99f434c0)" style="fill: none; stroke: #440154"/>
    <path d="M 515.575506 32.388905 
L 515.575506 24.699271 
" clip-path="url(#pce99f434c0)" style="fill: none; stroke: #440154"/>
    <path d="M 554.005258 31.837872 
L 554.005258 22.310839 
" clip-path="url(#pce99f434c0)" style="fill: none; stroke: #440154"/>
    <path d="M 592.43501 44.415035 
L 592.43501 22.868966 
" clip-path="url(#pce99f434c0)" style="fill: none; stroke: #440154"/>
    <path d="M 630.864762 75.54811 
L 630.864762 9.983094 
" clip-path="url(#pce99f434c0)" style="fill: none; stroke: #440154"/>
   </g>
   <g id="LineCollection_2">
    <path d="M 169.707738 247.502871 
L 169.707738 231.551091 
" clip-path="url(#pce99f434c0)" style="fill: none; stroke: #3d4d8a"/>
    <path d="M 208.13749 254.134191 
L 208.13749 236.125418 
" clip-path="url(#pce99f434c0)" style="fill: none; stroke: #3d4d8a"/>
    <path d="M 246.567242 264.831272 
L 246.567242 195.692567 
" clip-path="url(#pce99f434c0)" style="fill: none; stroke: #3d4d8a"/>
    <path d="M 284.996994 196.565851 
L 284.996994 88.143001 
" clip-path="url(#pce99f434c0)" style="fill: none; stroke: #3d4d8a"/>
    <path d="M 323.426746 125.338895 
L 323.426746 39.380697 
" clip-path="url(#pce99f434c0)" style="fill: none; stroke: #3d4d8a"/>
    <path d="M 361.856498 73.035906 
L 361.856498 14.227065 
" clip-path="url(#pce99f434c0)" style="fill: none; stroke: #3d4d8a"/>
    <path d="M 400.28625 32.162555 
L 400.28625 21.600971 
" clip-path="url(#pce99f434c0)" style="fill: none; stroke: #3d4d8a"/>
    <path d="M 438.716002 32.324013 
L 438.716002 24.434106 
" clip-path="url(#pce99f434c0)" style="fill: none; stroke: #3d4d8a"/>
    <path d="M 477.145754 33.453399 
L 477.145754 23.293534 
" clip-path="url(#pce99f434c0)" style="fill: none; stroke: #3d4d8a"/>
    <path d="M 515.575506 33.704483 
L 515.575506 22.980974 
" clip-path="url(#pce99f434c0)" style="fill: none; stroke: #3d4d8a"/>
    <path d="M 554.005258 32.192129 
L 554.005258 24.76446 
" clip-path="url(#pce99f434c0)" style="fill: none; stroke: #3d4d8a"/>
    <path d="M 592.43501 30.222213 
L 592.43501 22.875455 
" clip-path="url(#pce99f434c0)" style="fill: none; stroke: #3d4d8a"/>
    <path d="M 630.864762 74.186232 
L 630.864762 8.317173 
" clip-path="url(#pce99f434c0)" style="fill: none; stroke: #3d4d8a"/>
   </g>
   <g id="LineCollection_3">
    <path d="M 169.707738 239.805342 
L 169.707738 232.850531 
" clip-path="url(#pce99f434c0)" style="fill: none; stroke: #23888e"/>
    <path d="M 208.13749 252.052137 
L 208.13749 239.691288 
" clip-path="url(#pce99f434c0)" style="fill: none; stroke: #23888e"/>
    <path d="M 246.567242 264.055252 
L 246.567242 205.481754 
" clip-path="url(#pce99f434c0)" style="fill: none; stroke: #23888e"/>
    <path d="M 284.996994 238.973273 
L 284.996994 145.5622 
" clip-path="url(#pce99f434c0)" style="fill: none; stroke: #23888e"/>
    <path d="M 323.426746 172.197624 
L 323.426746 68.713241 
" clip-path="url(#pce99f434c0)" style="fill: none; stroke: #23888e"/>
    <path d="M 361.856498 84.528662 
L 361.856498 22.212172 
" clip-path="url(#pce99f434c0)" style="fill: none; stroke: #23888e"/>
    <path d="M 400.28625 34.618627 
L 400.28625 26.030337 
" clip-path="url(#pce99f434c0)" style="fill: none; stroke: #23888e"/>
    <path d="M 438.716002 41.991833 
L 438.716002 25.14686 
" clip-path="url(#pce99f434c0)" style="fill: none; stroke: #23888e"/>
    <path d="M 477.145754 36.210547 
L 477.145754 26.091577 
" clip-path="url(#pce99f434c0)" style="fill: none; stroke: #23888e"/>
    <path d="M 515.575506 34.438295 
L 515.575506 25.037188 
" clip-path="url(#pce99f434c0)" style="fill: none; stroke: #23888e"/>
    <path d="M 554.005258 28.901188 
L 554.005258 22.103093 
" clip-path="url(#pce99f434c0)" style="fill: none; stroke: #23888e"/>
    <path d="M 592.43501 30.553631 
L 592.43501 23.335696 
" clip-path="url(#pce99f434c0)" style="fill: none; stroke: #23888e"/>
    <path d="M 630.864762 73.057316 
L 630.864762 8.608909 
" clip-path="url(#pce99f434c0)" style="fill: none; stroke: #23888e"/>
   </g>
   <g id="LineCollection_4">
    <path d="M 169.707738 250.340106 
L 169.707738 233.371461 
" clip-path="url(#pce99f434c0)" style="fill: none; stroke: #44bf70"/>
    <path d="M 208.13749 248.07732 
L 208.13749 202.986716 
" clip-path="url(#pce99f434c0)" style="fill: none; stroke: #44bf70"/>
    <path d="M 246.567242 248.440419 
L 246.567242 179.231099 
" clip-path="url(#pce99f434c0)" style="fill: none; stroke: #44bf70"/>
    <path d="M 284.996994 200.135919 
L 284.996994 108.714508 
" clip-path="url(#pce99f434c0)" style="fill: none; stroke: #44bf70"/>
    <path d="M 323.426746 59.411088 
L 323.426746 23.637226 
" clip-path="url(#pce99f434c0)" style="fill: none; stroke: #44bf70"/>
    <path d="M 361.856498 45.394302 
L 361.856498 28.119136 
" clip-path="url(#pce99f434c0)" style="fill: none; stroke: #44bf70"/>
    <path d="M 400.28625 40.522145 
L 400.28625 26.857827 
" clip-path="url(#pce99f434c0)" style="fill: none; stroke: #44bf70"/>
    <path d="M 438.716002 30.48564 
L 438.716002 23.704454 
" clip-path="url(#pce99f434c0)" style="fill: none; stroke: #44bf70"/>
    <path d="M 477.145754 29.793097 
L 477.145754 23.158061 
" clip-path="url(#pce99f434c0)" style="fill: none; stroke: #44bf70"/>
    <path d="M 515.575506 31.504739 
L 515.575506 22.024105 
" clip-path="url(#pce99f434c0)" style="fill: none; stroke: #44bf70"/>
    <path d="M 554.005258 40.047099 
L 554.005258 24.747362 
" clip-path="url(#pce99f434c0)" style="fill: none; stroke: #44bf70"/>
    <path d="M 592.43501 30.576671 
L 592.43501 20.425585 
" clip-path="url(#pce99f434c0)" style="fill: none; stroke: #44bf70"/>
    <path d="M 630.864762 77.791728 
L 630.864762 12.384669 
" clip-path="url(#pce99f434c0)" style="fill: none; stroke: #44bf70"/>
   </g>
   <g id="line2d_33">
    <path d="M 146.649886 236.558437 
L 653.922614 236.558437 
" clip-path="url(#pce99f434c0)" style="fill: none; stroke: #000000; stroke-width: 2; stroke-linecap: square"/>
   </g>
   <g id="line2d_34">
    <path d="M 169.707738 237.891717 
L 208.13749 245.678706 
L 246.567242 234.895298 
L 284.996994 153.046037 
L 323.426746 87.003879 
L 361.856498 38.46723 
L 400.28625 41.739006 
L 438.716002 29.002375 
L 477.145754 30.140043 
L 515.575506 28.544088 
L 554.005258 27.074355 
L 592.43501 33.642001 
L 630.864762 42.765602 
" clip-path="url(#pce99f434c0)" style="fill: none; stroke: #440154; stroke-width: 3; stroke-linecap: square"/>
    <defs>
     <path id="mffb156a3fa" d="M 0 3 
C 0.795609 3 1.55874 2.683901 2.12132 2.12132 
C 2.683901 1.55874 3 0.795609 3 0 
C 3 -0.795609 2.683901 -1.55874 2.12132 -2.12132 
C 1.55874 -2.683901 0.795609 -3 0 -3 
C -0.795609 -3 -1.55874 -2.683901 -2.12132 -2.12132 
C -2.683901 -1.55874 -3 -0.795609 -3 0 
C -3 0.795609 -2.683901 1.55874 -2.12132 2.12132 
C -1.55874 2.683901 -0.795609 3 0 3 
z
" style="stroke: #440154"/>
    </defs>
    <g clip-path="url(#pce99f434c0)">
     <use xlink:href="#mffb156a3fa" x="169.707738" y="237.891717" style="fill: #440154; stroke: #440154"/>
     <use xlink:href="#mffb156a3fa" x="208.13749" y="245.678706" style="fill: #440154; stroke: #440154"/>
     <use xlink:href="#mffb156a3fa" x="246.567242" y="234.895298" style="fill: #440154; stroke: #440154"/>
     <use xlink:href="#mffb156a3fa" x="284.996994" y="153.046037" style="fill: #440154; stroke: #440154"/>
     <use xlink:href="#mffb156a3fa" x="323.426746" y="87.003879" style="fill: #440154; stroke: #440154"/>
     <use xlink:href="#mffb156a3fa" x="361.856498" y="38.46723" style="fill: #440154; stroke: #440154"/>
     <use xlink:href="#mffb156a3fa" x="400.28625" y="41.739006" style="fill: #440154; stroke: #440154"/>
     <use xlink:href="#mffb156a3fa" x="438.716002" y="29.002375" style="fill: #440154; stroke: #440154"/>
     <use xlink:href="#mffb156a3fa" x="477.145754" y="30.140043" style="fill: #440154; stroke: #440154"/>
     <use xlink:href="#mffb156a3fa" x="515.575506" y="28.544088" style="fill: #440154; stroke: #440154"/>
     <use xlink:href="#mffb156a3fa" x="554.005258" y="27.074355" style="fill: #440154; stroke: #440154"/>
     <use xlink:href="#mffb156a3fa" x="592.43501" y="33.642001" style="fill: #440154; stroke: #440154"/>
     <use xlink:href="#mffb156a3fa" x="630.864762" y="42.765602" style="fill: #440154; stroke: #440154"/>
    </g>
   </g>
   <g id="line2d_35">
    <path d="M 169.707738 239.526981 
L 208.13749 245.129804 
L 246.567242 230.26192 
L 284.996994 142.354426 
L 323.426746 82.359796 
L 361.856498 43.631486 
L 400.28625 26.881763 
L 438.716002 28.379059 
L 477.145754 28.373466 
L 515.575506 28.342729 
L 554.005258 28.478295 
L 592.43501 26.548834 
L 630.864762 41.251702 
" clip-path="url(#pce99f434c0)" style="fill: none; stroke: #3d4d8a; stroke-width: 3; stroke-linecap: square"/>
    <defs>
     <path id="mf922ea0b97" d="M 0 3 
C 0.795609 3 1.55874 2.683901 2.12132 2.12132 
C 2.683901 1.55874 3 0.795609 3 0 
C 3 -0.795609 2.683901 -1.55874 2.12132 -2.12132 
C 1.55874 -2.683901 0.795609 -3 0 -3 
C -0.795609 -3 -1.55874 -2.683901 -2.12132 -2.12132 
C -2.683901 -1.55874 -3 -0.795609 -3 0 
C -3 0.795609 -2.683901 1.55874 -2.12132 2.12132 
C -1.55874 2.683901 -0.795609 3 0 3 
z
" style="stroke: #3d4d8a"/>
    </defs>
    <g clip-path="url(#pce99f434c0)">
     <use xlink:href="#mf922ea0b97" x="169.707738" y="239.526981" style="fill: #3d4d8a; stroke: #3d4d8a"/>
     <use xlink:href="#mf922ea0b97" x="208.13749" y="245.129804" style="fill: #3d4d8a; stroke: #3d4d8a"/>
     <use xlink:href="#mf922ea0b97" x="246.567242" y="230.26192" style="fill: #3d4d8a; stroke: #3d4d8a"/>
     <use xlink:href="#mf922ea0b97" x="284.996994" y="142.354426" style="fill: #3d4d8a; stroke: #3d4d8a"/>
     <use xlink:href="#mf922ea0b97" x="323.426746" y="82.359796" style="fill: #3d4d8a; stroke: #3d4d8a"/>
     <use xlink:href="#mf922ea0b97" x="361.856498" y="43.631486" style="fill: #3d4d8a; stroke: #3d4d8a"/>
     <use xlink:href="#mf922ea0b97" x="400.28625" y="26.881763" style="fill: #3d4d8a; stroke: #3d4d8a"/>
     <use xlink:href="#mf922ea0b97" x="438.716002" y="28.379059" style="fill: #3d4d8a; stroke: #3d4d8a"/>
     <use xlink:href="#mf922ea0b97" x="477.145754" y="28.373466" style="fill: #3d4d8a; stroke: #3d4d8a"/>
     <use xlink:href="#mf922ea0b97" x="515.575506" y="28.342729" style="fill: #3d4d8a; stroke: #3d4d8a"/>
     <use xlink:href="#mf922ea0b97" x="554.005258" y="28.478295" style="fill: #3d4d8a; stroke: #3d4d8a"/>
     <use xlink:href="#mf922ea0b97" x="592.43501" y="26.548834" style="fill: #3d4d8a; stroke: #3d4d8a"/>
     <use xlink:href="#mf922ea0b97" x="630.864762" y="41.251702" style="fill: #3d4d8a; stroke: #3d4d8a"/>
    </g>
   </g>
   <g id="line2d_36">
    <path d="M 169.707738 236.327936 
L 208.13749 245.871713 
L 246.567242 234.768503 
L 284.996994 192.267737 
L 323.426746 120.455432 
L 361.856498 53.370417 
L 400.28625 30.324482 
L 438.716002 33.569346 
L 477.145754 31.151062 
L 515.575506 29.737742 
L 554.005258 25.50214 
L 592.43501 26.944663 
L 630.864762 40.833113 
" clip-path="url(#pce99f434c0)" style="fill: none; stroke: #23888e; stroke-width: 3; stroke-linecap: square"/>
    <defs>
     <path id="m2957ef9886" d="M 0 3 
C 0.795609 3 1.55874 2.683901 2.12132 2.12132 
C 2.683901 1.55874 3 0.795609 3 0 
C 3 -0.795609 2.683901 -1.55874 2.12132 -2.12132 
C 1.55874 -2.683901 0.795609 -3 0 -3 
C -0.795609 -3 -1.55874 -2.683901 -2.12132 -2.12132 
C -2.683901 -1.55874 -3 -0.795609 -3 0 
C -3 0.795609 -2.683901 1.55874 -2.12132 2.12132 
C -1.55874 2.683901 -0.795609 3 0 3 
z
" style="stroke: #23888e"/>
    </defs>
    <g clip-path="url(#pce99f434c0)">
     <use xlink:href="#m2957ef9886" x="169.707738" y="236.327936" style="fill: #23888e; stroke: #23888e"/>
     <use xlink:href="#m2957ef9886" x="208.13749" y="245.871713" style="fill: #23888e; stroke: #23888e"/>
     <use xlink:href="#m2957ef9886" x="246.567242" y="234.768503" style="fill: #23888e; stroke: #23888e"/>
     <use xlink:href="#m2957ef9886" x="284.996994" y="192.267737" style="fill: #23888e; stroke: #23888e"/>
     <use xlink:href="#m2957ef9886" x="323.426746" y="120.455432" style="fill: #23888e; stroke: #23888e"/>
     <use xlink:href="#m2957ef9886" x="361.856498" y="53.370417" style="fill: #23888e; stroke: #23888e"/>
     <use xlink:href="#m2957ef9886" x="400.28625" y="30.324482" style="fill: #23888e; stroke: #23888e"/>
     <use xlink:href="#m2957ef9886" x="438.716002" y="33.569346" style="fill: #23888e; stroke: #23888e"/>
     <use xlink:href="#m2957ef9886" x="477.145754" y="31.151062" style="fill: #23888e; stroke: #23888e"/>
     <use xlink:href="#m2957ef9886" x="515.575506" y="29.737742" style="fill: #23888e; stroke: #23888e"/>
     <use xlink:href="#m2957ef9886" x="554.005258" y="25.50214" style="fill: #23888e; stroke: #23888e"/>
     <use xlink:href="#m2957ef9886" x="592.43501" y="26.944663" style="fill: #23888e; stroke: #23888e"/>
     <use xlink:href="#m2957ef9886" x="630.864762" y="40.833113" style="fill: #23888e; stroke: #23888e"/>
    </g>
   </g>
   <g id="line2d_37">
    <path d="M 169.707738 241.855783 
L 208.13749 225.532018 
L 246.567242 213.835759 
L 284.996994 154.425214 
L 323.426746 41.524157 
L 361.856498 36.756719 
L 400.28625 33.689986 
L 438.716002 27.095047 
L 477.145754 26.475579 
L 515.575506 26.764422 
L 554.005258 32.397231 
L 592.43501 25.501128 
L 630.864762 45.088198 
" clip-path="url(#pce99f434c0)" style="fill: none; stroke: #44bf70; stroke-width: 3; stroke-linecap: square"/>
    <defs>
     <path id="m91489e553e" d="M 0 3 
C 0.795609 3 1.55874 2.683901 2.12132 2.12132 
C 2.683901 1.55874 3 0.795609 3 0 
C 3 -0.795609 2.683901 -1.55874 2.12132 -2.12132 
C 1.55874 -2.683901 0.795609 -3 0 -3 
C -0.795609 -3 -1.55874 -2.683901 -2.12132 -2.12132 
C -2.683901 -1.55874 -3 -0.795609 -3 0 
C -3 0.795609 -2.683901 1.55874 -2.12132 2.12132 
C -1.55874 2.683901 -0.795609 3 0 3 
z
" style="stroke: #44bf70"/>
    </defs>
    <g clip-path="url(#pce99f434c0)">
     <use xlink:href="#m91489e553e" x="169.707738" y="241.855783" style="fill: #44bf70; stroke: #44bf70"/>
     <use xlink:href="#m91489e553e" x="208.13749" y="225.532018" style="fill: #44bf70; stroke: #44bf70"/>
     <use xlink:href="#m91489e553e" x="246.567242" y="213.835759" style="fill: #44bf70; stroke: #44bf70"/>
     <use xlink:href="#m91489e553e" x="284.996994" y="154.425214" style="fill: #44bf70; stroke: #44bf70"/>
     <use xlink:href="#m91489e553e" x="323.426746" y="41.524157" style="fill: #44bf70; stroke: #44bf70"/>
     <use xlink:href="#m91489e553e" x="361.856498" y="36.756719" style="fill: #44bf70; stroke: #44bf70"/>
     <use xlink:href="#m91489e553e" x="400.28625" y="33.689986" style="fill: #44bf70; stroke: #44bf70"/>
     <use xlink:href="#m91489e553e" x="438.716002" y="27.095047" style="fill: #44bf70; stroke: #44bf70"/>
     <use xlink:href="#m91489e553e" x="477.145754" y="26.475579" style="fill: #44bf70; stroke: #44bf70"/>
     <use xlink:href="#m91489e553e" x="515.575506" y="26.764422" style="fill: #44bf70; stroke: #44bf70"/>
     <use xlink:href="#m91489e553e" x="554.005258" y="32.397231" style="fill: #44bf70; stroke: #44bf70"/>
     <use xlink:href="#m91489e553e" x="592.43501" y="25.501128" style="fill: #44bf70; stroke: #44bf70"/>
     <use xlink:href="#m91489e553e" x="630.864762" y="45.088198" style="fill: #44bf70; stroke: #44bf70"/>
    </g>
   </g>
   <g id="patch_3">
    <path d="M 121.28625 458.318437 
L 121.28625 14.798437 
" style="fill: none; stroke: #000000; stroke-width: 0.8; stroke-linejoin: miter; stroke-linecap: square"/>
   </g>
   <g id="patch_4">
    <path d="M 679.28625 458.318437 
L 679.28625 14.798437 
" style="fill: none; stroke: #000000; stroke-width: 0.8; stroke-linejoin: miter; stroke-linecap: square"/>
   </g>
   <g id="patch_5">
    <path d="M 121.28625 458.318437 
L 679.28625 458.318437 
" style="fill: none; stroke: #000000; stroke-width: 0.8; stroke-linejoin: miter; stroke-linecap: square"/>
   </g>
   <g id="patch_6">
    <path d="M 121.28625 14.798437 
L 679.28625 14.798437 
" style="fill: none; stroke: #000000; stroke-width: 0.8; stroke-linejoin: miter; stroke-linecap: square"/>
   </g>
   <g id="legend_1">
    <g id="patch_7">
     <path d="M 135.28625 448.318437 
L 309.0925 448.318437 
Q 313.0925 448.318437 313.0925 444.318437 
L 313.0925 328.893438 
Q 313.0925 324.893438 309.0925 324.893438 
L 135.28625 324.893438 
Q 131.28625 324.893438 131.28625 328.893438 
L 131.28625 444.318437 
Q 131.28625 448.318437 135.28625 448.318437 
z
" style="fill: #ffffff; opacity: 0.8; stroke: #cccccc; stroke-linejoin: miter"/>
    </g>
    <g id="LineCollection_5">
     <path d="M 159.28625 351.090312 
L 159.28625 331.090312 
" style="fill: none; stroke: #440154"/>
    </g>
    <g id="line2d_38">
     <path d="M 139.28625 341.090312 
L 179.28625 341.090312 
" style="fill: none; stroke: #440154; stroke-width: 3; stroke-linecap: square"/>
    </g>
    <g id="line2d_39">
     <g>
      <use xlink:href="#mffb156a3fa" x="159.28625" y="341.090312" style="fill: #440154; stroke: #440154"/>
     </g>
    </g>
    <g id="text_19">
     <!-- μ=0 σ=0 -->
     <g transform="translate(195.28625 348.090312)scale(0.2 -0.2)">
      <defs>
       <path id="DejaVuSans-3bc" d="M 544 -1331 
L 544 3500 
L 1119 3500 
L 1119 1325 
Q 1119 872 1334 640 
Q 1550 409 1972 409 
Q 2434 409 2667 671 
Q 2900 934 2900 1459 
L 2900 3500 
L 3475 3500 
L 3475 806 
Q 3475 619 3529 530 
Q 3584 441 3700 441 
Q 3728 441 3778 458 
Q 3828 475 3916 513 
L 3916 50 
Q 3788 -22 3673 -56 
Q 3559 -91 3450 -91 
Q 3234 -91 3106 31 
Q 2978 153 2931 403 
Q 2775 156 2548 32 
Q 2322 -91 2016 -91 
Q 1697 -91 1473 31 
Q 1250 153 1119 397 
L 1119 -1331 
L 544 -1331 
z
" transform="scale(0.015625)"/>
       <path id="DejaVuSans-3d" d="M 678 2906 
L 4684 2906 
L 4684 2381 
L 678 2381 
L 678 2906 
z
M 678 1631 
L 4684 1631 
L 4684 1100 
L 678 1100 
L 678 1631 
z
" transform="scale(0.015625)"/>
       <path id="DejaVuSans-3c3" d="M 1959 3044 
Q 1484 3044 1228 2700 
Q 959 2341 959 1747 
Q 959 1119 1226 758 
Q 1494 397 1959 397 
Q 2419 397 2687 759 
Q 2956 1122 2956 1747 
Q 2956 2319 2688 2700 
Q 2441 3044 1959 3044 
z
M 1959 3500 
L 3869 3500 
L 3869 2925 
L 3225 2925 
Q 3566 2438 3566 1747 
Q 3566 888 3138 400 
Q 2709 -91 1959 -91 
Q 1206 -91 781 400 
Q 353 888 353 1747 
Q 353 2613 781 3097 
Q 1134 3500 1959 3500 
z
" transform="scale(0.015625)"/>
      </defs>
      <use xlink:href="#DejaVuSans-3bc"/>
      <use xlink:href="#DejaVuSans-3d" x="63.623047"/>
      <use xlink:href="#DejaVuSans-30" x="147.412109"/>
      <use xlink:href="#DejaVuSans-20" x="211.035156"/>
      <use xlink:href="#DejaVuSans-3c3" x="242.822266"/>
      <use xlink:href="#DejaVuSans-3d" x="306.201172"/>
      <use xlink:href="#DejaVuSans-30" x="389.990234"/>
     </g>
    </g>
    <g id="LineCollection_6">
     <path d="M 159.28625 380.446562 
L 159.28625 360.446562 
" style="fill: none; stroke: #3d4d8a"/>
    </g>
    <g id="line2d_40">
     <path d="M 139.28625 370.446562 
L 179.28625 370.446562 
" style="fill: none; stroke: #3d4d8a; stroke-width: 3; stroke-linecap: square"/>
    </g>
    <g id="line2d_41">
     <g>
      <use xlink:href="#mf922ea0b97" x="159.28625" y="370.446562" style="fill: #3d4d8a; stroke: #3d4d8a"/>
     </g>
    </g>
    <g id="text_20">
     <!-- μ=7.5 σ=2 -->
     <g transform="translate(195.28625 377.446562)scale(0.2 -0.2)">
      <use xlink:href="#DejaVuSans-3bc"/>
      <use xlink:href="#DejaVuSans-3d" x="63.623047"/>
      <use xlink:href="#DejaVuSans-37" x="147.412109"/>
      <use xlink:href="#DejaVuSans-2e" x="211.035156"/>
      <use xlink:href="#DejaVuSans-35" x="242.822266"/>
      <use xlink:href="#DejaVuSans-20" x="306.445312"/>
      <use xlink:href="#DejaVuSans-3c3" x="338.232422"/>
      <use xlink:href="#DejaVuSans-3d" x="401.611328"/>
      <use xlink:href="#DejaVuSans-32" x="485.400391"/>
     </g>
    </g>
    <g id="LineCollection_7">
     <path d="M 159.28625 409.802812 
L 159.28625 389.802812 
" style="fill: none; stroke: #23888e"/>
    </g>
    <g id="line2d_42">
     <path d="M 139.28625 399.802812 
L 179.28625 399.802812 
" style="fill: none; stroke: #23888e; stroke-width: 3; stroke-linecap: square"/>
    </g>
    <g id="line2d_43">
     <g>
      <use xlink:href="#m2957ef9886" x="159.28625" y="399.802812" style="fill: #23888e; stroke: #23888e"/>
     </g>
    </g>
    <g id="text_21">
     <!-- μ=0 σ=2 -->
     <g transform="translate(195.28625 406.802812)scale(0.2 -0.2)">
      <use xlink:href="#DejaVuSans-3bc"/>
      <use xlink:href="#DejaVuSans-3d" x="63.623047"/>
      <use xlink:href="#DejaVuSans-30" x="147.412109"/>
      <use xlink:href="#DejaVuSans-20" x="211.035156"/>
      <use xlink:href="#DejaVuSans-3c3" x="242.822266"/>
      <use xlink:href="#DejaVuSans-3d" x="306.201172"/>
      <use xlink:href="#DejaVuSans-32" x="389.990234"/>
     </g>
    </g>
    <g id="LineCollection_8">
     <path d="M 159.28625 439.159063 
L 159.28625 419.159063 
" style="fill: none; stroke: #44bf70"/>
    </g>
    <g id="line2d_44">
     <path d="M 139.28625 429.159063 
L 179.28625 429.159063 
" style="fill: none; stroke: #44bf70; stroke-width: 3; stroke-linecap: square"/>
    </g>
    <g id="line2d_45">
     <g>
      <use xlink:href="#m91489e553e" x="159.28625" y="429.159063" style="fill: #44bf70; stroke: #44bf70"/>
     </g>
    </g>
    <g id="text_22">
     <!-- μ=7.5 σ=0 -->
     <g transform="translate(195.28625 436.159063)scale(0.2 -0.2)">
      <use xlink:href="#DejaVuSans-3bc"/>
      <use xlink:href="#DejaVuSans-3d" x="63.623047"/>
      <use xlink:href="#DejaVuSans-37" x="147.412109"/>
      <use xlink:href="#DejaVuSans-2e" x="211.035156"/>
      <use xlink:href="#DejaVuSans-35" x="242.822266"/>
      <use xlink:href="#DejaVuSans-20" x="306.445312"/>
      <use xlink:href="#DejaVuSans-3c3" x="338.232422"/>
      <use xlink:href="#DejaVuSans-3d" x="401.611328"/>
      <use xlink:href="#DejaVuSans-30" x="485.400391"/>
     </g>
    </g>
   </g>
  </g>
 </g>
 <defs>
  <clipPath id="pce99f434c0">
   <rect x="121.28625" y="14.798437" width="558" height="443.52"/>
  </clipPath>
 </defs>
</svg>
