<?xml version="1.0" encoding="utf-8" standalone="no"?>
<!DOCTYPE svg PUBLIC "-//W3C//DTD SVG 1.1//EN"
  "http://www.w3.org/Graphics/SVG/1.1/DTD/svg11.dtd">
<svg xmlns:xlink="http://www.w3.org/1999/xlink" width="686.48625pt" height="515.274688pt" viewBox="0 0 686.48625 515.274688" xmlns="http://www.w3.org/2000/svg" version="1.1">
 <metadata>
  <rdf:RDF xmlns:dc="http://purl.org/dc/elements/1.1/" xmlns:cc="http://creativecommons.org/ns#" xmlns:rdf="http://www.w3.org/1999/02/22-rdf-syntax-ns#">
   <cc:Work>
    <dc:type rdf:resource="http://purl.org/dc/dcmitype/StillImage"/>
    <dc:date>2023-06-12T08:48:43.100320</dc:date>
    <dc:format>image/svg+xml</dc:format>
    <dc:creator>
     <cc:Agent>
      <dc:title>Matplotlib v3.5.2, https://matplotlib.org/</dc:title>
     </cc:Agent>
    </dc:creator>
   </cc:Work>
  </rdf:RDF>
 </metadata>
 <defs>
  <style type="text/css">*{stroke-linejoin: round; stroke-linecap: butt}</style>
 </defs>
 <g id="figure_1">
  <g id="patch_1">
   <path d="M 0 515.274688 
L 686.48625 515.274688 
L 686.48625 0 
L 0 0 
z
" style="fill: #ffffff"/>
  </g>
  <g id="axes_1">
   <g id="patch_2">
    <path d="M 121.28625 458.318438 
L 679.28625 458.318438 
L 679.28625 14.798438 
L 121.28625 14.798438 
z
" style="fill: #ffffff"/>
   </g>
   <g id="matplotlib.axis_1">
    <g id="xtick_1">
     <g id="line2d_1">
      <path d="M 146.649886 458.318438 
L 146.649886 14.798438 
" clip-path="url(#p01d12db57c)" style="fill: none; stroke: #b0b0b0; stroke-width: 0.8; stroke-linecap: square"/>
     </g>
     <g id="line2d_2">
      <defs>
       <path id="m6d5809e17a" d="M 0 0 
L 0 3.5 
" style="stroke: #000000; stroke-width: 0.8"/>
      </defs>
      <g>
       <use xlink:href="#m6d5809e17a" x="146.649886" y="458.318438" style="stroke: #000000; stroke-width: 0.8"/>
      </g>
     </g>
     <g id="text_1">
      <!-- 0.0 -->
      <g transform="translate(130.746761 480.515313)scale(0.2 -0.2)">
       <defs>
        <path id="DejaVuSans-30" d="M 2034 4250 
Q 1547 4250 1301 3770 
Q 1056 3291 1056 2328 
Q 1056 1369 1301 889 
Q 1547 409 2034 409 
Q 2525 409 2770 889 
Q 3016 1369 3016 2328 
Q 3016 3291 2770 3770 
Q 2525 4250 2034 4250 
z
M 2034 4750 
Q 2819 4750 3233 4129 
Q 3647 3509 3647 2328 
Q 3647 1150 3233 529 
Q 2819 -91 2034 -91 
Q 1250 -91 836 529 
Q 422 1150 422 2328 
Q 422 3509 836 4129 
Q 1250 4750 2034 4750 
z
" transform="scale(0.015625)"/>
        <path id="DejaVuSans-2e" d="M 684 794 
L 1344 794 
L 1344 0 
L 684 0 
L 684 794 
z
" transform="scale(0.015625)"/>
       </defs>
       <use xlink:href="#DejaVuSans-30"/>
       <use xlink:href="#DejaVuSans-2e" x="63.623047"/>
       <use xlink:href="#DejaVuSans-30" x="95.410156"/>
      </g>
     </g>
    </g>
    <g id="xtick_2">
     <g id="line2d_3">
      <path d="M 210.058977 458.318438 
L 210.058977 14.798438 
" clip-path="url(#p01d12db57c)" style="fill: none; stroke: #b0b0b0; stroke-width: 0.8; stroke-linecap: square"/>
     </g>
     <g id="line2d_4">
      <g>
       <use xlink:href="#m6d5809e17a" x="210.058977" y="458.318438" style="stroke: #000000; stroke-width: 0.8"/>
      </g>
     </g>
     <g id="text_2">
      <!-- 2.5 -->
      <g transform="translate(194.155852 480.515313)scale(0.2 -0.2)">
       <defs>
        <path id="DejaVuSans-32" d="M 1228 531 
L 3431 531 
L 3431 0 
L 469 0 
L 469 531 
Q 828 903 1448 1529 
Q 2069 2156 2228 2338 
Q 2531 2678 2651 2914 
Q 2772 3150 2772 3378 
Q 2772 3750 2511 3984 
Q 2250 4219 1831 4219 
Q 1534 4219 1204 4116 
Q 875 4013 500 3803 
L 500 4441 
Q 881 4594 1212 4672 
Q 1544 4750 1819 4750 
Q 2544 4750 2975 4387 
Q 3406 4025 3406 3419 
Q 3406 3131 3298 2873 
Q 3191 2616 2906 2266 
Q 2828 2175 2409 1742 
Q 1991 1309 1228 531 
z
" transform="scale(0.015625)"/>
        <path id="DejaVuSans-35" d="M 691 4666 
L 3169 4666 
L 3169 4134 
L 1269 4134 
L 1269 2991 
Q 1406 3038 1543 3061 
Q 1681 3084 1819 3084 
Q 2600 3084 3056 2656 
Q 3513 2228 3513 1497 
Q 3513 744 3044 326 
Q 2575 -91 1722 -91 
Q 1428 -91 1123 -41 
Q 819 9 494 109 
L 494 744 
Q 775 591 1075 516 
Q 1375 441 1709 441 
Q 2250 441 2565 725 
Q 2881 1009 2881 1497 
Q 2881 1984 2565 2268 
Q 2250 2553 1709 2553 
Q 1456 2553 1204 2497 
Q 953 2441 691 2322 
L 691 4666 
z
" transform="scale(0.015625)"/>
       </defs>
       <use xlink:href="#DejaVuSans-32"/>
       <use xlink:href="#DejaVuSans-2e" x="63.623047"/>
       <use xlink:href="#DejaVuSans-35" x="95.410156"/>
      </g>
     </g>
    </g>
    <g id="xtick_3">
     <g id="line2d_5">
      <path d="M 273.468068 458.318438 
L 273.468068 14.798438 
" clip-path="url(#p01d12db57c)" style="fill: none; stroke: #b0b0b0; stroke-width: 0.8; stroke-linecap: square"/>
     </g>
     <g id="line2d_6">
      <g>
       <use xlink:href="#m6d5809e17a" x="273.468068" y="458.318438" style="stroke: #000000; stroke-width: 0.8"/>
      </g>
     </g>
     <g id="text_3">
      <!-- 5.0 -->
      <g transform="translate(257.564943 480.515313)scale(0.2 -0.2)">
       <use xlink:href="#DejaVuSans-35"/>
       <use xlink:href="#DejaVuSans-2e" x="63.623047"/>
       <use xlink:href="#DejaVuSans-30" x="95.410156"/>
      </g>
     </g>
    </g>
    <g id="xtick_4">
     <g id="line2d_7">
      <path d="M 336.877159 458.318438 
L 336.877159 14.798438 
" clip-path="url(#p01d12db57c)" style="fill: none; stroke: #b0b0b0; stroke-width: 0.8; stroke-linecap: square"/>
     </g>
     <g id="line2d_8">
      <g>
       <use xlink:href="#m6d5809e17a" x="336.877159" y="458.318438" style="stroke: #000000; stroke-width: 0.8"/>
      </g>
     </g>
     <g id="text_4">
      <!-- 7.5 -->
      <g transform="translate(320.974034 480.515313)scale(0.2 -0.2)">
       <defs>
        <path id="DejaVuSans-37" d="M 525 4666 
L 3525 4666 
L 3525 4397 
L 1831 0 
L 1172 0 
L 2766 4134 
L 525 4134 
L 525 4666 
z
" transform="scale(0.015625)"/>
       </defs>
       <use xlink:href="#DejaVuSans-37"/>
       <use xlink:href="#DejaVuSans-2e" x="63.623047"/>
       <use xlink:href="#DejaVuSans-35" x="95.410156"/>
      </g>
     </g>
    </g>
    <g id="xtick_5">
     <g id="line2d_9">
      <path d="M 400.28625 458.318438 
L 400.28625 14.798438 
" clip-path="url(#p01d12db57c)" style="fill: none; stroke: #b0b0b0; stroke-width: 0.8; stroke-linecap: square"/>
     </g>
     <g id="line2d_10">
      <g>
       <use xlink:href="#m6d5809e17a" x="400.28625" y="458.318438" style="stroke: #000000; stroke-width: 0.8"/>
      </g>
     </g>
     <g id="text_5">
      <!-- 10.0 -->
      <g transform="translate(378.020625 480.515313)scale(0.2 -0.2)">
       <defs>
        <path id="DejaVuSans-31" d="M 794 531 
L 1825 531 
L 1825 4091 
L 703 3866 
L 703 4441 
L 1819 4666 
L 2450 4666 
L 2450 531 
L 3481 531 
L 3481 0 
L 794 0 
L 794 531 
z
" transform="scale(0.015625)"/>
       </defs>
       <use xlink:href="#DejaVuSans-31"/>
       <use xlink:href="#DejaVuSans-30" x="63.623047"/>
       <use xlink:href="#DejaVuSans-2e" x="127.246094"/>
       <use xlink:href="#DejaVuSans-30" x="159.033203"/>
      </g>
     </g>
    </g>
    <g id="xtick_6">
     <g id="line2d_11">
      <path d="M 463.695341 458.318438 
L 463.695341 14.798438 
" clip-path="url(#p01d12db57c)" style="fill: none; stroke: #b0b0b0; stroke-width: 0.8; stroke-linecap: square"/>
     </g>
     <g id="line2d_12">
      <g>
       <use xlink:href="#m6d5809e17a" x="463.695341" y="458.318438" style="stroke: #000000; stroke-width: 0.8"/>
      </g>
     </g>
     <g id="text_6">
      <!-- 12.5 -->
      <g transform="translate(441.429716 480.515313)scale(0.2 -0.2)">
       <use xlink:href="#DejaVuSans-31"/>
       <use xlink:href="#DejaVuSans-32" x="63.623047"/>
       <use xlink:href="#DejaVuSans-2e" x="127.246094"/>
       <use xlink:href="#DejaVuSans-35" x="159.033203"/>
      </g>
     </g>
    </g>
    <g id="xtick_7">
     <g id="line2d_13">
      <path d="M 527.104432 458.318438 
L 527.104432 14.798438 
" clip-path="url(#p01d12db57c)" style="fill: none; stroke: #b0b0b0; stroke-width: 0.8; stroke-linecap: square"/>
     </g>
     <g id="line2d_14">
      <g>
       <use xlink:href="#m6d5809e17a" x="527.104432" y="458.318438" style="stroke: #000000; stroke-width: 0.8"/>
      </g>
     </g>
     <g id="text_7">
      <!-- 15.0 -->
      <g transform="translate(504.838807 480.515313)scale(0.2 -0.2)">
       <use xlink:href="#DejaVuSans-31"/>
       <use xlink:href="#DejaVuSans-35" x="63.623047"/>
       <use xlink:href="#DejaVuSans-2e" x="127.246094"/>
       <use xlink:href="#DejaVuSans-30" x="159.033203"/>
      </g>
     </g>
    </g>
    <g id="xtick_8">
     <g id="line2d_15">
      <path d="M 590.513523 458.318438 
L 590.513523 14.798438 
" clip-path="url(#p01d12db57c)" style="fill: none; stroke: #b0b0b0; stroke-width: 0.8; stroke-linecap: square"/>
     </g>
     <g id="line2d_16">
      <g>
       <use xlink:href="#m6d5809e17a" x="590.513523" y="458.318438" style="stroke: #000000; stroke-width: 0.8"/>
      </g>
     </g>
     <g id="text_8">
      <!-- 17.5 -->
      <g transform="translate(568.247898 480.515313)scale(0.2 -0.2)">
       <use xlink:href="#DejaVuSans-31"/>
       <use xlink:href="#DejaVuSans-37" x="63.623047"/>
       <use xlink:href="#DejaVuSans-2e" x="127.246094"/>
       <use xlink:href="#DejaVuSans-35" x="159.033203"/>
      </g>
     </g>
    </g>
    <g id="xtick_9">
     <g id="line2d_17">
      <path d="M 653.922614 458.318438 
L 653.922614 14.798438 
" clip-path="url(#p01d12db57c)" style="fill: none; stroke: #b0b0b0; stroke-width: 0.8; stroke-linecap: square"/>
     </g>
     <g id="line2d_18">
      <g>
       <use xlink:href="#m6d5809e17a" x="653.922614" y="458.318438" style="stroke: #000000; stroke-width: 0.8"/>
      </g>
     </g>
     <g id="text_9">
      <!-- 20.0 -->
      <g transform="translate(631.656989 480.515313)scale(0.2 -0.2)">
       <use xlink:href="#DejaVuSans-32"/>
       <use xlink:href="#DejaVuSans-30" x="63.623047"/>
       <use xlink:href="#DejaVuSans-2e" x="127.246094"/>
       <use xlink:href="#DejaVuSans-30" x="159.033203"/>
      </g>
     </g>
    </g>
    <g id="text_10">
     <!-- $\mu_c$ [pixels] -->
     <g transform="translate(349.58625 503.874688)scale(0.2 -0.2)">
      <defs>
       <path id="DejaVuSans-Oblique-3bc" d="M -84 -1331 
L 856 3500 
L 1434 3500 
L 1009 1322 
Q 997 1256 987 1175 
Q 978 1094 978 1013 
Q 978 722 1161 565 
Q 1344 409 1684 409 
Q 2147 409 2431 671 
Q 2716 934 2816 1459 
L 3213 3500 
L 3788 3500 
L 3266 809 
Q 3253 750 3248 706 
Q 3244 663 3244 628 
Q 3244 531 3283 486 
Q 3322 441 3406 441 
Q 3438 441 3492 456 
Q 3547 472 3647 513 
L 3559 50 
Q 3422 -19 3297 -55 
Q 3172 -91 3053 -91 
Q 2847 -91 2730 40 
Q 2613 172 2613 403 
Q 2438 153 2195 31 
Q 1953 -91 1625 -91 
Q 1334 -91 1117 43 
Q 900 178 831 397 
L 494 -1331 
L -84 -1331 
z
" transform="scale(0.015625)"/>
       <path id="DejaVuSans-Oblique-63" d="M 3431 3366 
L 3316 2797 
Q 3109 2947 2876 3022 
Q 2644 3097 2394 3097 
Q 2119 3097 1870 3000 
Q 1622 2903 1453 2725 
Q 1184 2453 1037 2087 
Q 891 1722 891 1331 
Q 891 859 1127 628 
Q 1363 397 1844 397 
Q 2081 397 2348 469 
Q 2616 541 2906 684 
L 2797 116 
Q 2547 13 2283 -39 
Q 2019 -91 1741 -91 
Q 1044 -91 669 257 
Q 294 606 294 1253 
Q 294 1797 489 2255 
Q 684 2713 1069 3078 
Q 1331 3328 1684 3456 
Q 2038 3584 2456 3584 
Q 2700 3584 2940 3529 
Q 3181 3475 3431 3366 
z
" transform="scale(0.015625)"/>
       <path id="DejaVuSans-20" transform="scale(0.015625)"/>
       <path id="DejaVuSans-5b" d="M 550 4863 
L 1875 4863 
L 1875 4416 
L 1125 4416 
L 1125 -397 
L 1875 -397 
L 1875 -844 
L 550 -844 
L 550 4863 
z
" transform="scale(0.015625)"/>
       <path id="DejaVuSans-70" d="M 1159 525 
L 1159 -1331 
L 581 -1331 
L 581 3500 
L 1159 3500 
L 1159 2969 
Q 1341 3281 1617 3432 
Q 1894 3584 2278 3584 
Q 2916 3584 3314 3078 
Q 3713 2572 3713 1747 
Q 3713 922 3314 415 
Q 2916 -91 2278 -91 
Q 1894 -91 1617 61 
Q 1341 213 1159 525 
z
M 3116 1747 
Q 3116 2381 2855 2742 
Q 2594 3103 2138 3103 
Q 1681 3103 1420 2742 
Q 1159 2381 1159 1747 
Q 1159 1113 1420 752 
Q 1681 391 2138 391 
Q 2594 391 2855 752 
Q 3116 1113 3116 1747 
z
" transform="scale(0.015625)"/>
       <path id="DejaVuSans-69" d="M 603 3500 
L 1178 3500 
L 1178 0 
L 603 0 
L 603 3500 
z
M 603 4863 
L 1178 4863 
L 1178 4134 
L 603 4134 
L 603 4863 
z
" transform="scale(0.015625)"/>
       <path id="DejaVuSans-78" d="M 3513 3500 
L 2247 1797 
L 3578 0 
L 2900 0 
L 1881 1375 
L 863 0 
L 184 0 
L 1544 1831 
L 300 3500 
L 978 3500 
L 1906 2253 
L 2834 3500 
L 3513 3500 
z
" transform="scale(0.015625)"/>
       <path id="DejaVuSans-65" d="M 3597 1894 
L 3597 1613 
L 953 1613 
Q 991 1019 1311 708 
Q 1631 397 2203 397 
Q 2534 397 2845 478 
Q 3156 559 3463 722 
L 3463 178 
Q 3153 47 2828 -22 
Q 2503 -91 2169 -91 
Q 1331 -91 842 396 
Q 353 884 353 1716 
Q 353 2575 817 3079 
Q 1281 3584 2069 3584 
Q 2775 3584 3186 3129 
Q 3597 2675 3597 1894 
z
M 3022 2063 
Q 3016 2534 2758 2815 
Q 2500 3097 2075 3097 
Q 1594 3097 1305 2825 
Q 1016 2553 972 2059 
L 3022 2063 
z
" transform="scale(0.015625)"/>
       <path id="DejaVuSans-6c" d="M 603 4863 
L 1178 4863 
L 1178 0 
L 603 0 
L 603 4863 
z
" transform="scale(0.015625)"/>
       <path id="DejaVuSans-73" d="M 2834 3397 
L 2834 2853 
Q 2591 2978 2328 3040 
Q 2066 3103 1784 3103 
Q 1356 3103 1142 2972 
Q 928 2841 928 2578 
Q 928 2378 1081 2264 
Q 1234 2150 1697 2047 
L 1894 2003 
Q 2506 1872 2764 1633 
Q 3022 1394 3022 966 
Q 3022 478 2636 193 
Q 2250 -91 1575 -91 
Q 1294 -91 989 -36 
Q 684 19 347 128 
L 347 722 
Q 666 556 975 473 
Q 1284 391 1588 391 
Q 1994 391 2212 530 
Q 2431 669 2431 922 
Q 2431 1156 2273 1281 
Q 2116 1406 1581 1522 
L 1381 1569 
Q 847 1681 609 1914 
Q 372 2147 372 2553 
Q 372 3047 722 3315 
Q 1072 3584 1716 3584 
Q 2034 3584 2315 3537 
Q 2597 3491 2834 3397 
z
" transform="scale(0.015625)"/>
       <path id="DejaVuSans-5d" d="M 1947 4863 
L 1947 -844 
L 622 -844 
L 622 -397 
L 1369 -397 
L 1369 4416 
L 622 4416 
L 622 4863 
L 1947 4863 
z
" transform="scale(0.015625)"/>
      </defs>
      <use xlink:href="#DejaVuSans-Oblique-3bc" transform="translate(0 0.015625)"/>
      <use xlink:href="#DejaVuSans-Oblique-63" transform="translate(63.623047 -16.390625)scale(0.7)"/>
      <use xlink:href="#DejaVuSans-20" transform="translate(104.84375 0.015625)"/>
      <use xlink:href="#DejaVuSans-5b" transform="translate(136.630859 0.015625)"/>
      <use xlink:href="#DejaVuSans-70" transform="translate(175.644531 0.015625)"/>
      <use xlink:href="#DejaVuSans-69" transform="translate(239.121094 0.015625)"/>
      <use xlink:href="#DejaVuSans-78" transform="translate(266.904297 0.015625)"/>
      <use xlink:href="#DejaVuSans-65" transform="translate(326.083984 0.015625)"/>
      <use xlink:href="#DejaVuSans-6c" transform="translate(387.607422 0.015625)"/>
      <use xlink:href="#DejaVuSans-73" transform="translate(415.390625 0.015625)"/>
      <use xlink:href="#DejaVuSans-5d" transform="translate(467.490234 0.015625)"/>
     </g>
    </g>
   </g>
   <g id="matplotlib.axis_2">
    <g id="ytick_1">
     <g id="line2d_19">
      <path d="M 121.28625 458.318438 
L 679.28625 458.318438 
" clip-path="url(#p01d12db57c)" style="fill: none; stroke: #b0b0b0; stroke-width: 0.8; stroke-linecap: square"/>
     </g>
     <g id="line2d_20">
      <defs>
       <path id="ma307541df2" d="M 0 0 
L -3.5 0 
" style="stroke: #000000; stroke-width: 0.8"/>
      </defs>
      <g>
       <use xlink:href="#ma307541df2" x="121.28625" y="458.318438" style="stroke: #000000; stroke-width: 0.8"/>
      </g>
     </g>
     <g id="text_11">
      <!-- −1.00 -->
      <g transform="translate(52.995625 465.916875)scale(0.2 -0.2)">
       <defs>
        <path id="DejaVuSans-2212" d="M 678 2272 
L 4684 2272 
L 4684 1741 
L 678 1741 
L 678 2272 
z
" transform="scale(0.015625)"/>
       </defs>
       <use xlink:href="#DejaVuSans-2212"/>
       <use xlink:href="#DejaVuSans-31" x="83.789062"/>
       <use xlink:href="#DejaVuSans-2e" x="147.412109"/>
       <use xlink:href="#DejaVuSans-30" x="179.199219"/>
       <use xlink:href="#DejaVuSans-30" x="242.822266"/>
      </g>
     </g>
    </g>
    <g id="ytick_2">
     <g id="line2d_21">
      <path d="M 121.28625 402.878438 
L 679.28625 402.878438 
" clip-path="url(#p01d12db57c)" style="fill: none; stroke: #b0b0b0; stroke-width: 0.8; stroke-linecap: square"/>
     </g>
     <g id="line2d_22">
      <g>
       <use xlink:href="#ma307541df2" x="121.28625" y="402.878438" style="stroke: #000000; stroke-width: 0.8"/>
      </g>
     </g>
     <g id="text_12">
      <!-- −0.75 -->
      <g transform="translate(52.995625 410.476875)scale(0.2 -0.2)">
       <use xlink:href="#DejaVuSans-2212"/>
       <use xlink:href="#DejaVuSans-30" x="83.789062"/>
       <use xlink:href="#DejaVuSans-2e" x="147.412109"/>
       <use xlink:href="#DejaVuSans-37" x="179.199219"/>
       <use xlink:href="#DejaVuSans-35" x="242.822266"/>
      </g>
     </g>
    </g>
    <g id="ytick_3">
     <g id="line2d_23">
      <path d="M 121.28625 347.438438 
L 679.28625 347.438438 
" clip-path="url(#p01d12db57c)" style="fill: none; stroke: #b0b0b0; stroke-width: 0.8; stroke-linecap: square"/>
     </g>
     <g id="line2d_24">
      <g>
       <use xlink:href="#ma307541df2" x="121.28625" y="347.438438" style="stroke: #000000; stroke-width: 0.8"/>
      </g>
     </g>
     <g id="text_13">
      <!-- −0.50 -->
      <g transform="translate(52.995625 355.036875)scale(0.2 -0.2)">
       <use xlink:href="#DejaVuSans-2212"/>
       <use xlink:href="#DejaVuSans-30" x="83.789062"/>
       <use xlink:href="#DejaVuSans-2e" x="147.412109"/>
       <use xlink:href="#DejaVuSans-35" x="179.199219"/>
       <use xlink:href="#DejaVuSans-30" x="242.822266"/>
      </g>
     </g>
    </g>
    <g id="ytick_4">
     <g id="line2d_25">
      <path d="M 121.28625 291.998438 
L 679.28625 291.998438 
" clip-path="url(#p01d12db57c)" style="fill: none; stroke: #b0b0b0; stroke-width: 0.8; stroke-linecap: square"/>
     </g>
     <g id="line2d_26">
      <g>
       <use xlink:href="#ma307541df2" x="121.28625" y="291.998438" style="stroke: #000000; stroke-width: 0.8"/>
      </g>
     </g>
     <g id="text_14">
      <!-- −0.25 -->
      <g transform="translate(52.995625 299.596875)scale(0.2 -0.2)">
       <use xlink:href="#DejaVuSans-2212"/>
       <use xlink:href="#DejaVuSans-30" x="83.789062"/>
       <use xlink:href="#DejaVuSans-2e" x="147.412109"/>
       <use xlink:href="#DejaVuSans-32" x="179.199219"/>
       <use xlink:href="#DejaVuSans-35" x="242.822266"/>
      </g>
     </g>
    </g>
    <g id="ytick_5">
     <g id="line2d_27">
      <path d="M 121.28625 236.558438 
L 679.28625 236.558438 
" clip-path="url(#p01d12db57c)" style="fill: none; stroke: #b0b0b0; stroke-width: 0.8; stroke-linecap: square"/>
     </g>
     <g id="line2d_28">
      <g>
       <use xlink:href="#ma307541df2" x="121.28625" y="236.558438" style="stroke: #000000; stroke-width: 0.8"/>
      </g>
     </g>
     <g id="text_15">
      <!-- 0.00 -->
      <g transform="translate(69.755 244.156875)scale(0.2 -0.2)">
       <use xlink:href="#DejaVuSans-30"/>
       <use xlink:href="#DejaVuSans-2e" x="63.623047"/>
       <use xlink:href="#DejaVuSans-30" x="95.410156"/>
       <use xlink:href="#DejaVuSans-30" x="159.033203"/>
      </g>
     </g>
    </g>
    <g id="ytick_6">
     <g id="line2d_29">
      <path d="M 121.28625 181.118438 
L 679.28625 181.118438 
" clip-path="url(#p01d12db57c)" style="fill: none; stroke: #b0b0b0; stroke-width: 0.8; stroke-linecap: square"/>
     </g>
     <g id="line2d_30">
      <g>
       <use xlink:href="#ma307541df2" x="121.28625" y="181.118438" style="stroke: #000000; stroke-width: 0.8"/>
      </g>
     </g>
     <g id="text_16">
      <!-- 0.25 -->
      <g transform="translate(69.755 188.716875)scale(0.2 -0.2)">
       <use xlink:href="#DejaVuSans-30"/>
       <use xlink:href="#DejaVuSans-2e" x="63.623047"/>
       <use xlink:href="#DejaVuSans-32" x="95.410156"/>
       <use xlink:href="#DejaVuSans-35" x="159.033203"/>
      </g>
     </g>
    </g>
    <g id="ytick_7">
     <g id="line2d_31">
      <path d="M 121.28625 125.678438 
L 679.28625 125.678438 
" clip-path="url(#p01d12db57c)" style="fill: none; stroke: #b0b0b0; stroke-width: 0.8; stroke-linecap: square"/>
     </g>
     <g id="line2d_32">
      <g>
       <use xlink:href="#ma307541df2" x="121.28625" y="125.678438" style="stroke: #000000; stroke-width: 0.8"/>
      </g>
     </g>
     <g id="text_17">
      <!-- 0.50 -->
      <g transform="translate(69.755 133.276875)scale(0.2 -0.2)">
       <use xlink:href="#DejaVuSans-30"/>
       <use xlink:href="#DejaVuSans-2e" x="63.623047"/>
       <use xlink:href="#DejaVuSans-35" x="95.410156"/>
       <use xlink:href="#DejaVuSans-30" x="159.033203"/>
      </g>
     </g>
    </g>
    <g id="ytick_8">
     <g id="line2d_33">
      <path d="M 121.28625 70.238438 
L 679.28625 70.238438 
" clip-path="url(#p01d12db57c)" style="fill: none; stroke: #b0b0b0; stroke-width: 0.8; stroke-linecap: square"/>
     </g>
     <g id="line2d_34">
      <g>
       <use xlink:href="#ma307541df2" x="121.28625" y="70.238438" style="stroke: #000000; stroke-width: 0.8"/>
      </g>
     </g>
     <g id="text_18">
      <!-- 0.75 -->
      <g transform="translate(69.755 77.836875)scale(0.2 -0.2)">
       <use xlink:href="#DejaVuSans-30"/>
       <use xlink:href="#DejaVuSans-2e" x="63.623047"/>
       <use xlink:href="#DejaVuSans-37" x="95.410156"/>
       <use xlink:href="#DejaVuSans-35" x="159.033203"/>
      </g>
     </g>
    </g>
    <g id="ytick_9">
     <g id="line2d_35">
      <path d="M 121.28625 14.798438 
L 679.28625 14.798438 
" clip-path="url(#p01d12db57c)" style="fill: none; stroke: #b0b0b0; stroke-width: 0.8; stroke-linecap: square"/>
     </g>
     <g id="line2d_36">
      <g>
       <use xlink:href="#ma307541df2" x="121.28625" y="14.798438" style="stroke: #000000; stroke-width: 0.8"/>
      </g>
     </g>
     <g id="text_19">
      <!-- 1.00 -->
      <g transform="translate(69.755 22.396875)scale(0.2 -0.2)">
       <use xlink:href="#DejaVuSans-31"/>
       <use xlink:href="#DejaVuSans-2e" x="63.623047"/>
       <use xlink:href="#DejaVuSans-30" x="95.410156"/>
       <use xlink:href="#DejaVuSans-30" x="159.033203"/>
      </g>
     </g>
    </g>
    <g id="text_20">
     <!-- $\longleftarrow$ Amblyopic Eye              Fellow Eye $\longrightarrow$ -->
     <g transform="translate(22.4 451.158438)rotate(-90)scale(0.2 -0.2)">
      <defs>
       <path id="DejaVuSans-27f5" d="M 313 1866 
L 313 2147 
L 1541 3375 
L 1916 3000 
L 1188 2272 
L 8809 2272 
L 8809 1741 
L 1188 1741 
L 1916 1013 
L 1541 638 
L 313 1866 
z
" transform="scale(0.015625)"/>
       <path id="DejaVuSans-41" d="M 2188 4044 
L 1331 1722 
L 3047 1722 
L 2188 4044 
z
M 1831 4666 
L 2547 4666 
L 4325 0 
L 3669 0 
L 3244 1197 
L 1141 1197 
L 716 0 
L 50 0 
L 1831 4666 
z
" transform="scale(0.015625)"/>
       <path id="DejaVuSans-6d" d="M 3328 2828 
Q 3544 3216 3844 3400 
Q 4144 3584 4550 3584 
Q 5097 3584 5394 3201 
Q 5691 2819 5691 2113 
L 5691 0 
L 5113 0 
L 5113 2094 
Q 5113 2597 4934 2840 
Q 4756 3084 4391 3084 
Q 3944 3084 3684 2787 
Q 3425 2491 3425 1978 
L 3425 0 
L 2847 0 
L 2847 2094 
Q 2847 2600 2669 2842 
Q 2491 3084 2119 3084 
Q 1678 3084 1418 2786 
Q 1159 2488 1159 1978 
L 1159 0 
L 581 0 
L 581 3500 
L 1159 3500 
L 1159 2956 
Q 1356 3278 1631 3431 
Q 1906 3584 2284 3584 
Q 2666 3584 2933 3390 
Q 3200 3197 3328 2828 
z
" transform="scale(0.015625)"/>
       <path id="DejaVuSans-62" d="M 3116 1747 
Q 3116 2381 2855 2742 
Q 2594 3103 2138 3103 
Q 1681 3103 1420 2742 
Q 1159 2381 1159 1747 
Q 1159 1113 1420 752 
Q 1681 391 2138 391 
Q 2594 391 2855 752 
Q 3116 1113 3116 1747 
z
M 1159 2969 
Q 1341 3281 1617 3432 
Q 1894 3584 2278 3584 
Q 2916 3584 3314 3078 
Q 3713 2572 3713 1747 
Q 3713 922 3314 415 
Q 2916 -91 2278 -91 
Q 1894 -91 1617 61 
Q 1341 213 1159 525 
L 1159 0 
L 581 0 
L 581 4863 
L 1159 4863 
L 1159 2969 
z
" transform="scale(0.015625)"/>
       <path id="DejaVuSans-79" d="M 2059 -325 
Q 1816 -950 1584 -1140 
Q 1353 -1331 966 -1331 
L 506 -1331 
L 506 -850 
L 844 -850 
Q 1081 -850 1212 -737 
Q 1344 -625 1503 -206 
L 1606 56 
L 191 3500 
L 800 3500 
L 1894 763 
L 2988 3500 
L 3597 3500 
L 2059 -325 
z
" transform="scale(0.015625)"/>
       <path id="DejaVuSans-6f" d="M 1959 3097 
Q 1497 3097 1228 2736 
Q 959 2375 959 1747 
Q 959 1119 1226 758 
Q 1494 397 1959 397 
Q 2419 397 2687 759 
Q 2956 1122 2956 1747 
Q 2956 2369 2687 2733 
Q 2419 3097 1959 3097 
z
M 1959 3584 
Q 2709 3584 3137 3096 
Q 3566 2609 3566 1747 
Q 3566 888 3137 398 
Q 2709 -91 1959 -91 
Q 1206 -91 779 398 
Q 353 888 353 1747 
Q 353 2609 779 3096 
Q 1206 3584 1959 3584 
z
" transform="scale(0.015625)"/>
       <path id="DejaVuSans-63" d="M 3122 3366 
L 3122 2828 
Q 2878 2963 2633 3030 
Q 2388 3097 2138 3097 
Q 1578 3097 1268 2742 
Q 959 2388 959 1747 
Q 959 1106 1268 751 
Q 1578 397 2138 397 
Q 2388 397 2633 464 
Q 2878 531 3122 666 
L 3122 134 
Q 2881 22 2623 -34 
Q 2366 -91 2075 -91 
Q 1284 -91 818 406 
Q 353 903 353 1747 
Q 353 2603 823 3093 
Q 1294 3584 2113 3584 
Q 2378 3584 2631 3529 
Q 2884 3475 3122 3366 
z
" transform="scale(0.015625)"/>
       <path id="DejaVuSans-45" d="M 628 4666 
L 3578 4666 
L 3578 4134 
L 1259 4134 
L 1259 2753 
L 3481 2753 
L 3481 2222 
L 1259 2222 
L 1259 531 
L 3634 531 
L 3634 0 
L 628 0 
L 628 4666 
z
" transform="scale(0.015625)"/>
       <path id="DejaVuSans-46" d="M 628 4666 
L 3309 4666 
L 3309 4134 
L 1259 4134 
L 1259 2759 
L 3109 2759 
L 3109 2228 
L 1259 2228 
L 1259 0 
L 628 0 
L 628 4666 
z
" transform="scale(0.015625)"/>
       <path id="DejaVuSans-77" d="M 269 3500 
L 844 3500 
L 1563 769 
L 2278 3500 
L 2956 3500 
L 3675 769 
L 4391 3500 
L 4966 3500 
L 4050 0 
L 3372 0 
L 2619 2869 
L 1863 0 
L 1184 0 
L 269 3500 
z
" transform="scale(0.015625)"/>
       <path id="DejaVuSans-27f6" d="M 8863 2147 
L 8863 1866 
L 7634 638 
L 7259 1013 
L 7988 1741 
L 366 1741 
L 366 2272 
L 7988 2272 
L 7259 3000 
L 7634 3375 
L 8863 2147 
z
" transform="scale(0.015625)"/>
      </defs>
      <use xlink:href="#DejaVuSans-27f5" transform="translate(19.482422 0.015625)"/>
      <use xlink:href="#DejaVuSans-20" transform="translate(182.324219 0.015625)"/>
      <use xlink:href="#DejaVuSans-41" transform="translate(214.111328 0.015625)"/>
      <use xlink:href="#DejaVuSans-6d" transform="translate(282.519531 0.015625)"/>
      <use xlink:href="#DejaVuSans-62" transform="translate(379.931641 0.015625)"/>
      <use xlink:href="#DejaVuSans-6c" transform="translate(443.408203 0.015625)"/>
      <use xlink:href="#DejaVuSans-79" transform="translate(471.191406 0.015625)"/>
      <use xlink:href="#DejaVuSans-6f" transform="translate(530.371094 0.015625)"/>
      <use xlink:href="#DejaVuSans-70" transform="translate(591.552734 0.015625)"/>
      <use xlink:href="#DejaVuSans-69" transform="translate(655.029297 0.015625)"/>
      <use xlink:href="#DejaVuSans-63" transform="translate(682.8125 0.015625)"/>
      <use xlink:href="#DejaVuSans-20" transform="translate(737.792969 0.015625)"/>
      <use xlink:href="#DejaVuSans-45" transform="translate(769.580078 0.015625)"/>
      <use xlink:href="#DejaVuSans-79" transform="translate(832.763672 0.015625)"/>
      <use xlink:href="#DejaVuSans-65" transform="translate(891.943359 0.015625)"/>
      <use xlink:href="#DejaVuSans-20" transform="translate(953.466797 0.015625)"/>
      <use xlink:href="#DejaVuSans-20" transform="translate(985.253906 0.015625)"/>
      <use xlink:href="#DejaVuSans-20" transform="translate(1017.041016 0.015625)"/>
      <use xlink:href="#DejaVuSans-20" transform="translate(1048.828125 0.015625)"/>
      <use xlink:href="#DejaVuSans-20" transform="translate(1080.615234 0.015625)"/>
      <use xlink:href="#DejaVuSans-20" transform="translate(1112.402344 0.015625)"/>
      <use xlink:href="#DejaVuSans-20" transform="translate(1144.189453 0.015625)"/>
      <use xlink:href="#DejaVuSans-20" transform="translate(1175.976562 0.015625)"/>
      <use xlink:href="#DejaVuSans-20" transform="translate(1207.763672 0.015625)"/>
      <use xlink:href="#DejaVuSans-20" transform="translate(1239.550781 0.015625)"/>
      <use xlink:href="#DejaVuSans-20" transform="translate(1271.337891 0.015625)"/>
      <use xlink:href="#DejaVuSans-20" transform="translate(1303.125 0.015625)"/>
      <use xlink:href="#DejaVuSans-20" transform="translate(1334.912109 0.015625)"/>
      <use xlink:href="#DejaVuSans-20" transform="translate(1366.699219 0.015625)"/>
      <use xlink:href="#DejaVuSans-46" transform="translate(1398.486328 0.015625)"/>
      <use xlink:href="#DejaVuSans-65" transform="translate(1456.005859 0.015625)"/>
      <use xlink:href="#DejaVuSans-6c" transform="translate(1517.529297 0.015625)"/>
      <use xlink:href="#DejaVuSans-6c" transform="translate(1545.3125 0.015625)"/>
      <use xlink:href="#DejaVuSans-6f" transform="translate(1573.095703 0.015625)"/>
      <use xlink:href="#DejaVuSans-77" transform="translate(1634.277344 0.015625)"/>
      <use xlink:href="#DejaVuSans-20" transform="translate(1716.064453 0.015625)"/>
      <use xlink:href="#DejaVuSans-45" transform="translate(1747.851562 0.015625)"/>
      <use xlink:href="#DejaVuSans-79" transform="translate(1811.035156 0.015625)"/>
      <use xlink:href="#DejaVuSans-65" transform="translate(1870.214844 0.015625)"/>
      <use xlink:href="#DejaVuSans-20" transform="translate(1931.738281 0.015625)"/>
      <use xlink:href="#DejaVuSans-27f6" transform="translate(1983.007812 0.015625)"/>
     </g>
     <!-- ODI -->
     <g transform="translate(44.83625 255.080312)rotate(-90)scale(0.2 -0.2)">
      <defs>
       <path id="DejaVuSans-4f" d="M 2522 4238 
Q 1834 4238 1429 3725 
Q 1025 3213 1025 2328 
Q 1025 1447 1429 934 
Q 1834 422 2522 422 
Q 3209 422 3611 934 
Q 4013 1447 4013 2328 
Q 4013 3213 3611 3725 
Q 3209 4238 2522 4238 
z
M 2522 4750 
Q 3503 4750 4090 4092 
Q 4678 3434 4678 2328 
Q 4678 1225 4090 567 
Q 3503 -91 2522 -91 
Q 1538 -91 948 565 
Q 359 1222 359 2328 
Q 359 3434 948 4092 
Q 1538 4750 2522 4750 
z
" transform="scale(0.015625)"/>
       <path id="DejaVuSans-44" d="M 1259 4147 
L 1259 519 
L 2022 519 
Q 2988 519 3436 956 
Q 3884 1394 3884 2338 
Q 3884 3275 3436 3711 
Q 2988 4147 2022 4147 
L 1259 4147 
z
M 628 4666 
L 1925 4666 
Q 3281 4666 3915 4102 
Q 4550 3538 4550 2338 
Q 4550 1131 3912 565 
Q 3275 0 1925 0 
L 628 0 
L 628 4666 
z
" transform="scale(0.015625)"/>
       <path id="DejaVuSans-49" d="M 628 4666 
L 1259 4666 
L 1259 0 
L 628 0 
L 628 4666 
z
" transform="scale(0.015625)"/>
      </defs>
      <use xlink:href="#DejaVuSans-4f"/>
      <use xlink:href="#DejaVuSans-44" x="78.710938"/>
      <use xlink:href="#DejaVuSans-49" x="155.712891"/>
     </g>
    </g>
   </g>
   <g id="LineCollection_1">
    <path d="M 146.649886 83.438666 
L 146.649886 35.258658 
" clip-path="url(#p01d12db57c)" style="fill: none; stroke: #1e9b8a"/>
    <path d="M 172.013523 122.56748 
L 172.013523 43.291227 
" clip-path="url(#p01d12db57c)" style="fill: none; stroke: #1e9b8a"/>
    <path d="M 197.377159 146.640556 
L 197.377159 59.944994 
" clip-path="url(#p01d12db57c)" style="fill: none; stroke: #1e9b8a"/>
    <path d="M 222.740795 138.906493 
L 222.740795 52.400548 
" clip-path="url(#p01d12db57c)" style="fill: none; stroke: #1e9b8a"/>
    <path d="M 248.104432 117.729638 
L 248.104432 50.980229 
" clip-path="url(#p01d12db57c)" style="fill: none; stroke: #1e9b8a"/>
    <path d="M 273.468068 124.489744 
L 273.468068 37.291895 
" clip-path="url(#p01d12db57c)" style="fill: none; stroke: #1e9b8a"/>
    <path d="M 298.831705 118.73513 
L 298.831705 36.63017 
" clip-path="url(#p01d12db57c)" style="fill: none; stroke: #1e9b8a"/>
    <path d="M 324.195341 109.550297 
L 324.195341 34.267401 
" clip-path="url(#p01d12db57c)" style="fill: none; stroke: #1e9b8a"/>
    <path d="M 349.558977 112.642715 
L 349.558977 36.930907 
" clip-path="url(#p01d12db57c)" style="fill: none; stroke: #1e9b8a"/>
    <path d="M 374.922614 82.754453 
L 374.922614 20.090572 
" clip-path="url(#p01d12db57c)" style="fill: none; stroke: #1e9b8a"/>
    <path d="M 400.28625 110.878206 
L 400.28625 33.758597 
" clip-path="url(#p01d12db57c)" style="fill: none; stroke: #1e9b8a"/>
    <path d="M 425.649886 84.854002 
L 425.649886 29.065064 
" clip-path="url(#p01d12db57c)" style="fill: none; stroke: #1e9b8a"/>
    <path d="M 451.013523 91.967284 
L 451.013523 33.517679 
" clip-path="url(#p01d12db57c)" style="fill: none; stroke: #1e9b8a"/>
    <path d="M 476.377159 88.722336 
L 476.377159 29.656521 
" clip-path="url(#p01d12db57c)" style="fill: none; stroke: #1e9b8a"/>
    <path d="M 501.740795 94.583488 
L 501.740795 35.673628 
" clip-path="url(#p01d12db57c)" style="fill: none; stroke: #1e9b8a"/>
    <path d="M 527.104432 78.14949 
L 527.104432 26.228966 
" clip-path="url(#p01d12db57c)" style="fill: none; stroke: #1e9b8a"/>
    <path d="M 552.468068 73.505288 
L 552.468068 28.336512 
" clip-path="url(#p01d12db57c)" style="fill: none; stroke: #1e9b8a"/>
    <path d="M 577.831705 76.283541 
L 577.831705 29.386463 
" clip-path="url(#p01d12db57c)" style="fill: none; stroke: #1e9b8a"/>
    <path d="M 603.195341 80.308956 
L 603.195341 25.000182 
" clip-path="url(#p01d12db57c)" style="fill: none; stroke: #1e9b8a"/>
    <path d="M 628.558977 71.21893 
L 628.558977 33.564178 
" clip-path="url(#p01d12db57c)" style="fill: none; stroke: #1e9b8a"/>
    <path d="M 653.922614 118.152512 
L 653.922614 37.89294 
" clip-path="url(#p01d12db57c)" style="fill: none; stroke: #1e9b8a"/>
   </g>
   <g id="line2d_37">
    <path d="M 146.649886 59.348662 
L 172.013523 82.929354 
L 197.377159 103.292775 
L 222.740795 95.65352 
L 248.104432 84.354934 
L 273.468068 80.890819 
L 298.831705 77.68265 
L 324.195341 71.908849 
L 349.558977 74.786811 
L 374.922614 51.422512 
L 400.28625 72.318401 
L 425.649886 56.959533 
L 451.013523 62.742481 
L 476.377159 59.189429 
L 501.740795 65.128558 
L 527.104432 52.189228 
L 552.468068 50.9209 
L 577.831705 52.835002 
L 603.195341 52.654569 
L 628.558977 52.391554 
L 653.922614 78.022726 
" clip-path="url(#p01d12db57c)" style="fill: none; stroke: #1e9b8a; stroke-width: 3; stroke-linecap: square"/>
    <defs>
     <path id="m245c87638b" d="M 0 3 
C 0.795609 3 1.55874 2.683901 2.12132 2.12132 
C 2.683901 1.55874 3 0.795609 3 0 
C 3 -0.795609 2.683901 -1.55874 2.12132 -2.12132 
C 1.55874 -2.683901 0.795609 -3 0 -3 
C -0.795609 -3 -1.55874 -2.683901 -2.12132 -2.12132 
C -2.683901 -1.55874 -3 -0.795609 -3 0 
C -3 0.795609 -2.683901 1.55874 -2.12132 2.12132 
C -1.55874 2.683901 -0.795609 3 0 3 
z
" style="stroke: #1e9b8a"/>
    </defs>
    <g clip-path="url(#p01d12db57c)">
     <use xlink:href="#m245c87638b" x="146.649886" y="59.348662" style="fill: #1e9b8a; stroke: #1e9b8a"/>
     <use xlink:href="#m245c87638b" x="172.013523" y="82.929354" style="fill: #1e9b8a; stroke: #1e9b8a"/>
     <use xlink:href="#m245c87638b" x="197.377159" y="103.292775" style="fill: #1e9b8a; stroke: #1e9b8a"/>
     <use xlink:href="#m245c87638b" x="222.740795" y="95.65352" style="fill: #1e9b8a; stroke: #1e9b8a"/>
     <use xlink:href="#m245c87638b" x="248.104432" y="84.354934" style="fill: #1e9b8a; stroke: #1e9b8a"/>
     <use xlink:href="#m245c87638b" x="273.468068" y="80.890819" style="fill: #1e9b8a; stroke: #1e9b8a"/>
     <use xlink:href="#m245c87638b" x="298.831705" y="77.68265" style="fill: #1e9b8a; stroke: #1e9b8a"/>
     <use xlink:href="#m245c87638b" x="324.195341" y="71.908849" style="fill: #1e9b8a; stroke: #1e9b8a"/>
     <use xlink:href="#m245c87638b" x="349.558977" y="74.786811" style="fill: #1e9b8a; stroke: #1e9b8a"/>
     <use xlink:href="#m245c87638b" x="374.922614" y="51.422512" style="fill: #1e9b8a; stroke: #1e9b8a"/>
     <use xlink:href="#m245c87638b" x="400.28625" y="72.318401" style="fill: #1e9b8a; stroke: #1e9b8a"/>
     <use xlink:href="#m245c87638b" x="425.649886" y="56.959533" style="fill: #1e9b8a; stroke: #1e9b8a"/>
     <use xlink:href="#m245c87638b" x="451.013523" y="62.742481" style="fill: #1e9b8a; stroke: #1e9b8a"/>
     <use xlink:href="#m245c87638b" x="476.377159" y="59.189429" style="fill: #1e9b8a; stroke: #1e9b8a"/>
     <use xlink:href="#m245c87638b" x="501.740795" y="65.128558" style="fill: #1e9b8a; stroke: #1e9b8a"/>
     <use xlink:href="#m245c87638b" x="527.104432" y="52.189228" style="fill: #1e9b8a; stroke: #1e9b8a"/>
     <use xlink:href="#m245c87638b" x="552.468068" y="50.9209" style="fill: #1e9b8a; stroke: #1e9b8a"/>
     <use xlink:href="#m245c87638b" x="577.831705" y="52.835002" style="fill: #1e9b8a; stroke: #1e9b8a"/>
     <use xlink:href="#m245c87638b" x="603.195341" y="52.654569" style="fill: #1e9b8a; stroke: #1e9b8a"/>
     <use xlink:href="#m245c87638b" x="628.558977" y="52.391554" style="fill: #1e9b8a; stroke: #1e9b8a"/>
     <use xlink:href="#m245c87638b" x="653.922614" y="78.022726" style="fill: #1e9b8a; stroke: #1e9b8a"/>
    </g>
   </g>
   <g id="patch_3">
    <path d="M 121.28625 458.318438 
L 121.28625 14.798438 
" style="fill: none; stroke: #000000; stroke-width: 0.8; stroke-linejoin: miter; stroke-linecap: square"/>
   </g>
   <g id="patch_4">
    <path d="M 679.28625 458.318438 
L 679.28625 14.798438 
" style="fill: none; stroke: #000000; stroke-width: 0.8; stroke-linejoin: miter; stroke-linecap: square"/>
   </g>
   <g id="patch_5">
    <path d="M 121.28625 458.318438 
L 679.28625 458.318438 
" style="fill: none; stroke: #000000; stroke-width: 0.8; stroke-linejoin: miter; stroke-linecap: square"/>
   </g>
   <g id="patch_6">
    <path d="M 121.28625 14.798438 
L 679.28625 14.798438 
" style="fill: none; stroke: #000000; stroke-width: 0.8; stroke-linejoin: miter; stroke-linecap: square"/>
   </g>
  </g>
 </g>
 <defs>
  <clipPath id="p01d12db57c">
   <rect x="121.28625" y="14.798438" width="558" height="443.52"/>
  </clipPath>
 </defs>
</svg>
