<?xml version="1.0" encoding="utf-8" standalone="no"?>
<!DOCTYPE svg PUBLIC "-//W3C//DTD SVG 1.1//EN"
  "http://www.w3.org/Graphics/SVG/1.1/DTD/svg11.dtd">
<svg xmlns:xlink="http://www.w3.org/1999/xlink" width="628.20625pt" height="507.67625pt" viewBox="0 0 628.20625 507.67625" xmlns="http://www.w3.org/2000/svg" version="1.1">
 <metadata>
  <rdf:RDF xmlns:dc="http://purl.org/dc/elements/1.1/" xmlns:cc="http://creativecommons.org/ns#" xmlns:rdf="http://www.w3.org/1999/02/22-rdf-syntax-ns#">
   <cc:Work>
    <dc:type rdf:resource="http://purl.org/dc/dcmitype/StillImage"/>
    <dc:date>2023-06-12T08:48:19.667842</dc:date>
    <dc:format>image/svg+xml</dc:format>
    <dc:creator>
     <cc:Agent>
      <dc:title>Matplotlib v3.5.2, https://matplotlib.org/</dc:title>
     </cc:Agent>
    </dc:creator>
   </cc:Work>
  </rdf:RDF>
 </metadata>
 <defs>
  <style type="text/css">*{stroke-linejoin: round; stroke-linecap: butt}</style>
 </defs>
 <g id="figure_1">
  <g id="patch_1">
   <path d="M 0 507.67625 
L 628.20625 507.67625 
L 628.20625 0 
L 0 0 
z
" style="fill: #ffffff"/>
  </g>
  <g id="axes_1">
   <g id="patch_2">
    <path d="M 63.00625 450.72 
L 621.00625 450.72 
L 621.00625 7.2 
L 63.00625 7.2 
z
" style="fill: #ffffff"/>
   </g>
   <g id="matplotlib.axis_1">
    <g id="xtick_1">
     <g id="line2d_1">
      <path d="M 88.369886 450.72 
L 88.369886 7.2 
" clip-path="url(#p5f8f9066c7)" style="fill: none; stroke: #b0b0b0; stroke-width: 0.8; stroke-linecap: square"/>
     </g>
     <g id="line2d_2">
      <defs>
       <path id="m5b8a1d87e9" d="M 0 0 
L 0 3.5 
" style="stroke: #000000; stroke-width: 0.8"/>
      </defs>
      <g>
       <use xlink:href="#m5b8a1d87e9" x="88.369886" y="450.72" style="stroke: #000000; stroke-width: 0.8"/>
      </g>
     </g>
     <g id="text_1">
      <!-- 0 -->
      <g transform="translate(82.007386 472.916875)scale(0.2 -0.2)">
       <defs>
        <path id="DejaVuSans-30" d="M 2034 4250 
Q 1547 4250 1301 3770 
Q 1056 3291 1056 2328 
Q 1056 1369 1301 889 
Q 1547 409 2034 409 
Q 2525 409 2770 889 
Q 3016 1369 3016 2328 
Q 3016 3291 2770 3770 
Q 2525 4250 2034 4250 
z
M 2034 4750 
Q 2819 4750 3233 4129 
Q 3647 3509 3647 2328 
Q 3647 1150 3233 529 
Q 2819 -91 2034 -91 
Q 1250 -91 836 529 
Q 422 1150 422 2328 
Q 422 3509 836 4129 
Q 1250 4750 2034 4750 
z
" transform="scale(0.015625)"/>
       </defs>
       <use xlink:href="#DejaVuSans-30"/>
      </g>
     </g>
    </g>
    <g id="xtick_2">
     <g id="line2d_3">
      <path d="M 172.915341 450.72 
L 172.915341 7.2 
" clip-path="url(#p5f8f9066c7)" style="fill: none; stroke: #b0b0b0; stroke-width: 0.8; stroke-linecap: square"/>
     </g>
     <g id="line2d_4">
      <g>
       <use xlink:href="#m5b8a1d87e9" x="172.915341" y="450.72" style="stroke: #000000; stroke-width: 0.8"/>
      </g>
     </g>
     <g id="text_2">
      <!-- 1 -->
      <g transform="translate(166.552841 472.916875)scale(0.2 -0.2)">
       <defs>
        <path id="DejaVuSans-31" d="M 794 531 
L 1825 531 
L 1825 4091 
L 703 3866 
L 703 4441 
L 1819 4666 
L 2450 4666 
L 2450 531 
L 3481 531 
L 3481 0 
L 794 0 
L 794 531 
z
" transform="scale(0.015625)"/>
       </defs>
       <use xlink:href="#DejaVuSans-31"/>
      </g>
     </g>
    </g>
    <g id="xtick_3">
     <g id="line2d_5">
      <path d="M 257.460795 450.72 
L 257.460795 7.2 
" clip-path="url(#p5f8f9066c7)" style="fill: none; stroke: #b0b0b0; stroke-width: 0.8; stroke-linecap: square"/>
     </g>
     <g id="line2d_6">
      <g>
       <use xlink:href="#m5b8a1d87e9" x="257.460795" y="450.72" style="stroke: #000000; stroke-width: 0.8"/>
      </g>
     </g>
     <g id="text_3">
      <!-- 2 -->
      <g transform="translate(251.098295 472.916875)scale(0.2 -0.2)">
       <defs>
        <path id="DejaVuSans-32" d="M 1228 531 
L 3431 531 
L 3431 0 
L 469 0 
L 469 531 
Q 828 903 1448 1529 
Q 2069 2156 2228 2338 
Q 2531 2678 2651 2914 
Q 2772 3150 2772 3378 
Q 2772 3750 2511 3984 
Q 2250 4219 1831 4219 
Q 1534 4219 1204 4116 
Q 875 4013 500 3803 
L 500 4441 
Q 881 4594 1212 4672 
Q 1544 4750 1819 4750 
Q 2544 4750 2975 4387 
Q 3406 4025 3406 3419 
Q 3406 3131 3298 2873 
Q 3191 2616 2906 2266 
Q 2828 2175 2409 1742 
Q 1991 1309 1228 531 
z
" transform="scale(0.015625)"/>
       </defs>
       <use xlink:href="#DejaVuSans-32"/>
      </g>
     </g>
    </g>
    <g id="xtick_4">
     <g id="line2d_7">
      <path d="M 342.00625 450.72 
L 342.00625 7.2 
" clip-path="url(#p5f8f9066c7)" style="fill: none; stroke: #b0b0b0; stroke-width: 0.8; stroke-linecap: square"/>
     </g>
     <g id="line2d_8">
      <g>
       <use xlink:href="#m5b8a1d87e9" x="342.00625" y="450.72" style="stroke: #000000; stroke-width: 0.8"/>
      </g>
     </g>
     <g id="text_4">
      <!-- 3 -->
      <g transform="translate(335.64375 472.916875)scale(0.2 -0.2)">
       <defs>
        <path id="DejaVuSans-33" d="M 2597 2516 
Q 3050 2419 3304 2112 
Q 3559 1806 3559 1356 
Q 3559 666 3084 287 
Q 2609 -91 1734 -91 
Q 1441 -91 1130 -33 
Q 819 25 488 141 
L 488 750 
Q 750 597 1062 519 
Q 1375 441 1716 441 
Q 2309 441 2620 675 
Q 2931 909 2931 1356 
Q 2931 1769 2642 2001 
Q 2353 2234 1838 2234 
L 1294 2234 
L 1294 2753 
L 1863 2753 
Q 2328 2753 2575 2939 
Q 2822 3125 2822 3475 
Q 2822 3834 2567 4026 
Q 2313 4219 1838 4219 
Q 1578 4219 1281 4162 
Q 984 4106 628 3988 
L 628 4550 
Q 988 4650 1302 4700 
Q 1616 4750 1894 4750 
Q 2613 4750 3031 4423 
Q 3450 4097 3450 3541 
Q 3450 3153 3228 2886 
Q 3006 2619 2597 2516 
z
" transform="scale(0.015625)"/>
       </defs>
       <use xlink:href="#DejaVuSans-33"/>
      </g>
     </g>
    </g>
    <g id="xtick_5">
     <g id="line2d_9">
      <path d="M 426.551705 450.72 
L 426.551705 7.2 
" clip-path="url(#p5f8f9066c7)" style="fill: none; stroke: #b0b0b0; stroke-width: 0.8; stroke-linecap: square"/>
     </g>
     <g id="line2d_10">
      <g>
       <use xlink:href="#m5b8a1d87e9" x="426.551705" y="450.72" style="stroke: #000000; stroke-width: 0.8"/>
      </g>
     </g>
     <g id="text_5">
      <!-- 4 -->
      <g transform="translate(420.189205 472.916875)scale(0.2 -0.2)">
       <defs>
        <path id="DejaVuSans-34" d="M 2419 4116 
L 825 1625 
L 2419 1625 
L 2419 4116 
z
M 2253 4666 
L 3047 4666 
L 3047 1625 
L 3713 1625 
L 3713 1100 
L 3047 1100 
L 3047 0 
L 2419 0 
L 2419 1100 
L 313 1100 
L 313 1709 
L 2253 4666 
z
" transform="scale(0.015625)"/>
       </defs>
       <use xlink:href="#DejaVuSans-34"/>
      </g>
     </g>
    </g>
    <g id="xtick_6">
     <g id="line2d_11">
      <path d="M 511.097159 450.72 
L 511.097159 7.2 
" clip-path="url(#p5f8f9066c7)" style="fill: none; stroke: #b0b0b0; stroke-width: 0.8; stroke-linecap: square"/>
     </g>
     <g id="line2d_12">
      <g>
       <use xlink:href="#m5b8a1d87e9" x="511.097159" y="450.72" style="stroke: #000000; stroke-width: 0.8"/>
      </g>
     </g>
     <g id="text_6">
      <!-- 5 -->
      <g transform="translate(504.734659 472.916875)scale(0.2 -0.2)">
       <defs>
        <path id="DejaVuSans-35" d="M 691 4666 
L 3169 4666 
L 3169 4134 
L 1269 4134 
L 1269 2991 
Q 1406 3038 1543 3061 
Q 1681 3084 1819 3084 
Q 2600 3084 3056 2656 
Q 3513 2228 3513 1497 
Q 3513 744 3044 326 
Q 2575 -91 1722 -91 
Q 1428 -91 1123 -41 
Q 819 9 494 109 
L 494 744 
Q 775 591 1075 516 
Q 1375 441 1709 441 
Q 2250 441 2565 725 
Q 2881 1009 2881 1497 
Q 2881 1984 2565 2268 
Q 2250 2553 1709 2553 
Q 1456 2553 1204 2497 
Q 953 2441 691 2322 
L 691 4666 
z
" transform="scale(0.015625)"/>
       </defs>
       <use xlink:href="#DejaVuSans-35"/>
      </g>
     </g>
    </g>
    <g id="xtick_7">
     <g id="line2d_13">
      <path d="M 595.642614 450.72 
L 595.642614 7.2 
" clip-path="url(#p5f8f9066c7)" style="fill: none; stroke: #b0b0b0; stroke-width: 0.8; stroke-linecap: square"/>
     </g>
     <g id="line2d_14">
      <g>
       <use xlink:href="#m5b8a1d87e9" x="595.642614" y="450.72" style="stroke: #000000; stroke-width: 0.8"/>
      </g>
     </g>
     <g id="text_7">
      <!-- 6 -->
      <g transform="translate(589.280114 472.916875)scale(0.2 -0.2)">
       <defs>
        <path id="DejaVuSans-36" d="M 2113 2584 
Q 1688 2584 1439 2293 
Q 1191 2003 1191 1497 
Q 1191 994 1439 701 
Q 1688 409 2113 409 
Q 2538 409 2786 701 
Q 3034 994 3034 1497 
Q 3034 2003 2786 2293 
Q 2538 2584 2113 2584 
z
M 3366 4563 
L 3366 3988 
Q 3128 4100 2886 4159 
Q 2644 4219 2406 4219 
Q 1781 4219 1451 3797 
Q 1122 3375 1075 2522 
Q 1259 2794 1537 2939 
Q 1816 3084 2150 3084 
Q 2853 3084 3261 2657 
Q 3669 2231 3669 1497 
Q 3669 778 3244 343 
Q 2819 -91 2113 -91 
Q 1303 -91 875 529 
Q 447 1150 447 2328 
Q 447 3434 972 4092 
Q 1497 4750 2381 4750 
Q 2619 4750 2861 4703 
Q 3103 4656 3366 4563 
z
" transform="scale(0.015625)"/>
       </defs>
       <use xlink:href="#DejaVuSans-36"/>
      </g>
     </g>
    </g>
    <g id="text_8">
     <!-- $\sigma_c$ [pixels] -->
     <g transform="translate(291.30625 496.27625)scale(0.2 -0.2)">
      <defs>
       <path id="DejaVuSans-Oblique-3c3" d="M 2219 3044 
Q 1744 3044 1422 2700 
Q 1081 2341 969 1747 
Q 844 1119 1044 756 
Q 1241 397 1706 397 
Q 2166 397 2503 759 
Q 2844 1122 2966 1747 
Q 3075 2319 2881 2700 
Q 2700 3044 2219 3044 
z
M 2309 3503 
L 4219 3500 
L 4106 2925 
L 3463 2925 
Q 3706 2438 3575 1747 
Q 3406 888 2884 400 
Q 2359 -91 1609 -91 
Q 856 -91 525 400 
Q 194 888 363 1747 
Q 528 2609 1050 3097 
Q 1484 3503 2309 3503 
z
" transform="scale(0.015625)"/>
       <path id="DejaVuSans-Oblique-63" d="M 3431 3366 
L 3316 2797 
Q 3109 2947 2876 3022 
Q 2644 3097 2394 3097 
Q 2119 3097 1870 3000 
Q 1622 2903 1453 2725 
Q 1184 2453 1037 2087 
Q 891 1722 891 1331 
Q 891 859 1127 628 
Q 1363 397 1844 397 
Q 2081 397 2348 469 
Q 2616 541 2906 684 
L 2797 116 
Q 2547 13 2283 -39 
Q 2019 -91 1741 -91 
Q 1044 -91 669 257 
Q 294 606 294 1253 
Q 294 1797 489 2255 
Q 684 2713 1069 3078 
Q 1331 3328 1684 3456 
Q 2038 3584 2456 3584 
Q 2700 3584 2940 3529 
Q 3181 3475 3431 3366 
z
" transform="scale(0.015625)"/>
       <path id="DejaVuSans-20" transform="scale(0.015625)"/>
       <path id="DejaVuSans-5b" d="M 550 4863 
L 1875 4863 
L 1875 4416 
L 1125 4416 
L 1125 -397 
L 1875 -397 
L 1875 -844 
L 550 -844 
L 550 4863 
z
" transform="scale(0.015625)"/>
       <path id="DejaVuSans-70" d="M 1159 525 
L 1159 -1331 
L 581 -1331 
L 581 3500 
L 1159 3500 
L 1159 2969 
Q 1341 3281 1617 3432 
Q 1894 3584 2278 3584 
Q 2916 3584 3314 3078 
Q 3713 2572 3713 1747 
Q 3713 922 3314 415 
Q 2916 -91 2278 -91 
Q 1894 -91 1617 61 
Q 1341 213 1159 525 
z
M 3116 1747 
Q 3116 2381 2855 2742 
Q 2594 3103 2138 3103 
Q 1681 3103 1420 2742 
Q 1159 2381 1159 1747 
Q 1159 1113 1420 752 
Q 1681 391 2138 391 
Q 2594 391 2855 752 
Q 3116 1113 3116 1747 
z
" transform="scale(0.015625)"/>
       <path id="DejaVuSans-69" d="M 603 3500 
L 1178 3500 
L 1178 0 
L 603 0 
L 603 3500 
z
M 603 4863 
L 1178 4863 
L 1178 4134 
L 603 4134 
L 603 4863 
z
" transform="scale(0.015625)"/>
       <path id="DejaVuSans-78" d="M 3513 3500 
L 2247 1797 
L 3578 0 
L 2900 0 
L 1881 1375 
L 863 0 
L 184 0 
L 1544 1831 
L 300 3500 
L 978 3500 
L 1906 2253 
L 2834 3500 
L 3513 3500 
z
" transform="scale(0.015625)"/>
       <path id="DejaVuSans-65" d="M 3597 1894 
L 3597 1613 
L 953 1613 
Q 991 1019 1311 708 
Q 1631 397 2203 397 
Q 2534 397 2845 478 
Q 3156 559 3463 722 
L 3463 178 
Q 3153 47 2828 -22 
Q 2503 -91 2169 -91 
Q 1331 -91 842 396 
Q 353 884 353 1716 
Q 353 2575 817 3079 
Q 1281 3584 2069 3584 
Q 2775 3584 3186 3129 
Q 3597 2675 3597 1894 
z
M 3022 2063 
Q 3016 2534 2758 2815 
Q 2500 3097 2075 3097 
Q 1594 3097 1305 2825 
Q 1016 2553 972 2059 
L 3022 2063 
z
" transform="scale(0.015625)"/>
       <path id="DejaVuSans-6c" d="M 603 4863 
L 1178 4863 
L 1178 0 
L 603 0 
L 603 4863 
z
" transform="scale(0.015625)"/>
       <path id="DejaVuSans-73" d="M 2834 3397 
L 2834 2853 
Q 2591 2978 2328 3040 
Q 2066 3103 1784 3103 
Q 1356 3103 1142 2972 
Q 928 2841 928 2578 
Q 928 2378 1081 2264 
Q 1234 2150 1697 2047 
L 1894 2003 
Q 2506 1872 2764 1633 
Q 3022 1394 3022 966 
Q 3022 478 2636 193 
Q 2250 -91 1575 -91 
Q 1294 -91 989 -36 
Q 684 19 347 128 
L 347 722 
Q 666 556 975 473 
Q 1284 391 1588 391 
Q 1994 391 2212 530 
Q 2431 669 2431 922 
Q 2431 1156 2273 1281 
Q 2116 1406 1581 1522 
L 1381 1569 
Q 847 1681 609 1914 
Q 372 2147 372 2553 
Q 372 3047 722 3315 
Q 1072 3584 1716 3584 
Q 2034 3584 2315 3537 
Q 2597 3491 2834 3397 
z
" transform="scale(0.015625)"/>
       <path id="DejaVuSans-5d" d="M 1947 4863 
L 1947 -844 
L 622 -844 
L 622 -397 
L 1369 -397 
L 1369 4416 
L 622 4416 
L 622 4863 
L 1947 4863 
z
" transform="scale(0.015625)"/>
      </defs>
      <use xlink:href="#DejaVuSans-Oblique-3c3" transform="translate(0 0.015625)"/>
      <use xlink:href="#DejaVuSans-Oblique-63" transform="translate(63.378906 -16.390625)scale(0.7)"/>
      <use xlink:href="#DejaVuSans-20" transform="translate(104.599609 0.015625)"/>
      <use xlink:href="#DejaVuSans-5b" transform="translate(136.386719 0.015625)"/>
      <use xlink:href="#DejaVuSans-70" transform="translate(175.400391 0.015625)"/>
      <use xlink:href="#DejaVuSans-69" transform="translate(238.876953 0.015625)"/>
      <use xlink:href="#DejaVuSans-78" transform="translate(266.660156 0.015625)"/>
      <use xlink:href="#DejaVuSans-65" transform="translate(325.839844 0.015625)"/>
      <use xlink:href="#DejaVuSans-6c" transform="translate(387.363281 0.015625)"/>
      <use xlink:href="#DejaVuSans-73" transform="translate(415.146484 0.015625)"/>
      <use xlink:href="#DejaVuSans-5d" transform="translate(467.246094 0.015625)"/>
     </g>
    </g>
   </g>
   <g id="matplotlib.axis_2">
    <g id="ytick_1">
     <g id="line2d_15">
      <path d="M 63.00625 443.016409 
L 621.00625 443.016409 
" clip-path="url(#p5f8f9066c7)" style="fill: none; stroke: #b0b0b0; stroke-width: 0.8; stroke-linecap: square"/>
     </g>
     <g id="line2d_16">
      <defs>
       <path id="m5df7b9ae80" d="M 0 0 
L -3.5 0 
" style="stroke: #000000; stroke-width: 0.8"/>
      </defs>
      <g>
       <use xlink:href="#m5df7b9ae80" x="63.00625" y="443.016409" style="stroke: #000000; stroke-width: 0.8"/>
      </g>
     </g>
     <g id="text_9">
      <!-- 0 -->
      <g transform="translate(43.28125 450.614847)scale(0.2 -0.2)">
       <use xlink:href="#DejaVuSans-30"/>
      </g>
     </g>
    </g>
    <g id="ytick_2">
     <g id="line2d_17">
      <path d="M 63.00625 387.525179 
L 621.00625 387.525179 
" clip-path="url(#p5f8f9066c7)" style="fill: none; stroke: #b0b0b0; stroke-width: 0.8; stroke-linecap: square"/>
     </g>
     <g id="line2d_18">
      <g>
       <use xlink:href="#m5df7b9ae80" x="63.00625" y="387.525179" style="stroke: #000000; stroke-width: 0.8"/>
      </g>
     </g>
     <g id="text_10">
      <!-- 5 -->
      <g transform="translate(43.28125 395.123617)scale(0.2 -0.2)">
       <use xlink:href="#DejaVuSans-35"/>
      </g>
     </g>
    </g>
    <g id="ytick_3">
     <g id="line2d_19">
      <path d="M 63.00625 332.03395 
L 621.00625 332.03395 
" clip-path="url(#p5f8f9066c7)" style="fill: none; stroke: #b0b0b0; stroke-width: 0.8; stroke-linecap: square"/>
     </g>
     <g id="line2d_20">
      <g>
       <use xlink:href="#m5df7b9ae80" x="63.00625" y="332.03395" style="stroke: #000000; stroke-width: 0.8"/>
      </g>
     </g>
     <g id="text_11">
      <!-- 10 -->
      <g transform="translate(30.55625 339.632387)scale(0.2 -0.2)">
       <use xlink:href="#DejaVuSans-31"/>
       <use xlink:href="#DejaVuSans-30" x="63.623047"/>
      </g>
     </g>
    </g>
    <g id="ytick_4">
     <g id="line2d_21">
      <path d="M 63.00625 276.54272 
L 621.00625 276.54272 
" clip-path="url(#p5f8f9066c7)" style="fill: none; stroke: #b0b0b0; stroke-width: 0.8; stroke-linecap: square"/>
     </g>
     <g id="line2d_22">
      <g>
       <use xlink:href="#m5df7b9ae80" x="63.00625" y="276.54272" style="stroke: #000000; stroke-width: 0.8"/>
      </g>
     </g>
     <g id="text_12">
      <!-- 15 -->
      <g transform="translate(30.55625 284.141157)scale(0.2 -0.2)">
       <use xlink:href="#DejaVuSans-31"/>
       <use xlink:href="#DejaVuSans-35" x="63.623047"/>
      </g>
     </g>
    </g>
    <g id="ytick_5">
     <g id="line2d_23">
      <path d="M 63.00625 221.05149 
L 621.00625 221.05149 
" clip-path="url(#p5f8f9066c7)" style="fill: none; stroke: #b0b0b0; stroke-width: 0.8; stroke-linecap: square"/>
     </g>
     <g id="line2d_24">
      <g>
       <use xlink:href="#m5df7b9ae80" x="63.00625" y="221.05149" style="stroke: #000000; stroke-width: 0.8"/>
      </g>
     </g>
     <g id="text_13">
      <!-- 20 -->
      <g transform="translate(30.55625 228.649927)scale(0.2 -0.2)">
       <use xlink:href="#DejaVuSans-32"/>
       <use xlink:href="#DejaVuSans-30" x="63.623047"/>
      </g>
     </g>
    </g>
    <g id="ytick_6">
     <g id="line2d_25">
      <path d="M 63.00625 165.56026 
L 621.00625 165.56026 
" clip-path="url(#p5f8f9066c7)" style="fill: none; stroke: #b0b0b0; stroke-width: 0.8; stroke-linecap: square"/>
     </g>
     <g id="line2d_26">
      <g>
       <use xlink:href="#m5df7b9ae80" x="63.00625" y="165.56026" style="stroke: #000000; stroke-width: 0.8"/>
      </g>
     </g>
     <g id="text_14">
      <!-- 25 -->
      <g transform="translate(30.55625 173.158698)scale(0.2 -0.2)">
       <use xlink:href="#DejaVuSans-32"/>
       <use xlink:href="#DejaVuSans-35" x="63.623047"/>
      </g>
     </g>
    </g>
    <g id="ytick_7">
     <g id="line2d_27">
      <path d="M 63.00625 110.06903 
L 621.00625 110.06903 
" clip-path="url(#p5f8f9066c7)" style="fill: none; stroke: #b0b0b0; stroke-width: 0.8; stroke-linecap: square"/>
     </g>
     <g id="line2d_28">
      <g>
       <use xlink:href="#m5df7b9ae80" x="63.00625" y="110.06903" style="stroke: #000000; stroke-width: 0.8"/>
      </g>
     </g>
     <g id="text_15">
      <!-- 30 -->
      <g transform="translate(30.55625 117.667468)scale(0.2 -0.2)">
       <use xlink:href="#DejaVuSans-33"/>
       <use xlink:href="#DejaVuSans-30" x="63.623047"/>
      </g>
     </g>
    </g>
    <g id="ytick_8">
     <g id="line2d_29">
      <path d="M 63.00625 54.5778 
L 621.00625 54.5778 
" clip-path="url(#p5f8f9066c7)" style="fill: none; stroke: #b0b0b0; stroke-width: 0.8; stroke-linecap: square"/>
     </g>
     <g id="line2d_30">
      <g>
       <use xlink:href="#m5df7b9ae80" x="63.00625" y="54.5778" style="stroke: #000000; stroke-width: 0.8"/>
      </g>
     </g>
     <g id="text_16">
      <!-- 35 -->
      <g transform="translate(30.55625 62.176238)scale(0.2 -0.2)">
       <use xlink:href="#DejaVuSans-33"/>
       <use xlink:href="#DejaVuSans-35" x="63.623047"/>
      </g>
     </g>
    </g>
    <g id="text_17">
     <!-- Maximum Response -->
     <g transform="translate(22.396875 329.438125)rotate(-90)scale(0.2 -0.2)">
      <defs>
       <path id="DejaVuSans-4d" d="M 628 4666 
L 1569 4666 
L 2759 1491 
L 3956 4666 
L 4897 4666 
L 4897 0 
L 4281 0 
L 4281 4097 
L 3078 897 
L 2444 897 
L 1241 4097 
L 1241 0 
L 628 0 
L 628 4666 
z
" transform="scale(0.015625)"/>
       <path id="DejaVuSans-61" d="M 2194 1759 
Q 1497 1759 1228 1600 
Q 959 1441 959 1056 
Q 959 750 1161 570 
Q 1363 391 1709 391 
Q 2188 391 2477 730 
Q 2766 1069 2766 1631 
L 2766 1759 
L 2194 1759 
z
M 3341 1997 
L 3341 0 
L 2766 0 
L 2766 531 
Q 2569 213 2275 61 
Q 1981 -91 1556 -91 
Q 1019 -91 701 211 
Q 384 513 384 1019 
Q 384 1609 779 1909 
Q 1175 2209 1959 2209 
L 2766 2209 
L 2766 2266 
Q 2766 2663 2505 2880 
Q 2244 3097 1772 3097 
Q 1472 3097 1187 3025 
Q 903 2953 641 2809 
L 641 3341 
Q 956 3463 1253 3523 
Q 1550 3584 1831 3584 
Q 2591 3584 2966 3190 
Q 3341 2797 3341 1997 
z
" transform="scale(0.015625)"/>
       <path id="DejaVuSans-6d" d="M 3328 2828 
Q 3544 3216 3844 3400 
Q 4144 3584 4550 3584 
Q 5097 3584 5394 3201 
Q 5691 2819 5691 2113 
L 5691 0 
L 5113 0 
L 5113 2094 
Q 5113 2597 4934 2840 
Q 4756 3084 4391 3084 
Q 3944 3084 3684 2787 
Q 3425 2491 3425 1978 
L 3425 0 
L 2847 0 
L 2847 2094 
Q 2847 2600 2669 2842 
Q 2491 3084 2119 3084 
Q 1678 3084 1418 2786 
Q 1159 2488 1159 1978 
L 1159 0 
L 581 0 
L 581 3500 
L 1159 3500 
L 1159 2956 
Q 1356 3278 1631 3431 
Q 1906 3584 2284 3584 
Q 2666 3584 2933 3390 
Q 3200 3197 3328 2828 
z
" transform="scale(0.015625)"/>
       <path id="DejaVuSans-75" d="M 544 1381 
L 544 3500 
L 1119 3500 
L 1119 1403 
Q 1119 906 1312 657 
Q 1506 409 1894 409 
Q 2359 409 2629 706 
Q 2900 1003 2900 1516 
L 2900 3500 
L 3475 3500 
L 3475 0 
L 2900 0 
L 2900 538 
Q 2691 219 2414 64 
Q 2138 -91 1772 -91 
Q 1169 -91 856 284 
Q 544 659 544 1381 
z
M 1991 3584 
L 1991 3584 
z
" transform="scale(0.015625)"/>
       <path id="DejaVuSans-52" d="M 2841 2188 
Q 3044 2119 3236 1894 
Q 3428 1669 3622 1275 
L 4263 0 
L 3584 0 
L 2988 1197 
Q 2756 1666 2539 1819 
Q 2322 1972 1947 1972 
L 1259 1972 
L 1259 0 
L 628 0 
L 628 4666 
L 2053 4666 
Q 2853 4666 3247 4331 
Q 3641 3997 3641 3322 
Q 3641 2881 3436 2590 
Q 3231 2300 2841 2188 
z
M 1259 4147 
L 1259 2491 
L 2053 2491 
Q 2509 2491 2742 2702 
Q 2975 2913 2975 3322 
Q 2975 3731 2742 3939 
Q 2509 4147 2053 4147 
L 1259 4147 
z
" transform="scale(0.015625)"/>
       <path id="DejaVuSans-6f" d="M 1959 3097 
Q 1497 3097 1228 2736 
Q 959 2375 959 1747 
Q 959 1119 1226 758 
Q 1494 397 1959 397 
Q 2419 397 2687 759 
Q 2956 1122 2956 1747 
Q 2956 2369 2687 2733 
Q 2419 3097 1959 3097 
z
M 1959 3584 
Q 2709 3584 3137 3096 
Q 3566 2609 3566 1747 
Q 3566 888 3137 398 
Q 2709 -91 1959 -91 
Q 1206 -91 779 398 
Q 353 888 353 1747 
Q 353 2609 779 3096 
Q 1206 3584 1959 3584 
z
" transform="scale(0.015625)"/>
       <path id="DejaVuSans-6e" d="M 3513 2113 
L 3513 0 
L 2938 0 
L 2938 2094 
Q 2938 2591 2744 2837 
Q 2550 3084 2163 3084 
Q 1697 3084 1428 2787 
Q 1159 2491 1159 1978 
L 1159 0 
L 581 0 
L 581 3500 
L 1159 3500 
L 1159 2956 
Q 1366 3272 1645 3428 
Q 1925 3584 2291 3584 
Q 2894 3584 3203 3211 
Q 3513 2838 3513 2113 
z
" transform="scale(0.015625)"/>
      </defs>
      <use xlink:href="#DejaVuSans-4d"/>
      <use xlink:href="#DejaVuSans-61" x="86.279297"/>
      <use xlink:href="#DejaVuSans-78" x="147.558594"/>
      <use xlink:href="#DejaVuSans-69" x="206.738281"/>
      <use xlink:href="#DejaVuSans-6d" x="234.521484"/>
      <use xlink:href="#DejaVuSans-75" x="331.933594"/>
      <use xlink:href="#DejaVuSans-6d" x="395.3125"/>
      <use xlink:href="#DejaVuSans-20" x="492.724609"/>
      <use xlink:href="#DejaVuSans-52" x="524.511719"/>
      <use xlink:href="#DejaVuSans-65" x="589.494141"/>
      <use xlink:href="#DejaVuSans-73" x="651.017578"/>
      <use xlink:href="#DejaVuSans-70" x="703.117188"/>
      <use xlink:href="#DejaVuSans-6f" x="766.59375"/>
      <use xlink:href="#DejaVuSans-6e" x="827.775391"/>
      <use xlink:href="#DejaVuSans-73" x="891.154297"/>
      <use xlink:href="#DejaVuSans-65" x="943.253906"/>
     </g>
    </g>
   </g>
   <g id="LineCollection_1">
    <path d="M 88.369886 430.56 
L 88.369886 371.258217 
" clip-path="url(#p5f8f9066c7)" style="fill: none; stroke: #084285"/>
    <path d="M 113.733523 423.210241 
L 113.733523 375.252442 
" clip-path="url(#p5f8f9066c7)" style="fill: none; stroke: #084285"/>
    <path d="M 139.097159 416.892132 
L 139.097159 321.198553 
" clip-path="url(#p5f8f9066c7)" style="fill: none; stroke: #084285"/>
    <path d="M 164.460795 414.365597 
L 164.460795 301.018335 
" clip-path="url(#p5f8f9066c7)" style="fill: none; stroke: #084285"/>
    <path d="M 189.824432 405.276819 
L 189.824432 259.341364 
" clip-path="url(#p5f8f9066c7)" style="fill: none; stroke: #084285"/>
    <path d="M 215.188068 393.55013 
L 215.188068 296.960587 
" clip-path="url(#p5f8f9066c7)" style="fill: none; stroke: #084285"/>
    <path d="M 240.551705 380.280333 
L 240.551705 236.103501 
" clip-path="url(#p5f8f9066c7)" style="fill: none; stroke: #084285"/>
    <path d="M 265.915341 392.71009 
L 265.915341 258.673113 
" clip-path="url(#p5f8f9066c7)" style="fill: none; stroke: #084285"/>
    <path d="M 291.278977 392.583795 
L 291.278977 249.69489 
" clip-path="url(#p5f8f9066c7)" style="fill: none; stroke: #084285"/>
    <path d="M 316.642614 363.815427 
L 316.642614 225.741916 
" clip-path="url(#p5f8f9066c7)" style="fill: none; stroke: #084285"/>
    <path d="M 342.00625 387.539985 
L 342.00625 253.893101 
" clip-path="url(#p5f8f9066c7)" style="fill: none; stroke: #084285"/>
    <path d="M 367.369886 391.740748 
L 367.369886 272.780266 
" clip-path="url(#p5f8f9066c7)" style="fill: none; stroke: #084285"/>
    <path d="M 392.733523 394.167291 
L 392.733523 279.785784 
" clip-path="url(#p5f8f9066c7)" style="fill: none; stroke: #084285"/>
    <path d="M 418.097159 373.445875 
L 418.097159 247.805237 
" clip-path="url(#p5f8f9066c7)" style="fill: none; stroke: #084285"/>
    <path d="M 443.460795 391.337551 
L 443.460795 269.870789 
" clip-path="url(#p5f8f9066c7)" style="fill: none; stroke: #084285"/>
    <path d="M 468.824432 392.852844 
L 468.824432 289.444549 
" clip-path="url(#p5f8f9066c7)" style="fill: none; stroke: #084285"/>
    <path d="M 494.188068 387.632532 
L 494.188068 291.511048 
" clip-path="url(#p5f8f9066c7)" style="fill: none; stroke: #084285"/>
    <path d="M 519.551705 387.612748 
L 519.551705 285.329734 
" clip-path="url(#p5f8f9066c7)" style="fill: none; stroke: #084285"/>
    <path d="M 544.915341 384.972363 
L 544.915341 285.903623 
" clip-path="url(#p5f8f9066c7)" style="fill: none; stroke: #084285"/>
    <path d="M 570.278977 392.627092 
L 570.278977 287.569888 
" clip-path="url(#p5f8f9066c7)" style="fill: none; stroke: #084285"/>
    <path d="M 595.642614 383.559269 
L 595.642614 276.206188 
" clip-path="url(#p5f8f9066c7)" style="fill: none; stroke: #084285"/>
   </g>
   <g id="LineCollection_2">
    <path d="M 88.369886 115.641923 
L 88.369886 43.08226 
" clip-path="url(#p5f8f9066c7)" style="fill: none; stroke: #942f03"/>
    <path d="M 113.733523 122.87198 
L 113.733523 37.664556 
" clip-path="url(#p5f8f9066c7)" style="fill: none; stroke: #942f03"/>
    <path d="M 139.097159 126.625123 
L 139.097159 44.819471 
" clip-path="url(#p5f8f9066c7)" style="fill: none; stroke: #942f03"/>
    <path d="M 164.460795 130.842599 
L 164.460795 48.485688 
" clip-path="url(#p5f8f9066c7)" style="fill: none; stroke: #942f03"/>
    <path d="M 189.824432 131.29357 
L 189.824432 33.954726 
" clip-path="url(#p5f8f9066c7)" style="fill: none; stroke: #942f03"/>
    <path d="M 215.188068 132.137393 
L 215.188068 27.36 
" clip-path="url(#p5f8f9066c7)" style="fill: none; stroke: #942f03"/>
    <path d="M 240.551705 155.569194 
L 240.551705 53.113548 
" clip-path="url(#p5f8f9066c7)" style="fill: none; stroke: #942f03"/>
    <path d="M 265.915341 150.604627 
L 265.915341 46.230532 
" clip-path="url(#p5f8f9066c7)" style="fill: none; stroke: #942f03"/>
    <path d="M 291.278977 151.066073 
L 291.278977 53.100828 
" clip-path="url(#p5f8f9066c7)" style="fill: none; stroke: #942f03"/>
    <path d="M 316.642614 186.219614 
L 316.642614 74.609953 
" clip-path="url(#p5f8f9066c7)" style="fill: none; stroke: #942f03"/>
    <path d="M 342.00625 163.734064 
L 342.00625 58.142126 
" clip-path="url(#p5f8f9066c7)" style="fill: none; stroke: #942f03"/>
    <path d="M 367.369886 163.046956 
L 367.369886 51.37181 
" clip-path="url(#p5f8f9066c7)" style="fill: none; stroke: #942f03"/>
    <path d="M 392.733523 165.105829 
L 392.733523 56.87661 
" clip-path="url(#p5f8f9066c7)" style="fill: none; stroke: #942f03"/>
    <path d="M 418.097159 184.272039 
L 418.097159 68.221383 
" clip-path="url(#p5f8f9066c7)" style="fill: none; stroke: #942f03"/>
    <path d="M 443.460795 151.771177 
L 443.460795 42.6058 
" clip-path="url(#p5f8f9066c7)" style="fill: none; stroke: #942f03"/>
    <path d="M 468.824432 174.06286 
L 468.824432 60.2359 
" clip-path="url(#p5f8f9066c7)" style="fill: none; stroke: #942f03"/>
    <path d="M 494.188068 172.420253 
L 494.188068 72.892899 
" clip-path="url(#p5f8f9066c7)" style="fill: none; stroke: #942f03"/>
    <path d="M 519.551705 173.012063 
L 519.551705 69.9543 
" clip-path="url(#p5f8f9066c7)" style="fill: none; stroke: #942f03"/>
    <path d="M 544.915341 187.270137 
L 544.915341 75.359092 
" clip-path="url(#p5f8f9066c7)" style="fill: none; stroke: #942f03"/>
    <path d="M 570.278977 166.414237 
L 570.278977 56.387505 
" clip-path="url(#p5f8f9066c7)" style="fill: none; stroke: #942f03"/>
    <path d="M 595.642614 185.827283 
L 595.642614 73.977323 
" clip-path="url(#p5f8f9066c7)" style="fill: none; stroke: #942f03"/>
   </g>
   <g id="line2d_31">
    <path d="M 88.369886 400.909109 
L 113.733523 399.231341 
L 139.097159 369.045343 
L 164.460795 357.691966 
L 189.824432 332.309092 
L 215.188068 345.255359 
L 240.551705 308.191917 
L 265.915341 325.691602 
L 291.278977 321.139342 
L 316.642614 294.778671 
L 342.00625 320.716543 
L 367.369886 332.260507 
L 392.733523 336.976538 
L 418.097159 310.625556 
L 443.460795 330.60417 
L 468.824432 341.148696 
L 494.188068 339.57179 
L 519.551705 336.471241 
L 544.915341 335.437993 
L 570.278977 340.09849 
L 595.642614 329.882729 
" clip-path="url(#p5f8f9066c7)" style="fill: none; stroke: #084285; stroke-width: 3; stroke-linecap: square"/>
    <defs>
     <path id="m8508b3d198" d="M 0 3 
C 0.795609 3 1.55874 2.683901 2.12132 2.12132 
C 2.683901 1.55874 3 0.795609 3 0 
C 3 -0.795609 2.683901 -1.55874 2.12132 -2.12132 
C 1.55874 -2.683901 0.795609 -3 0 -3 
C -0.795609 -3 -1.55874 -2.683901 -2.12132 -2.12132 
C -2.683901 -1.55874 -3 -0.795609 -3 0 
C -3 0.795609 -2.683901 1.55874 -2.12132 2.12132 
C -1.55874 2.683901 -0.795609 3 0 3 
z
" style="stroke: #084285"/>
    </defs>
    <g clip-path="url(#p5f8f9066c7)">
     <use xlink:href="#m8508b3d198" x="88.369886" y="400.909109" style="fill: #084285; stroke: #084285"/>
     <use xlink:href="#m8508b3d198" x="113.733523" y="399.231341" style="fill: #084285; stroke: #084285"/>
     <use xlink:href="#m8508b3d198" x="139.097159" y="369.045343" style="fill: #084285; stroke: #084285"/>
     <use xlink:href="#m8508b3d198" x="164.460795" y="357.691966" style="fill: #084285; stroke: #084285"/>
     <use xlink:href="#m8508b3d198" x="189.824432" y="332.309092" style="fill: #084285; stroke: #084285"/>
     <use xlink:href="#m8508b3d198" x="215.188068" y="345.255359" style="fill: #084285; stroke: #084285"/>
     <use xlink:href="#m8508b3d198" x="240.551705" y="308.191917" style="fill: #084285; stroke: #084285"/>
     <use xlink:href="#m8508b3d198" x="265.915341" y="325.691602" style="fill: #084285; stroke: #084285"/>
     <use xlink:href="#m8508b3d198" x="291.278977" y="321.139342" style="fill: #084285; stroke: #084285"/>
     <use xlink:href="#m8508b3d198" x="316.642614" y="294.778671" style="fill: #084285; stroke: #084285"/>
     <use xlink:href="#m8508b3d198" x="342.00625" y="320.716543" style="fill: #084285; stroke: #084285"/>
     <use xlink:href="#m8508b3d198" x="367.369886" y="332.260507" style="fill: #084285; stroke: #084285"/>
     <use xlink:href="#m8508b3d198" x="392.733523" y="336.976538" style="fill: #084285; stroke: #084285"/>
     <use xlink:href="#m8508b3d198" x="418.097159" y="310.625556" style="fill: #084285; stroke: #084285"/>
     <use xlink:href="#m8508b3d198" x="443.460795" y="330.60417" style="fill: #084285; stroke: #084285"/>
     <use xlink:href="#m8508b3d198" x="468.824432" y="341.148696" style="fill: #084285; stroke: #084285"/>
     <use xlink:href="#m8508b3d198" x="494.188068" y="339.57179" style="fill: #084285; stroke: #084285"/>
     <use xlink:href="#m8508b3d198" x="519.551705" y="336.471241" style="fill: #084285; stroke: #084285"/>
     <use xlink:href="#m8508b3d198" x="544.915341" y="335.437993" style="fill: #084285; stroke: #084285"/>
     <use xlink:href="#m8508b3d198" x="570.278977" y="340.09849" style="fill: #084285; stroke: #084285"/>
     <use xlink:href="#m8508b3d198" x="595.642614" y="329.882729" style="fill: #084285; stroke: #084285"/>
    </g>
   </g>
   <g id="line2d_32">
    <path d="M 88.369886 79.362091 
L 113.733523 80.268268 
L 139.097159 85.722297 
L 164.460795 89.664144 
L 189.824432 82.624148 
L 215.188068 79.748697 
L 240.551705 104.341371 
L 265.915341 98.41758 
L 291.278977 102.08345 
L 316.642614 130.414784 
L 342.00625 110.938095 
L 367.369886 107.209383 
L 392.733523 110.991219 
L 418.097159 126.246711 
L 443.460795 97.188489 
L 468.824432 117.14938 
L 494.188068 122.656576 
L 519.551705 121.483182 
L 544.915341 131.314614 
L 570.278977 111.400871 
L 595.642614 129.902303 
" clip-path="url(#p5f8f9066c7)" style="fill: none; stroke: #942f03; stroke-width: 3; stroke-linecap: square"/>
    <defs>
     <path id="mb062a142b9" d="M -3 3 
L 3 3 
L 3 -3 
L -3 -3 
z
" style="stroke: #942f03; stroke-linejoin: miter"/>
    </defs>
    <g clip-path="url(#p5f8f9066c7)">
     <use xlink:href="#mb062a142b9" x="88.369886" y="79.362091" style="fill: #942f03; stroke: #942f03; stroke-linejoin: miter"/>
     <use xlink:href="#mb062a142b9" x="113.733523" y="80.268268" style="fill: #942f03; stroke: #942f03; stroke-linejoin: miter"/>
     <use xlink:href="#mb062a142b9" x="139.097159" y="85.722297" style="fill: #942f03; stroke: #942f03; stroke-linejoin: miter"/>
     <use xlink:href="#mb062a142b9" x="164.460795" y="89.664144" style="fill: #942f03; stroke: #942f03; stroke-linejoin: miter"/>
     <use xlink:href="#mb062a142b9" x="189.824432" y="82.624148" style="fill: #942f03; stroke: #942f03; stroke-linejoin: miter"/>
     <use xlink:href="#mb062a142b9" x="215.188068" y="79.748697" style="fill: #942f03; stroke: #942f03; stroke-linejoin: miter"/>
     <use xlink:href="#mb062a142b9" x="240.551705" y="104.341371" style="fill: #942f03; stroke: #942f03; stroke-linejoin: miter"/>
     <use xlink:href="#mb062a142b9" x="265.915341" y="98.41758" style="fill: #942f03; stroke: #942f03; stroke-linejoin: miter"/>
     <use xlink:href="#mb062a142b9" x="291.278977" y="102.08345" style="fill: #942f03; stroke: #942f03; stroke-linejoin: miter"/>
     <use xlink:href="#mb062a142b9" x="316.642614" y="130.414784" style="fill: #942f03; stroke: #942f03; stroke-linejoin: miter"/>
     <use xlink:href="#mb062a142b9" x="342.00625" y="110.938095" style="fill: #942f03; stroke: #942f03; stroke-linejoin: miter"/>
     <use xlink:href="#mb062a142b9" x="367.369886" y="107.209383" style="fill: #942f03; stroke: #942f03; stroke-linejoin: miter"/>
     <use xlink:href="#mb062a142b9" x="392.733523" y="110.991219" style="fill: #942f03; stroke: #942f03; stroke-linejoin: miter"/>
     <use xlink:href="#mb062a142b9" x="418.097159" y="126.246711" style="fill: #942f03; stroke: #942f03; stroke-linejoin: miter"/>
     <use xlink:href="#mb062a142b9" x="443.460795" y="97.188489" style="fill: #942f03; stroke: #942f03; stroke-linejoin: miter"/>
     <use xlink:href="#mb062a142b9" x="468.824432" y="117.14938" style="fill: #942f03; stroke: #942f03; stroke-linejoin: miter"/>
     <use xlink:href="#mb062a142b9" x="494.188068" y="122.656576" style="fill: #942f03; stroke: #942f03; stroke-linejoin: miter"/>
     <use xlink:href="#mb062a142b9" x="519.551705" y="121.483182" style="fill: #942f03; stroke: #942f03; stroke-linejoin: miter"/>
     <use xlink:href="#mb062a142b9" x="544.915341" y="131.314614" style="fill: #942f03; stroke: #942f03; stroke-linejoin: miter"/>
     <use xlink:href="#mb062a142b9" x="570.278977" y="111.400871" style="fill: #942f03; stroke: #942f03; stroke-linejoin: miter"/>
     <use xlink:href="#mb062a142b9" x="595.642614" y="129.902303" style="fill: #942f03; stroke: #942f03; stroke-linejoin: miter"/>
    </g>
   </g>
   <g id="patch_3">
    <path d="M 63.00625 450.72 
L 63.00625 7.2 
" style="fill: none; stroke: #000000; stroke-width: 0.8; stroke-linejoin: miter; stroke-linecap: square"/>
   </g>
   <g id="patch_4">
    <path d="M 621.00625 450.72 
L 621.00625 7.2 
" style="fill: none; stroke: #000000; stroke-width: 0.8; stroke-linejoin: miter; stroke-linecap: square"/>
   </g>
   <g id="patch_5">
    <path d="M 63.00625 450.72 
L 621.00625 450.72 
" style="fill: none; stroke: #000000; stroke-width: 0.8; stroke-linejoin: miter; stroke-linecap: square"/>
   </g>
   <g id="patch_6">
    <path d="M 63.00625 7.2 
L 621.00625 7.2 
" style="fill: none; stroke: #000000; stroke-width: 0.8; stroke-linejoin: miter; stroke-linecap: square"/>
   </g>
   <g id="legend_1">
    <g id="patch_7">
     <path d="M 438.265625 81.9125 
L 607.00625 81.9125 
Q 611.00625 81.9125 611.00625 77.9125 
L 611.00625 21.2 
Q 611.00625 17.2 607.00625 17.2 
L 438.265625 17.2 
Q 434.265625 17.2 434.265625 21.2 
L 434.265625 77.9125 
Q 434.265625 81.9125 438.265625 81.9125 
z
" style="fill: #ffffff; opacity: 0.8; stroke: #cccccc; stroke-linejoin: miter"/>
    </g>
    <g id="LineCollection_3">
     <path d="M 462.265625 43.396875 
L 462.265625 23.396875 
" style="fill: none; stroke: #084285"/>
    </g>
    <g id="line2d_33">
     <path d="M 442.265625 33.396875 
L 482.265625 33.396875 
" style="fill: none; stroke: #084285; stroke-width: 3; stroke-linecap: square"/>
    </g>
    <g id="line2d_34">
     <g>
      <use xlink:href="#m8508b3d198" x="462.265625" y="33.396875" style="fill: #084285; stroke: #084285"/>
     </g>
    </g>
    <g id="text_18">
     <!-- Amblyopic -->
     <g transform="translate(498.265625 40.396875)scale(0.2 -0.2)">
      <defs>
       <path id="DejaVuSans-41" d="M 2188 4044 
L 1331 1722 
L 3047 1722 
L 2188 4044 
z
M 1831 4666 
L 2547 4666 
L 4325 0 
L 3669 0 
L 3244 1197 
L 1141 1197 
L 716 0 
L 50 0 
L 1831 4666 
z
" transform="scale(0.015625)"/>
       <path id="DejaVuSans-62" d="M 3116 1747 
Q 3116 2381 2855 2742 
Q 2594 3103 2138 3103 
Q 1681 3103 1420 2742 
Q 1159 2381 1159 1747 
Q 1159 1113 1420 752 
Q 1681 391 2138 391 
Q 2594 391 2855 752 
Q 3116 1113 3116 1747 
z
M 1159 2969 
Q 1341 3281 1617 3432 
Q 1894 3584 2278 3584 
Q 2916 3584 3314 3078 
Q 3713 2572 3713 1747 
Q 3713 922 3314 415 
Q 2916 -91 2278 -91 
Q 1894 -91 1617 61 
Q 1341 213 1159 525 
L 1159 0 
L 581 0 
L 581 4863 
L 1159 4863 
L 1159 2969 
z
" transform="scale(0.015625)"/>
       <path id="DejaVuSans-79" d="M 2059 -325 
Q 1816 -950 1584 -1140 
Q 1353 -1331 966 -1331 
L 506 -1331 
L 506 -850 
L 844 -850 
Q 1081 -850 1212 -737 
Q 1344 -625 1503 -206 
L 1606 56 
L 191 3500 
L 800 3500 
L 1894 763 
L 2988 3500 
L 3597 3500 
L 2059 -325 
z
" transform="scale(0.015625)"/>
       <path id="DejaVuSans-63" d="M 3122 3366 
L 3122 2828 
Q 2878 2963 2633 3030 
Q 2388 3097 2138 3097 
Q 1578 3097 1268 2742 
Q 959 2388 959 1747 
Q 959 1106 1268 751 
Q 1578 397 2138 397 
Q 2388 397 2633 464 
Q 2878 531 3122 666 
L 3122 134 
Q 2881 22 2623 -34 
Q 2366 -91 2075 -91 
Q 1284 -91 818 406 
Q 353 903 353 1747 
Q 353 2603 823 3093 
Q 1294 3584 2113 3584 
Q 2378 3584 2631 3529 
Q 2884 3475 3122 3366 
z
" transform="scale(0.015625)"/>
      </defs>
      <use xlink:href="#DejaVuSans-41"/>
      <use xlink:href="#DejaVuSans-6d" x="68.408203"/>
      <use xlink:href="#DejaVuSans-62" x="165.820312"/>
      <use xlink:href="#DejaVuSans-6c" x="229.296875"/>
      <use xlink:href="#DejaVuSans-79" x="257.080078"/>
      <use xlink:href="#DejaVuSans-6f" x="316.259766"/>
      <use xlink:href="#DejaVuSans-70" x="377.441406"/>
      <use xlink:href="#DejaVuSans-69" x="440.917969"/>
      <use xlink:href="#DejaVuSans-63" x="468.701172"/>
     </g>
    </g>
    <g id="LineCollection_4">
     <path d="M 462.265625 72.753125 
L 462.265625 52.753125 
" style="fill: none; stroke: #942f03"/>
    </g>
    <g id="line2d_35">
     <path d="M 442.265625 62.753125 
L 482.265625 62.753125 
" style="fill: none; stroke: #942f03; stroke-width: 3; stroke-linecap: square"/>
    </g>
    <g id="line2d_36">
     <g>
      <use xlink:href="#mb062a142b9" x="462.265625" y="62.753125" style="fill: #942f03; stroke: #942f03; stroke-linejoin: miter"/>
     </g>
    </g>
    <g id="text_19">
     <!-- Fellow -->
     <g transform="translate(498.265625 69.753125)scale(0.2 -0.2)">
      <defs>
       <path id="DejaVuSans-46" d="M 628 4666 
L 3309 4666 
L 3309 4134 
L 1259 4134 
L 1259 2759 
L 3109 2759 
L 3109 2228 
L 1259 2228 
L 1259 0 
L 628 0 
L 628 4666 
z
" transform="scale(0.015625)"/>
       <path id="DejaVuSans-77" d="M 269 3500 
L 844 3500 
L 1563 769 
L 2278 3500 
L 2956 3500 
L 3675 769 
L 4391 3500 
L 4966 3500 
L 4050 0 
L 3372 0 
L 2619 2869 
L 1863 0 
L 1184 0 
L 269 3500 
z
" transform="scale(0.015625)"/>
      </defs>
      <use xlink:href="#DejaVuSans-46"/>
      <use xlink:href="#DejaVuSans-65" x="52.019531"/>
      <use xlink:href="#DejaVuSans-6c" x="113.542969"/>
      <use xlink:href="#DejaVuSans-6c" x="141.326172"/>
      <use xlink:href="#DejaVuSans-6f" x="169.109375"/>
      <use xlink:href="#DejaVuSans-77" x="230.291016"/>
     </g>
    </g>
   </g>
  </g>
 </g>
 <defs>
  <clipPath id="p5f8f9066c7">
   <rect x="63.00625" y="7.2" width="558" height="443.52"/>
  </clipPath>
 </defs>
</svg>
