<?xml version="1.0" encoding="utf-8" standalone="no"?>
<!DOCTYPE svg PUBLIC "-//W3C//DTD SVG 1.1//EN"
  "http://www.w3.org/Graphics/SVG/1.1/DTD/svg11.dtd">
<svg xmlns:xlink="http://www.w3.org/1999/xlink" width="628.20625pt" height="507.6325pt" viewBox="0 0 628.20625 507.6325" xmlns="http://www.w3.org/2000/svg" version="1.1">
 <metadata>
  <rdf:RDF xmlns:dc="http://purl.org/dc/elements/1.1/" xmlns:cc="http://creativecommons.org/ns#" xmlns:rdf="http://www.w3.org/1999/02/22-rdf-syntax-ns#">
   <cc:Work>
    <dc:type rdf:resource="http://purl.org/dc/dcmitype/StillImage"/>
    <dc:date>2023-06-09T13:43:10.926920</dc:date>
    <dc:format>image/svg+xml</dc:format>
    <dc:creator>
     <cc:Agent>
      <dc:title>Matplotlib v3.5.2, https://matplotlib.org/</dc:title>
     </cc:Agent>
    </dc:creator>
   </cc:Work>
  </rdf:RDF>
 </metadata>
 <defs>
  <style type="text/css">*{stroke-linejoin: round; stroke-linecap: butt}</style>
 </defs>
 <g id="figure_1">
  <g id="patch_1">
   <path d="M 0 507.6325 
L 628.20625 507.6325 
L 628.20625 0 
L 0 0 
z
" style="fill: #ffffff"/>
  </g>
  <g id="axes_1">
   <g id="patch_2">
    <path d="M 63.00625 450.72 
L 621.00625 450.72 
L 621.00625 7.2 
L 63.00625 7.2 
z
" style="fill: #ffffff"/>
   </g>
   <g id="matplotlib.axis_1">
    <g id="xtick_1">
     <g id="line2d_1">
      <path d="M 139.971767 450.72 
L 139.971767 7.2 
" clip-path="url(#pd45d75ebba)" style="fill: none; stroke: #b0b0b0; stroke-width: 0.8; stroke-linecap: square"/>
     </g>
     <g id="line2d_2">
      <defs>
       <path id="ma4bf563aa0" d="M 0 0 
L 0 3.5 
" style="stroke: #000000; stroke-width: 0.8"/>
      </defs>
      <g>
       <use xlink:href="#ma4bf563aa0" x="139.971767" y="450.72" style="stroke: #000000; stroke-width: 0.8"/>
      </g>
     </g>
     <g id="text_1">
      <!-- 0 -->
      <g transform="translate(133.609267 472.916875)scale(0.2 -0.2)">
       <defs>
        <path id="DejaVuSans-30" d="M 2034 4250 
Q 1547 4250 1301 3770 
Q 1056 3291 1056 2328 
Q 1056 1369 1301 889 
Q 1547 409 2034 409 
Q 2525 409 2770 889 
Q 3016 1369 3016 2328 
Q 3016 3291 2770 3770 
Q 2525 4250 2034 4250 
z
M 2034 4750 
Q 2819 4750 3233 4129 
Q 3647 3509 3647 2328 
Q 3647 1150 3233 529 
Q 2819 -91 2034 -91 
Q 1250 -91 836 529 
Q 422 1150 422 2328 
Q 422 3509 836 4129 
Q 1250 4750 2034 4750 
z
" transform="scale(0.015625)"/>
       </defs>
       <use xlink:href="#DejaVuSans-30"/>
      </g>
     </g>
    </g>
    <g id="xtick_2">
     <g id="line2d_3">
      <path d="M 216.937284 450.72 
L 216.937284 7.2 
" clip-path="url(#pd45d75ebba)" style="fill: none; stroke: #b0b0b0; stroke-width: 0.8; stroke-linecap: square"/>
     </g>
     <g id="line2d_4">
      <g>
       <use xlink:href="#ma4bf563aa0" x="216.937284" y="450.72" style="stroke: #000000; stroke-width: 0.8"/>
      </g>
     </g>
     <g id="text_2">
      <!-- 2 -->
      <g transform="translate(210.574784 472.916875)scale(0.2 -0.2)">
       <defs>
        <path id="DejaVuSans-32" d="M 1228 531 
L 3431 531 
L 3431 0 
L 469 0 
L 469 531 
Q 828 903 1448 1529 
Q 2069 2156 2228 2338 
Q 2531 2678 2651 2914 
Q 2772 3150 2772 3378 
Q 2772 3750 2511 3984 
Q 2250 4219 1831 4219 
Q 1534 4219 1204 4116 
Q 875 4013 500 3803 
L 500 4441 
Q 881 4594 1212 4672 
Q 1544 4750 1819 4750 
Q 2544 4750 2975 4387 
Q 3406 4025 3406 3419 
Q 3406 3131 3298 2873 
Q 3191 2616 2906 2266 
Q 2828 2175 2409 1742 
Q 1991 1309 1228 531 
z
" transform="scale(0.015625)"/>
       </defs>
       <use xlink:href="#DejaVuSans-32"/>
      </g>
     </g>
    </g>
    <g id="xtick_3">
     <g id="line2d_5">
      <path d="M 293.902802 450.72 
L 293.902802 7.2 
" clip-path="url(#pd45d75ebba)" style="fill: none; stroke: #b0b0b0; stroke-width: 0.8; stroke-linecap: square"/>
     </g>
     <g id="line2d_6">
      <g>
       <use xlink:href="#ma4bf563aa0" x="293.902802" y="450.72" style="stroke: #000000; stroke-width: 0.8"/>
      </g>
     </g>
     <g id="text_3">
      <!-- 4 -->
      <g transform="translate(287.540302 472.916875)scale(0.2 -0.2)">
       <defs>
        <path id="DejaVuSans-34" d="M 2419 4116 
L 825 1625 
L 2419 1625 
L 2419 4116 
z
M 2253 4666 
L 3047 4666 
L 3047 1625 
L 3713 1625 
L 3713 1100 
L 3047 1100 
L 3047 0 
L 2419 0 
L 2419 1100 
L 313 1100 
L 313 1709 
L 2253 4666 
z
" transform="scale(0.015625)"/>
       </defs>
       <use xlink:href="#DejaVuSans-34"/>
      </g>
     </g>
    </g>
    <g id="xtick_4">
     <g id="line2d_7">
      <path d="M 370.868319 450.72 
L 370.868319 7.2 
" clip-path="url(#pd45d75ebba)" style="fill: none; stroke: #b0b0b0; stroke-width: 0.8; stroke-linecap: square"/>
     </g>
     <g id="line2d_8">
      <g>
       <use xlink:href="#ma4bf563aa0" x="370.868319" y="450.72" style="stroke: #000000; stroke-width: 0.8"/>
      </g>
     </g>
     <g id="text_4">
      <!-- 6 -->
      <g transform="translate(364.505819 472.916875)scale(0.2 -0.2)">
       <defs>
        <path id="DejaVuSans-36" d="M 2113 2584 
Q 1688 2584 1439 2293 
Q 1191 2003 1191 1497 
Q 1191 994 1439 701 
Q 1688 409 2113 409 
Q 2538 409 2786 701 
Q 3034 994 3034 1497 
Q 3034 2003 2786 2293 
Q 2538 2584 2113 2584 
z
M 3366 4563 
L 3366 3988 
Q 3128 4100 2886 4159 
Q 2644 4219 2406 4219 
Q 1781 4219 1451 3797 
Q 1122 3375 1075 2522 
Q 1259 2794 1537 2939 
Q 1816 3084 2150 3084 
Q 2853 3084 3261 2657 
Q 3669 2231 3669 1497 
Q 3669 778 3244 343 
Q 2819 -91 2113 -91 
Q 1303 -91 875 529 
Q 447 1150 447 2328 
Q 447 3434 972 4092 
Q 1497 4750 2381 4750 
Q 2619 4750 2861 4703 
Q 3103 4656 3366 4563 
z
" transform="scale(0.015625)"/>
       </defs>
       <use xlink:href="#DejaVuSans-36"/>
      </g>
     </g>
    </g>
    <g id="xtick_5">
     <g id="line2d_9">
      <path d="M 447.833836 450.72 
L 447.833836 7.2 
" clip-path="url(#pd45d75ebba)" style="fill: none; stroke: #b0b0b0; stroke-width: 0.8; stroke-linecap: square"/>
     </g>
     <g id="line2d_10">
      <g>
       <use xlink:href="#ma4bf563aa0" x="447.833836" y="450.72" style="stroke: #000000; stroke-width: 0.8"/>
      </g>
     </g>
     <g id="text_5">
      <!-- 8 -->
      <g transform="translate(441.471336 472.916875)scale(0.2 -0.2)">
       <defs>
        <path id="DejaVuSans-38" d="M 2034 2216 
Q 1584 2216 1326 1975 
Q 1069 1734 1069 1313 
Q 1069 891 1326 650 
Q 1584 409 2034 409 
Q 2484 409 2743 651 
Q 3003 894 3003 1313 
Q 3003 1734 2745 1975 
Q 2488 2216 2034 2216 
z
M 1403 2484 
Q 997 2584 770 2862 
Q 544 3141 544 3541 
Q 544 4100 942 4425 
Q 1341 4750 2034 4750 
Q 2731 4750 3128 4425 
Q 3525 4100 3525 3541 
Q 3525 3141 3298 2862 
Q 3072 2584 2669 2484 
Q 3125 2378 3379 2068 
Q 3634 1759 3634 1313 
Q 3634 634 3220 271 
Q 2806 -91 2034 -91 
Q 1263 -91 848 271 
Q 434 634 434 1313 
Q 434 1759 690 2068 
Q 947 2378 1403 2484 
z
M 1172 3481 
Q 1172 3119 1398 2916 
Q 1625 2713 2034 2713 
Q 2441 2713 2670 2916 
Q 2900 3119 2900 3481 
Q 2900 3844 2670 4047 
Q 2441 4250 2034 4250 
Q 1625 4250 1398 4047 
Q 1172 3844 1172 3481 
z
" transform="scale(0.015625)"/>
       </defs>
       <use xlink:href="#DejaVuSans-38"/>
      </g>
     </g>
    </g>
    <g id="xtick_6">
     <g id="line2d_11">
      <path d="M 524.799353 450.72 
L 524.799353 7.2 
" clip-path="url(#pd45d75ebba)" style="fill: none; stroke: #b0b0b0; stroke-width: 0.8; stroke-linecap: square"/>
     </g>
     <g id="line2d_12">
      <g>
       <use xlink:href="#ma4bf563aa0" x="524.799353" y="450.72" style="stroke: #000000; stroke-width: 0.8"/>
      </g>
     </g>
     <g id="text_6">
      <!-- 10 -->
      <g transform="translate(512.074353 472.916875)scale(0.2 -0.2)">
       <defs>
        <path id="DejaVuSans-31" d="M 794 531 
L 1825 531 
L 1825 4091 
L 703 3866 
L 703 4441 
L 1819 4666 
L 2450 4666 
L 2450 531 
L 3481 531 
L 3481 0 
L 794 0 
L 794 531 
z
" transform="scale(0.015625)"/>
       </defs>
       <use xlink:href="#DejaVuSans-31"/>
       <use xlink:href="#DejaVuSans-30" x="63.623047"/>
      </g>
     </g>
    </g>
    <g id="xtick_7">
     <g id="line2d_13">
      <path d="M 601.764871 450.72 
L 601.764871 7.2 
" clip-path="url(#pd45d75ebba)" style="fill: none; stroke: #b0b0b0; stroke-width: 0.8; stroke-linecap: square"/>
     </g>
     <g id="line2d_14">
      <g>
       <use xlink:href="#ma4bf563aa0" x="601.764871" y="450.72" style="stroke: #000000; stroke-width: 0.8"/>
      </g>
     </g>
     <g id="text_7">
      <!-- 12 -->
      <g transform="translate(589.039871 472.916875)scale(0.2 -0.2)">
       <use xlink:href="#DejaVuSans-31"/>
       <use xlink:href="#DejaVuSans-32" x="63.623047"/>
      </g>
     </g>
    </g>
    <g id="text_8">
     <!-- Blur Size [pixels] -->
     <g transform="translate(258.357813 496.273125)scale(0.2 -0.2)">
      <defs>
       <path id="DejaVuSans-42" d="M 1259 2228 
L 1259 519 
L 2272 519 
Q 2781 519 3026 730 
Q 3272 941 3272 1375 
Q 3272 1813 3026 2020 
Q 2781 2228 2272 2228 
L 1259 2228 
z
M 1259 4147 
L 1259 2741 
L 2194 2741 
Q 2656 2741 2882 2914 
Q 3109 3088 3109 3444 
Q 3109 3797 2882 3972 
Q 2656 4147 2194 4147 
L 1259 4147 
z
M 628 4666 
L 2241 4666 
Q 2963 4666 3353 4366 
Q 3744 4066 3744 3513 
Q 3744 3084 3544 2831 
Q 3344 2578 2956 2516 
Q 3422 2416 3680 2098 
Q 3938 1781 3938 1306 
Q 3938 681 3513 340 
Q 3088 0 2303 0 
L 628 0 
L 628 4666 
z
" transform="scale(0.015625)"/>
       <path id="DejaVuSans-6c" d="M 603 4863 
L 1178 4863 
L 1178 0 
L 603 0 
L 603 4863 
z
" transform="scale(0.015625)"/>
       <path id="DejaVuSans-75" d="M 544 1381 
L 544 3500 
L 1119 3500 
L 1119 1403 
Q 1119 906 1312 657 
Q 1506 409 1894 409 
Q 2359 409 2629 706 
Q 2900 1003 2900 1516 
L 2900 3500 
L 3475 3500 
L 3475 0 
L 2900 0 
L 2900 538 
Q 2691 219 2414 64 
Q 2138 -91 1772 -91 
Q 1169 -91 856 284 
Q 544 659 544 1381 
z
M 1991 3584 
L 1991 3584 
z
" transform="scale(0.015625)"/>
       <path id="DejaVuSans-72" d="M 2631 2963 
Q 2534 3019 2420 3045 
Q 2306 3072 2169 3072 
Q 1681 3072 1420 2755 
Q 1159 2438 1159 1844 
L 1159 0 
L 581 0 
L 581 3500 
L 1159 3500 
L 1159 2956 
Q 1341 3275 1631 3429 
Q 1922 3584 2338 3584 
Q 2397 3584 2469 3576 
Q 2541 3569 2628 3553 
L 2631 2963 
z
" transform="scale(0.015625)"/>
       <path id="DejaVuSans-20" transform="scale(0.015625)"/>
       <path id="DejaVuSans-53" d="M 3425 4513 
L 3425 3897 
Q 3066 4069 2747 4153 
Q 2428 4238 2131 4238 
Q 1616 4238 1336 4038 
Q 1056 3838 1056 3469 
Q 1056 3159 1242 3001 
Q 1428 2844 1947 2747 
L 2328 2669 
Q 3034 2534 3370 2195 
Q 3706 1856 3706 1288 
Q 3706 609 3251 259 
Q 2797 -91 1919 -91 
Q 1588 -91 1214 -16 
Q 841 59 441 206 
L 441 856 
Q 825 641 1194 531 
Q 1563 422 1919 422 
Q 2459 422 2753 634 
Q 3047 847 3047 1241 
Q 3047 1584 2836 1778 
Q 2625 1972 2144 2069 
L 1759 2144 
Q 1053 2284 737 2584 
Q 422 2884 422 3419 
Q 422 4038 858 4394 
Q 1294 4750 2059 4750 
Q 2388 4750 2728 4690 
Q 3069 4631 3425 4513 
z
" transform="scale(0.015625)"/>
       <path id="DejaVuSans-69" d="M 603 3500 
L 1178 3500 
L 1178 0 
L 603 0 
L 603 3500 
z
M 603 4863 
L 1178 4863 
L 1178 4134 
L 603 4134 
L 603 4863 
z
" transform="scale(0.015625)"/>
       <path id="DejaVuSans-7a" d="M 353 3500 
L 3084 3500 
L 3084 2975 
L 922 459 
L 3084 459 
L 3084 0 
L 275 0 
L 275 525 
L 2438 3041 
L 353 3041 
L 353 3500 
z
" transform="scale(0.015625)"/>
       <path id="DejaVuSans-65" d="M 3597 1894 
L 3597 1613 
L 953 1613 
Q 991 1019 1311 708 
Q 1631 397 2203 397 
Q 2534 397 2845 478 
Q 3156 559 3463 722 
L 3463 178 
Q 3153 47 2828 -22 
Q 2503 -91 2169 -91 
Q 1331 -91 842 396 
Q 353 884 353 1716 
Q 353 2575 817 3079 
Q 1281 3584 2069 3584 
Q 2775 3584 3186 3129 
Q 3597 2675 3597 1894 
z
M 3022 2063 
Q 3016 2534 2758 2815 
Q 2500 3097 2075 3097 
Q 1594 3097 1305 2825 
Q 1016 2553 972 2059 
L 3022 2063 
z
" transform="scale(0.015625)"/>
       <path id="DejaVuSans-5b" d="M 550 4863 
L 1875 4863 
L 1875 4416 
L 1125 4416 
L 1125 -397 
L 1875 -397 
L 1875 -844 
L 550 -844 
L 550 4863 
z
" transform="scale(0.015625)"/>
       <path id="DejaVuSans-70" d="M 1159 525 
L 1159 -1331 
L 581 -1331 
L 581 3500 
L 1159 3500 
L 1159 2969 
Q 1341 3281 1617 3432 
Q 1894 3584 2278 3584 
Q 2916 3584 3314 3078 
Q 3713 2572 3713 1747 
Q 3713 922 3314 415 
Q 2916 -91 2278 -91 
Q 1894 -91 1617 61 
Q 1341 213 1159 525 
z
M 3116 1747 
Q 3116 2381 2855 2742 
Q 2594 3103 2138 3103 
Q 1681 3103 1420 2742 
Q 1159 2381 1159 1747 
Q 1159 1113 1420 752 
Q 1681 391 2138 391 
Q 2594 391 2855 752 
Q 3116 1113 3116 1747 
z
" transform="scale(0.015625)"/>
       <path id="DejaVuSans-78" d="M 3513 3500 
L 2247 1797 
L 3578 0 
L 2900 0 
L 1881 1375 
L 863 0 
L 184 0 
L 1544 1831 
L 300 3500 
L 978 3500 
L 1906 2253 
L 2834 3500 
L 3513 3500 
z
" transform="scale(0.015625)"/>
       <path id="DejaVuSans-73" d="M 2834 3397 
L 2834 2853 
Q 2591 2978 2328 3040 
Q 2066 3103 1784 3103 
Q 1356 3103 1142 2972 
Q 928 2841 928 2578 
Q 928 2378 1081 2264 
Q 1234 2150 1697 2047 
L 1894 2003 
Q 2506 1872 2764 1633 
Q 3022 1394 3022 966 
Q 3022 478 2636 193 
Q 2250 -91 1575 -91 
Q 1294 -91 989 -36 
Q 684 19 347 128 
L 347 722 
Q 666 556 975 473 
Q 1284 391 1588 391 
Q 1994 391 2212 530 
Q 2431 669 2431 922 
Q 2431 1156 2273 1281 
Q 2116 1406 1581 1522 
L 1381 1569 
Q 847 1681 609 1914 
Q 372 2147 372 2553 
Q 372 3047 722 3315 
Q 1072 3584 1716 3584 
Q 2034 3584 2315 3537 
Q 2597 3491 2834 3397 
z
" transform="scale(0.015625)"/>
       <path id="DejaVuSans-5d" d="M 1947 4863 
L 1947 -844 
L 622 -844 
L 622 -397 
L 1369 -397 
L 1369 4416 
L 622 4416 
L 622 4863 
L 1947 4863 
z
" transform="scale(0.015625)"/>
      </defs>
      <use xlink:href="#DejaVuSans-42"/>
      <use xlink:href="#DejaVuSans-6c" x="68.603516"/>
      <use xlink:href="#DejaVuSans-75" x="96.386719"/>
      <use xlink:href="#DejaVuSans-72" x="159.765625"/>
      <use xlink:href="#DejaVuSans-20" x="200.878906"/>
      <use xlink:href="#DejaVuSans-53" x="232.666016"/>
      <use xlink:href="#DejaVuSans-69" x="296.142578"/>
      <use xlink:href="#DejaVuSans-7a" x="323.925781"/>
      <use xlink:href="#DejaVuSans-65" x="376.416016"/>
      <use xlink:href="#DejaVuSans-20" x="437.939453"/>
      <use xlink:href="#DejaVuSans-5b" x="469.726562"/>
      <use xlink:href="#DejaVuSans-70" x="508.740234"/>
      <use xlink:href="#DejaVuSans-69" x="572.216797"/>
      <use xlink:href="#DejaVuSans-78" x="600"/>
      <use xlink:href="#DejaVuSans-65" x="656.054688"/>
      <use xlink:href="#DejaVuSans-6c" x="717.578125"/>
      <use xlink:href="#DejaVuSans-73" x="745.361328"/>
      <use xlink:href="#DejaVuSans-5d" x="797.460938"/>
     </g>
    </g>
   </g>
   <g id="matplotlib.axis_2">
    <g id="ytick_1">
     <g id="line2d_15">
      <path d="M 63.00625 424.467194 
L 621.00625 424.467194 
" clip-path="url(#pd45d75ebba)" style="fill: none; stroke: #b0b0b0; stroke-width: 0.8; stroke-linecap: square"/>
     </g>
     <g id="line2d_16">
      <defs>
       <path id="m4ca51564d4" d="M 0 0 
L -3.5 0 
" style="stroke: #000000; stroke-width: 0.8"/>
      </defs>
      <g>
       <use xlink:href="#m4ca51564d4" x="63.00625" y="424.467194" style="stroke: #000000; stroke-width: 0.8"/>
      </g>
     </g>
     <g id="text_9">
      <!-- 0 -->
      <g transform="translate(43.28125 432.065631)scale(0.2 -0.2)">
       <use xlink:href="#DejaVuSans-30"/>
      </g>
     </g>
    </g>
    <g id="ytick_2">
     <g id="line2d_17">
      <path d="M 63.00625 327.166108 
L 621.00625 327.166108 
" clip-path="url(#pd45d75ebba)" style="fill: none; stroke: #b0b0b0; stroke-width: 0.8; stroke-linecap: square"/>
     </g>
     <g id="line2d_18">
      <g>
       <use xlink:href="#m4ca51564d4" x="63.00625" y="327.166108" style="stroke: #000000; stroke-width: 0.8"/>
      </g>
     </g>
     <g id="text_10">
      <!-- 10 -->
      <g transform="translate(30.55625 334.764545)scale(0.2 -0.2)">
       <use xlink:href="#DejaVuSans-31"/>
       <use xlink:href="#DejaVuSans-30" x="63.623047"/>
      </g>
     </g>
    </g>
    <g id="ytick_3">
     <g id="line2d_19">
      <path d="M 63.00625 229.865022 
L 621.00625 229.865022 
" clip-path="url(#pd45d75ebba)" style="fill: none; stroke: #b0b0b0; stroke-width: 0.8; stroke-linecap: square"/>
     </g>
     <g id="line2d_20">
      <g>
       <use xlink:href="#m4ca51564d4" x="63.00625" y="229.865022" style="stroke: #000000; stroke-width: 0.8"/>
      </g>
     </g>
     <g id="text_11">
      <!-- 20 -->
      <g transform="translate(30.55625 237.46346)scale(0.2 -0.2)">
       <use xlink:href="#DejaVuSans-32"/>
       <use xlink:href="#DejaVuSans-30" x="63.623047"/>
      </g>
     </g>
    </g>
    <g id="ytick_4">
     <g id="line2d_21">
      <path d="M 63.00625 132.563936 
L 621.00625 132.563936 
" clip-path="url(#pd45d75ebba)" style="fill: none; stroke: #b0b0b0; stroke-width: 0.8; stroke-linecap: square"/>
     </g>
     <g id="line2d_22">
      <g>
       <use xlink:href="#m4ca51564d4" x="63.00625" y="132.563936" style="stroke: #000000; stroke-width: 0.8"/>
      </g>
     </g>
     <g id="text_12">
      <!-- 30 -->
      <g transform="translate(30.55625 140.162374)scale(0.2 -0.2)">
       <defs>
        <path id="DejaVuSans-33" d="M 2597 2516 
Q 3050 2419 3304 2112 
Q 3559 1806 3559 1356 
Q 3559 666 3084 287 
Q 2609 -91 1734 -91 
Q 1441 -91 1130 -33 
Q 819 25 488 141 
L 488 750 
Q 750 597 1062 519 
Q 1375 441 1716 441 
Q 2309 441 2620 675 
Q 2931 909 2931 1356 
Q 2931 1769 2642 2001 
Q 2353 2234 1838 2234 
L 1294 2234 
L 1294 2753 
L 1863 2753 
Q 2328 2753 2575 2939 
Q 2822 3125 2822 3475 
Q 2822 3834 2567 4026 
Q 2313 4219 1838 4219 
Q 1578 4219 1281 4162 
Q 984 4106 628 3988 
L 628 4550 
Q 988 4650 1302 4700 
Q 1616 4750 1894 4750 
Q 2613 4750 3031 4423 
Q 3450 4097 3450 3541 
Q 3450 3153 3228 2886 
Q 3006 2619 2597 2516 
z
" transform="scale(0.015625)"/>
       </defs>
       <use xlink:href="#DejaVuSans-33"/>
       <use xlink:href="#DejaVuSans-30" x="63.623047"/>
      </g>
     </g>
    </g>
    <g id="ytick_5">
     <g id="line2d_23">
      <path d="M 63.00625 35.262851 
L 621.00625 35.262851 
" clip-path="url(#pd45d75ebba)" style="fill: none; stroke: #b0b0b0; stroke-width: 0.8; stroke-linecap: square"/>
     </g>
     <g id="line2d_24">
      <g>
       <use xlink:href="#m4ca51564d4" x="63.00625" y="35.262851" style="stroke: #000000; stroke-width: 0.8"/>
      </g>
     </g>
     <g id="text_13">
      <!-- 40 -->
      <g transform="translate(30.55625 42.861288)scale(0.2 -0.2)">
       <use xlink:href="#DejaVuSans-34"/>
       <use xlink:href="#DejaVuSans-30" x="63.623047"/>
      </g>
     </g>
    </g>
    <g id="text_14">
     <!-- Maximum Response -->
     <g transform="translate(22.396875 329.438125)rotate(-90)scale(0.2 -0.2)">
      <defs>
       <path id="DejaVuSans-4d" d="M 628 4666 
L 1569 4666 
L 2759 1491 
L 3956 4666 
L 4897 4666 
L 4897 0 
L 4281 0 
L 4281 4097 
L 3078 897 
L 2444 897 
L 1241 4097 
L 1241 0 
L 628 0 
L 628 4666 
z
" transform="scale(0.015625)"/>
       <path id="DejaVuSans-61" d="M 2194 1759 
Q 1497 1759 1228 1600 
Q 959 1441 959 1056 
Q 959 750 1161 570 
Q 1363 391 1709 391 
Q 2188 391 2477 730 
Q 2766 1069 2766 1631 
L 2766 1759 
L 2194 1759 
z
M 3341 1997 
L 3341 0 
L 2766 0 
L 2766 531 
Q 2569 213 2275 61 
Q 1981 -91 1556 -91 
Q 1019 -91 701 211 
Q 384 513 384 1019 
Q 384 1609 779 1909 
Q 1175 2209 1959 2209 
L 2766 2209 
L 2766 2266 
Q 2766 2663 2505 2880 
Q 2244 3097 1772 3097 
Q 1472 3097 1187 3025 
Q 903 2953 641 2809 
L 641 3341 
Q 956 3463 1253 3523 
Q 1550 3584 1831 3584 
Q 2591 3584 2966 3190 
Q 3341 2797 3341 1997 
z
" transform="scale(0.015625)"/>
       <path id="DejaVuSans-6d" d="M 3328 2828 
Q 3544 3216 3844 3400 
Q 4144 3584 4550 3584 
Q 5097 3584 5394 3201 
Q 5691 2819 5691 2113 
L 5691 0 
L 5113 0 
L 5113 2094 
Q 5113 2597 4934 2840 
Q 4756 3084 4391 3084 
Q 3944 3084 3684 2787 
Q 3425 2491 3425 1978 
L 3425 0 
L 2847 0 
L 2847 2094 
Q 2847 2600 2669 2842 
Q 2491 3084 2119 3084 
Q 1678 3084 1418 2786 
Q 1159 2488 1159 1978 
L 1159 0 
L 581 0 
L 581 3500 
L 1159 3500 
L 1159 2956 
Q 1356 3278 1631 3431 
Q 1906 3584 2284 3584 
Q 2666 3584 2933 3390 
Q 3200 3197 3328 2828 
z
" transform="scale(0.015625)"/>
       <path id="DejaVuSans-52" d="M 2841 2188 
Q 3044 2119 3236 1894 
Q 3428 1669 3622 1275 
L 4263 0 
L 3584 0 
L 2988 1197 
Q 2756 1666 2539 1819 
Q 2322 1972 1947 1972 
L 1259 1972 
L 1259 0 
L 628 0 
L 628 4666 
L 2053 4666 
Q 2853 4666 3247 4331 
Q 3641 3997 3641 3322 
Q 3641 2881 3436 2590 
Q 3231 2300 2841 2188 
z
M 1259 4147 
L 1259 2491 
L 2053 2491 
Q 2509 2491 2742 2702 
Q 2975 2913 2975 3322 
Q 2975 3731 2742 3939 
Q 2509 4147 2053 4147 
L 1259 4147 
z
" transform="scale(0.015625)"/>
       <path id="DejaVuSans-6f" d="M 1959 3097 
Q 1497 3097 1228 2736 
Q 959 2375 959 1747 
Q 959 1119 1226 758 
Q 1494 397 1959 397 
Q 2419 397 2687 759 
Q 2956 1122 2956 1747 
Q 2956 2369 2687 2733 
Q 2419 3097 1959 3097 
z
M 1959 3584 
Q 2709 3584 3137 3096 
Q 3566 2609 3566 1747 
Q 3566 888 3137 398 
Q 2709 -91 1959 -91 
Q 1206 -91 779 398 
Q 353 888 353 1747 
Q 353 2609 779 3096 
Q 1206 3584 1959 3584 
z
" transform="scale(0.015625)"/>
       <path id="DejaVuSans-6e" d="M 3513 2113 
L 3513 0 
L 2938 0 
L 2938 2094 
Q 2938 2591 2744 2837 
Q 2550 3084 2163 3084 
Q 1697 3084 1428 2787 
Q 1159 2491 1159 1978 
L 1159 0 
L 581 0 
L 581 3500 
L 1159 3500 
L 1159 2956 
Q 1366 3272 1645 3428 
Q 1925 3584 2291 3584 
Q 2894 3584 3203 3211 
Q 3513 2838 3513 2113 
z
" transform="scale(0.015625)"/>
      </defs>
      <use xlink:href="#DejaVuSans-4d"/>
      <use xlink:href="#DejaVuSans-61" x="86.279297"/>
      <use xlink:href="#DejaVuSans-78" x="147.558594"/>
      <use xlink:href="#DejaVuSans-69" x="206.738281"/>
      <use xlink:href="#DejaVuSans-6d" x="234.521484"/>
      <use xlink:href="#DejaVuSans-75" x="331.933594"/>
      <use xlink:href="#DejaVuSans-6d" x="395.3125"/>
      <use xlink:href="#DejaVuSans-20" x="492.724609"/>
      <use xlink:href="#DejaVuSans-52" x="524.511719"/>
      <use xlink:href="#DejaVuSans-65" x="589.494141"/>
      <use xlink:href="#DejaVuSans-73" x="651.017578"/>
      <use xlink:href="#DejaVuSans-70" x="703.117188"/>
      <use xlink:href="#DejaVuSans-6f" x="766.59375"/>
      <use xlink:href="#DejaVuSans-6e" x="827.775391"/>
      <use xlink:href="#DejaVuSans-73" x="891.154297"/>
      <use xlink:href="#DejaVuSans-65" x="943.253906"/>
     </g>
    </g>
   </g>
   <g id="LineCollection_1">
    <path d="M 139.971767 102.904535 
L 139.971767 51.890765 
" clip-path="url(#pd45d75ebba)" style="fill: none; stroke: #08306b"/>
    <path d="M 178.454526 99.770251 
L 178.454526 27.36 
" clip-path="url(#pd45d75ebba)" style="fill: none; stroke: #08306b"/>
    <path d="M 216.937284 162.492916 
L 216.937284 30.248077 
" clip-path="url(#pd45d75ebba)" style="fill: none; stroke: #08306b"/>
    <path d="M 255.420043 315.642369 
L 255.420043 159.977885 
" clip-path="url(#pd45d75ebba)" style="fill: none; stroke: #08306b"/>
    <path d="M 293.902802 398.369385 
L 293.902802 318.109298 
" clip-path="url(#pd45d75ebba)" style="fill: none; stroke: #08306b"/>
    <path d="M 332.38556 414.33952 
L 332.38556 402.928929 
" clip-path="url(#pd45d75ebba)" style="fill: none; stroke: #08306b"/>
    <path d="M 370.868319 417.526661 
L 370.868319 398.469925 
" clip-path="url(#pd45d75ebba)" style="fill: none; stroke: #08306b"/>
    <path d="M 409.351078 417.608029 
L 409.351078 411.717339 
" clip-path="url(#pd45d75ebba)" style="fill: none; stroke: #08306b"/>
    <path d="M 447.833836 416.436363 
L 447.833836 410.868883 
" clip-path="url(#pd45d75ebba)" style="fill: none; stroke: #08306b"/>
    <path d="M 486.316595 416.963063 
L 486.316595 412.445935 
" clip-path="url(#pd45d75ebba)" style="fill: none; stroke: #08306b"/>
    <path d="M 524.799353 419.054971 
L 524.799353 414.117609 
" clip-path="url(#pd45d75ebba)" style="fill: none; stroke: #08306b"/>
    <path d="M 563.282112 418.368393 
L 563.282112 405.496341 
" clip-path="url(#pd45d75ebba)" style="fill: none; stroke: #08306b"/>
    <path d="M 601.764871 426.064874 
L 601.764871 388.846613 
" clip-path="url(#pd45d75ebba)" style="fill: none; stroke: #08306b"/>
   </g>
   <g id="LineCollection_2">
    <path d="M 139.971767 107.716351 
L 139.971767 52.928894 
" clip-path="url(#pd45d75ebba)" style="fill: none; stroke: #7f2704"/>
    <path d="M 178.454526 120.939374 
L 178.454526 71.271275 
" clip-path="url(#pd45d75ebba)" style="fill: none; stroke: #7f2704"/>
    <path d="M 216.937284 152.582945 
L 216.937284 95.881562 
" clip-path="url(#pd45d75ebba)" style="fill: none; stroke: #7f2704"/>
    <path d="M 255.420043 144.788257 
L 255.420043 80.853736 
" clip-path="url(#pd45d75ebba)" style="fill: none; stroke: #7f2704"/>
    <path d="M 293.902802 151.585504 
L 293.902802 72.468003 
" clip-path="url(#pd45d75ebba)" style="fill: none; stroke: #7f2704"/>
    <path d="M 332.38556 133.47898 
L 332.38556 64.027639 
" clip-path="url(#pd45d75ebba)" style="fill: none; stroke: #7f2704"/>
    <path d="M 370.868319 148.576364 
L 370.868319 76.047841 
" clip-path="url(#pd45d75ebba)" style="fill: none; stroke: #7f2704"/>
    <path d="M 409.351078 125.827052 
L 409.351078 66.794513 
" clip-path="url(#pd45d75ebba)" style="fill: none; stroke: #7f2704"/>
    <path d="M 447.833836 126.645973 
L 447.833836 69.494709 
" clip-path="url(#pd45d75ebba)" style="fill: none; stroke: #7f2704"/>
    <path d="M 486.316595 127.412896 
L 486.316595 65.093701 
" clip-path="url(#pd45d75ebba)" style="fill: none; stroke: #7f2704"/>
    <path d="M 524.799353 139.627653 
L 524.799353 71.561525 
" clip-path="url(#pd45d75ebba)" style="fill: none; stroke: #7f2704"/>
    <path d="M 563.282112 135.739958 
L 563.282112 71.634111 
" clip-path="url(#pd45d75ebba)" style="fill: none; stroke: #7f2704"/>
    <path d="M 601.764871 158.148389 
L 601.764871 82.56972 
" clip-path="url(#pd45d75ebba)" style="fill: none; stroke: #7f2704"/>
   </g>
   <g id="LineCollection_3">
    <path d="M 139.971767 193.836719 
L 139.971767 153.840312 
" clip-path="url(#pd45d75ebba)" style="fill: none; stroke: #1d6cb1"/>
    <path d="M 178.454526 195.158523 
L 178.454526 149.032513 
" clip-path="url(#pd45d75ebba)" style="fill: none; stroke: #1d6cb1"/>
    <path d="M 216.937284 232.374357 
L 216.937284 139.892895 
" clip-path="url(#pd45d75ebba)" style="fill: none; stroke: #1d6cb1"/>
    <path d="M 255.420043 348.641761 
L 255.420043 214.750488 
" clip-path="url(#pd45d75ebba)" style="fill: none; stroke: #1d6cb1"/>
    <path d="M 293.902802 407.987203 
L 293.902802 311.464104 
" clip-path="url(#pd45d75ebba)" style="fill: none; stroke: #1d6cb1"/>
    <path d="M 332.38556 430.56 
L 332.38556 364.147299 
" clip-path="url(#pd45d75ebba)" style="fill: none; stroke: #1d6cb1"/>
    <path d="M 370.868319 419.2295 
L 370.868319 412.607848 
" clip-path="url(#pd45d75ebba)" style="fill: none; stroke: #1d6cb1"/>
    <path d="M 409.351078 417.381628 
L 409.351078 413.058763 
" clip-path="url(#pd45d75ebba)" style="fill: none; stroke: #1d6cb1"/>
    <path d="M 447.833836 418.360894 
L 447.833836 413.15454 
" clip-path="url(#pd45d75ebba)" style="fill: none; stroke: #1d6cb1"/>
    <path d="M 486.316595 419.06787 
L 486.316595 411.557143 
" clip-path="url(#pd45d75ebba)" style="fill: none; stroke: #1d6cb1"/>
    <path d="M 524.799353 417.780191 
L 524.799353 413.50761 
" clip-path="url(#pd45d75ebba)" style="fill: none; stroke: #1d6cb1"/>
    <path d="M 563.282112 419.19176 
L 563.282112 414.814668 
" clip-path="url(#pd45d75ebba)" style="fill: none; stroke: #1d6cb1"/>
    <path d="M 601.764871 426.68692 
L 601.764871 389.860509 
" clip-path="url(#pd45d75ebba)" style="fill: none; stroke: #1d6cb1"/>
   </g>
   <g id="LineCollection_4">
    <path d="M 139.971767 201.601784 
L 139.971767 155.791557 
" clip-path="url(#pd45d75ebba)" style="fill: none; stroke: #d14501"/>
    <path d="M 178.454526 211.252149 
L 178.454526 173.012933 
" clip-path="url(#pd45d75ebba)" style="fill: none; stroke: #d14501"/>
    <path d="M 216.937284 217.760782 
L 216.937284 141.735222 
" clip-path="url(#pd45d75ebba)" style="fill: none; stroke: #d14501"/>
    <path d="M 255.420043 175.193685 
L 255.420043 85.081356 
" clip-path="url(#pd45d75ebba)" style="fill: none; stroke: #d14501"/>
    <path d="M 293.902802 156.497954 
L 293.902802 79.059925 
" clip-path="url(#pd45d75ebba)" style="fill: none; stroke: #d14501"/>
    <path d="M 332.38556 125.679637 
L 332.38556 50.637793 
" clip-path="url(#pd45d75ebba)" style="fill: none; stroke: #d14501"/>
    <path d="M 370.868319 114.797984 
L 370.868319 62.272879 
" clip-path="url(#pd45d75ebba)" style="fill: none; stroke: #d14501"/>
    <path d="M 409.351078 130.259707 
L 409.351078 64.9896 
" clip-path="url(#pd45d75ebba)" style="fill: none; stroke: #d14501"/>
    <path d="M 447.833836 137.819153 
L 447.833836 73.182686 
" clip-path="url(#pd45d75ebba)" style="fill: none; stroke: #d14501"/>
    <path d="M 486.316595 132.512546 
L 486.316595 68.598727 
" clip-path="url(#pd45d75ebba)" style="fill: none; stroke: #d14501"/>
    <path d="M 524.799353 149.140949 
L 524.799353 89.267148 
" clip-path="url(#pd45d75ebba)" style="fill: none; stroke: #d14501"/>
    <path d="M 563.282112 147.07273 
L 563.282112 81.117502 
" clip-path="url(#pd45d75ebba)" style="fill: none; stroke: #d14501"/>
    <path d="M 601.764871 158.148512 
L 601.764871 83.906912 
" clip-path="url(#pd45d75ebba)" style="fill: none; stroke: #d14501"/>
   </g>
   <g id="LineCollection_5">
    <path d="M 139.971767 173.680816 
L 139.971767 127.810161 
" clip-path="url(#pd45d75ebba)" style="fill: none; stroke: #60a7d2"/>
    <path d="M 178.454526 161.449807 
L 178.454526 107.077836 
" clip-path="url(#pd45d75ebba)" style="fill: none; stroke: #60a7d2"/>
    <path d="M 216.937284 209.548799 
L 216.937284 102.406111 
" clip-path="url(#pd45d75ebba)" style="fill: none; stroke: #60a7d2"/>
    <path d="M 255.420043 281.006041 
L 255.420043 152.315429 
" clip-path="url(#pd45d75ebba)" style="fill: none; stroke: #60a7d2"/>
    <path d="M 293.902802 371.294825 
L 293.902802 243.625422 
" clip-path="url(#pd45d75ebba)" style="fill: none; stroke: #60a7d2"/>
    <path d="M 332.38556 423.42664 
L 332.38556 356.385967 
" clip-path="url(#pd45d75ebba)" style="fill: none; stroke: #60a7d2"/>
    <path d="M 370.868319 416.526046 
L 370.868319 411.021837 
" clip-path="url(#pd45d75ebba)" style="fill: none; stroke: #60a7d2"/>
    <path d="M 409.351078 417.124914 
L 409.351078 408.46092 
" clip-path="url(#pd45d75ebba)" style="fill: none; stroke: #60a7d2"/>
    <path d="M 447.833836 416.60749 
L 447.833836 410.768895 
" clip-path="url(#pd45d75ebba)" style="fill: none; stroke: #60a7d2"/>
    <path d="M 486.316595 417.229848 
L 486.316595 411.942711 
" clip-path="url(#pd45d75ebba)" style="fill: none; stroke: #60a7d2"/>
    <path d="M 524.799353 419.41153 
L 524.799353 414.677552 
" clip-path="url(#pd45d75ebba)" style="fill: none; stroke: #60a7d2"/>
    <path d="M 563.282112 418.561544 
L 563.282112 413.864945 
" clip-path="url(#pd45d75ebba)" style="fill: none; stroke: #60a7d2"/>
    <path d="M 601.764871 425.5294 
L 601.764871 393.585487 
" clip-path="url(#pd45d75ebba)" style="fill: none; stroke: #60a7d2"/>
   </g>
   <g id="LineCollection_6">
    <path d="M 139.971767 173.877385 
L 139.971767 125.21671 
" clip-path="url(#pd45d75ebba)" style="fill: none; stroke: #fa8331"/>
    <path d="M 178.454526 182.52829 
L 178.454526 133.640457 
" clip-path="url(#pd45d75ebba)" style="fill: none; stroke: #fa8331"/>
    <path d="M 216.937284 200.235395 
L 216.937284 146.065183 
" clip-path="url(#pd45d75ebba)" style="fill: none; stroke: #fa8331"/>
    <path d="M 255.420043 193.742803 
L 255.420043 121.940136 
" clip-path="url(#pd45d75ebba)" style="fill: none; stroke: #fa8331"/>
    <path d="M 293.902802 163.16633 
L 293.902802 72.46285 
" clip-path="url(#pd45d75ebba)" style="fill: none; stroke: #fa8331"/>
    <path d="M 332.38556 146.967923 
L 332.38556 81.592995 
" clip-path="url(#pd45d75ebba)" style="fill: none; stroke: #fa8331"/>
    <path d="M 370.868319 132.004311 
L 370.868319 67.007741 
" clip-path="url(#pd45d75ebba)" style="fill: none; stroke: #fa8331"/>
    <path d="M 409.351078 138.831436 
L 409.351078 74.074831 
" clip-path="url(#pd45d75ebba)" style="fill: none; stroke: #fa8331"/>
    <path d="M 447.833836 144.170531 
L 447.833836 75.949181 
" clip-path="url(#pd45d75ebba)" style="fill: none; stroke: #fa8331"/>
    <path d="M 486.316595 136.969664 
L 486.316595 76.251513 
" clip-path="url(#pd45d75ebba)" style="fill: none; stroke: #fa8331"/>
    <path d="M 524.799353 125.660523 
L 524.799353 61.700481 
" clip-path="url(#pd45d75ebba)" style="fill: none; stroke: #fa8331"/>
    <path d="M 563.282112 136.081225 
L 563.282112 74.397245 
" clip-path="url(#pd45d75ebba)" style="fill: none; stroke: #fa8331"/>
    <path d="M 601.764871 155.387283 
L 601.764871 80.246914 
" clip-path="url(#pd45d75ebba)" style="fill: none; stroke: #fa8331"/>
   </g>
   <g id="LineCollection_7">
    <path d="M 139.971767 149.863516 
L 139.971767 98.564649 
" clip-path="url(#pd45d75ebba)" style="fill: none; stroke: #b7d4ea"/>
    <path d="M 178.454526 203.877892 
L 178.454526 114.665844 
" clip-path="url(#pd45d75ebba)" style="fill: none; stroke: #b7d4ea"/>
    <path d="M 216.937284 239.880801 
L 216.937284 108.961056 
" clip-path="url(#pd45d75ebba)" style="fill: none; stroke: #b7d4ea"/>
    <path d="M 255.420043 329.80181 
L 255.420043 210.967337 
" clip-path="url(#pd45d75ebba)" style="fill: none; stroke: #b7d4ea"/>
    <path d="M 293.902802 419.011811 
L 293.902802 391.941144 
" clip-path="url(#pd45d75ebba)" style="fill: none; stroke: #b7d4ea"/>
    <path d="M 332.38556 414.287208 
L 332.38556 404.62907 
" clip-path="url(#pd45d75ebba)" style="fill: none; stroke: #b7d4ea"/>
    <path d="M 370.868319 415.686862 
L 370.868319 408.154407 
" clip-path="url(#pd45d75ebba)" style="fill: none; stroke: #b7d4ea"/>
    <path d="M 409.351078 417.80388 
L 409.351078 413.697268 
" clip-path="url(#pd45d75ebba)" style="fill: none; stroke: #b7d4ea"/>
    <path d="M 447.833836 418.540217 
L 447.833836 414.307468 
" clip-path="url(#pd45d75ebba)" style="fill: none; stroke: #b7d4ea"/>
    <path d="M 486.316595 419.28132 
L 486.316595 414.340851 
" clip-path="url(#pd45d75ebba)" style="fill: none; stroke: #b7d4ea"/>
    <path d="M 524.799353 417.370117 
L 524.799353 408.474025 
" clip-path="url(#pd45d75ebba)" style="fill: none; stroke: #b7d4ea"/>
    <path d="M 563.282112 420.207324 
L 563.282112 413.029751 
" clip-path="url(#pd45d75ebba)" style="fill: none; stroke: #b7d4ea"/>
    <path d="M 601.764871 424.30494 
L 601.764871 387.408088 
" clip-path="url(#pd45d75ebba)" style="fill: none; stroke: #b7d4ea"/>
   </g>
   <g id="LineCollection_8">
    <path d="M 139.971767 165.04438 
L 139.971767 106.999308 
" clip-path="url(#pd45d75ebba)" style="fill: none; stroke: #fdc38d"/>
    <path d="M 178.454526 174.902562 
L 178.454526 133.566697 
" clip-path="url(#pd45d75ebba)" style="fill: none; stroke: #fdc38d"/>
    <path d="M 216.937284 183.593772 
L 216.937284 128.737672 
" clip-path="url(#pd45d75ebba)" style="fill: none; stroke: #fdc38d"/>
    <path d="M 255.420043 173.232287 
L 255.420043 103.73189 
" clip-path="url(#pd45d75ebba)" style="fill: none; stroke: #fdc38d"/>
    <path d="M 293.902802 132.379579 
L 293.902802 68.578959 
" clip-path="url(#pd45d75ebba)" style="fill: none; stroke: #fdc38d"/>
    <path d="M 332.38556 124.805753 
L 332.38556 61.255968 
" clip-path="url(#pd45d75ebba)" style="fill: none; stroke: #fdc38d"/>
    <path d="M 370.868319 131.348017 
L 370.868319 69.761338 
" clip-path="url(#pd45d75ebba)" style="fill: none; stroke: #fdc38d"/>
    <path d="M 409.351078 127.646069 
L 409.351078 71.169761 
" clip-path="url(#pd45d75ebba)" style="fill: none; stroke: #fdc38d"/>
    <path d="M 447.833836 137.010701 
L 447.833836 81.654464 
" clip-path="url(#pd45d75ebba)" style="fill: none; stroke: #fdc38d"/>
    <path d="M 486.316595 134.887174 
L 486.316595 73.017281 
" clip-path="url(#pd45d75ebba)" style="fill: none; stroke: #fdc38d"/>
    <path d="M 524.799353 141.042081 
L 524.799353 76.814109 
" clip-path="url(#pd45d75ebba)" style="fill: none; stroke: #fdc38d"/>
    <path d="M 563.282112 134.957017 
L 563.282112 57.722341 
" clip-path="url(#pd45d75ebba)" style="fill: none; stroke: #fdc38d"/>
    <path d="M 601.764871 164.886382 
L 601.764871 85.73766 
" clip-path="url(#pd45d75ebba)" style="fill: none; stroke: #fdc38d"/>
   </g>
   <g id="line2d_25">
    <path d="M 139.971767 77.39765 
L 178.454526 63.565125 
L 216.937284 96.370496 
L 255.420043 237.810127 
L 293.902802 358.239341 
L 332.38556 408.634224 
L 370.868319 407.998293 
L 409.351078 414.662684 
L 447.833836 413.652623 
L 486.316595 414.704499 
L 524.799353 416.58629 
L 563.282112 411.932367 
L 601.764871 407.455744 
" clip-path="url(#pd45d75ebba)" style="fill: none; stroke: #08306b; stroke-width: 3; stroke-linecap: square"/>
    <defs>
     <path id="mf73c3f9054" d="M 0 3 
C 0.795609 3 1.55874 2.683901 2.12132 2.12132 
C 2.683901 1.55874 3 0.795609 3 0 
C 3 -0.795609 2.683901 -1.55874 2.12132 -2.12132 
C 1.55874 -2.683901 0.795609 -3 0 -3 
C -0.795609 -3 -1.55874 -2.683901 -2.12132 -2.12132 
C -2.683901 -1.55874 -3 -0.795609 -3 0 
C -3 0.795609 -2.683901 1.55874 -2.12132 2.12132 
C -1.55874 2.683901 -0.795609 3 0 3 
z
" style="stroke: #08306b"/>
    </defs>
    <g clip-path="url(#pd45d75ebba)">
     <use xlink:href="#mf73c3f9054" x="139.971767" y="77.39765" style="fill: #08306b; stroke: #08306b"/>
     <use xlink:href="#mf73c3f9054" x="178.454526" y="63.565125" style="fill: #08306b; stroke: #08306b"/>
     <use xlink:href="#mf73c3f9054" x="216.937284" y="96.370496" style="fill: #08306b; stroke: #08306b"/>
     <use xlink:href="#mf73c3f9054" x="255.420043" y="237.810127" style="fill: #08306b; stroke: #08306b"/>
     <use xlink:href="#mf73c3f9054" x="293.902802" y="358.239341" style="fill: #08306b; stroke: #08306b"/>
     <use xlink:href="#mf73c3f9054" x="332.38556" y="408.634224" style="fill: #08306b; stroke: #08306b"/>
     <use xlink:href="#mf73c3f9054" x="370.868319" y="407.998293" style="fill: #08306b; stroke: #08306b"/>
     <use xlink:href="#mf73c3f9054" x="409.351078" y="414.662684" style="fill: #08306b; stroke: #08306b"/>
     <use xlink:href="#mf73c3f9054" x="447.833836" y="413.652623" style="fill: #08306b; stroke: #08306b"/>
     <use xlink:href="#mf73c3f9054" x="486.316595" y="414.704499" style="fill: #08306b; stroke: #08306b"/>
     <use xlink:href="#mf73c3f9054" x="524.799353" y="416.58629" style="fill: #08306b; stroke: #08306b"/>
     <use xlink:href="#mf73c3f9054" x="563.282112" y="411.932367" style="fill: #08306b; stroke: #08306b"/>
     <use xlink:href="#mf73c3f9054" x="601.764871" y="407.455744" style="fill: #08306b; stroke: #08306b"/>
    </g>
   </g>
   <g id="line2d_26">
    <path d="M 139.971767 80.322623 
L 178.454526 96.105325 
L 216.937284 124.232253 
L 255.420043 112.820996 
L 293.902802 112.026753 
L 332.38556 98.75331 
L 370.868319 112.312103 
L 409.351078 96.310782 
L 447.833836 98.070341 
L 486.316595 96.253299 
L 524.799353 105.594589 
L 563.282112 103.687034 
L 601.764871 120.359055 
" clip-path="url(#pd45d75ebba)" style="fill: none; stroke: #7f2704; stroke-width: 3; stroke-linecap: square"/>
    <defs>
     <path id="mfc761ff3fb" d="M -3 3 
L 3 3 
L 3 -3 
L -3 -3 
z
" style="stroke: #7f2704; stroke-linejoin: miter"/>
    </defs>
    <g clip-path="url(#pd45d75ebba)">
     <use xlink:href="#mfc761ff3fb" x="139.971767" y="80.322623" style="fill: #7f2704; stroke: #7f2704; stroke-linejoin: miter"/>
     <use xlink:href="#mfc761ff3fb" x="178.454526" y="96.105325" style="fill: #7f2704; stroke: #7f2704; stroke-linejoin: miter"/>
     <use xlink:href="#mfc761ff3fb" x="216.937284" y="124.232253" style="fill: #7f2704; stroke: #7f2704; stroke-linejoin: miter"/>
     <use xlink:href="#mfc761ff3fb" x="255.420043" y="112.820996" style="fill: #7f2704; stroke: #7f2704; stroke-linejoin: miter"/>
     <use xlink:href="#mfc761ff3fb" x="293.902802" y="112.026753" style="fill: #7f2704; stroke: #7f2704; stroke-linejoin: miter"/>
     <use xlink:href="#mfc761ff3fb" x="332.38556" y="98.75331" style="fill: #7f2704; stroke: #7f2704; stroke-linejoin: miter"/>
     <use xlink:href="#mfc761ff3fb" x="370.868319" y="112.312103" style="fill: #7f2704; stroke: #7f2704; stroke-linejoin: miter"/>
     <use xlink:href="#mfc761ff3fb" x="409.351078" y="96.310782" style="fill: #7f2704; stroke: #7f2704; stroke-linejoin: miter"/>
     <use xlink:href="#mfc761ff3fb" x="447.833836" y="98.070341" style="fill: #7f2704; stroke: #7f2704; stroke-linejoin: miter"/>
     <use xlink:href="#mfc761ff3fb" x="486.316595" y="96.253299" style="fill: #7f2704; stroke: #7f2704; stroke-linejoin: miter"/>
     <use xlink:href="#mfc761ff3fb" x="524.799353" y="105.594589" style="fill: #7f2704; stroke: #7f2704; stroke-linejoin: miter"/>
     <use xlink:href="#mfc761ff3fb" x="563.282112" y="103.687034" style="fill: #7f2704; stroke: #7f2704; stroke-linejoin: miter"/>
     <use xlink:href="#mfc761ff3fb" x="601.764871" y="120.359055" style="fill: #7f2704; stroke: #7f2704; stroke-linejoin: miter"/>
    </g>
   </g>
   <g id="line2d_27">
    <path d="M 139.971767 173.838516 
L 178.454526 172.095518 
L 216.937284 186.133626 
L 255.420043 281.696125 
L 293.902802 359.725653 
L 332.38556 397.35365 
L 370.868319 415.918674 
L 409.351078 415.220195 
L 447.833836 415.757717 
L 486.316595 415.312507 
L 524.799353 415.6439 
L 563.282112 417.003214 
L 601.764871 408.273714 
" clip-path="url(#pd45d75ebba)" style="fill: none; stroke: #1d6cb1; stroke-width: 3; stroke-linecap: square"/>
    <defs>
     <path id="mcda4027f06" d="M 0 3 
C 0.795609 3 1.55874 2.683901 2.12132 2.12132 
C 2.683901 1.55874 3 0.795609 3 0 
C 3 -0.795609 2.683901 -1.55874 2.12132 -2.12132 
C 1.55874 -2.683901 0.795609 -3 0 -3 
C -0.795609 -3 -1.55874 -2.683901 -2.12132 -2.12132 
C -2.683901 -1.55874 -3 -0.795609 -3 0 
C -3 0.795609 -2.683901 1.55874 -2.12132 2.12132 
C -1.55874 2.683901 -0.795609 3 0 3 
z
" style="stroke: #1d6cb1"/>
    </defs>
    <g clip-path="url(#pd45d75ebba)">
     <use xlink:href="#mcda4027f06" x="139.971767" y="173.838516" style="fill: #1d6cb1; stroke: #1d6cb1"/>
     <use xlink:href="#mcda4027f06" x="178.454526" y="172.095518" style="fill: #1d6cb1; stroke: #1d6cb1"/>
     <use xlink:href="#mcda4027f06" x="216.937284" y="186.133626" style="fill: #1d6cb1; stroke: #1d6cb1"/>
     <use xlink:href="#mcda4027f06" x="255.420043" y="281.696125" style="fill: #1d6cb1; stroke: #1d6cb1"/>
     <use xlink:href="#mcda4027f06" x="293.902802" y="359.725653" style="fill: #1d6cb1; stroke: #1d6cb1"/>
     <use xlink:href="#mcda4027f06" x="332.38556" y="397.35365" style="fill: #1d6cb1; stroke: #1d6cb1"/>
     <use xlink:href="#mcda4027f06" x="370.868319" y="415.918674" style="fill: #1d6cb1; stroke: #1d6cb1"/>
     <use xlink:href="#mcda4027f06" x="409.351078" y="415.220195" style="fill: #1d6cb1; stroke: #1d6cb1"/>
     <use xlink:href="#mcda4027f06" x="447.833836" y="415.757717" style="fill: #1d6cb1; stroke: #1d6cb1"/>
     <use xlink:href="#mcda4027f06" x="486.316595" y="415.312507" style="fill: #1d6cb1; stroke: #1d6cb1"/>
     <use xlink:href="#mcda4027f06" x="524.799353" y="415.6439" style="fill: #1d6cb1; stroke: #1d6cb1"/>
     <use xlink:href="#mcda4027f06" x="563.282112" y="417.003214" style="fill: #1d6cb1; stroke: #1d6cb1"/>
     <use xlink:href="#mcda4027f06" x="601.764871" y="408.273714" style="fill: #1d6cb1; stroke: #1d6cb1"/>
    </g>
   </g>
   <g id="line2d_28">
    <path d="M 139.971767 178.69667 
L 178.454526 192.132541 
L 216.937284 179.748002 
L 255.420043 130.137521 
L 293.902802 117.77894 
L 332.38556 88.158715 
L 370.868319 88.535432 
L 409.351078 97.624653 
L 447.833836 105.500919 
L 486.316595 100.555637 
L 524.799353 119.204049 
L 563.282112 114.095116 
L 601.764871 121.027712 
" clip-path="url(#pd45d75ebba)" style="fill: none; stroke: #d14501; stroke-width: 3; stroke-linecap: square"/>
    <defs>
     <path id="mc7709bea51" d="M -3 3 
L 3 3 
L 3 -3 
L -3 -3 
z
" style="stroke: #d14501; stroke-linejoin: miter"/>
    </defs>
    <g clip-path="url(#pd45d75ebba)">
     <use xlink:href="#mc7709bea51" x="139.971767" y="178.69667" style="fill: #d14501; stroke: #d14501; stroke-linejoin: miter"/>
     <use xlink:href="#mc7709bea51" x="178.454526" y="192.132541" style="fill: #d14501; stroke: #d14501; stroke-linejoin: miter"/>
     <use xlink:href="#mc7709bea51" x="216.937284" y="179.748002" style="fill: #d14501; stroke: #d14501; stroke-linejoin: miter"/>
     <use xlink:href="#mc7709bea51" x="255.420043" y="130.137521" style="fill: #d14501; stroke: #d14501; stroke-linejoin: miter"/>
     <use xlink:href="#mc7709bea51" x="293.902802" y="117.77894" style="fill: #d14501; stroke: #d14501; stroke-linejoin: miter"/>
     <use xlink:href="#mc7709bea51" x="332.38556" y="88.158715" style="fill: #d14501; stroke: #d14501; stroke-linejoin: miter"/>
     <use xlink:href="#mc7709bea51" x="370.868319" y="88.535432" style="fill: #d14501; stroke: #d14501; stroke-linejoin: miter"/>
     <use xlink:href="#mc7709bea51" x="409.351078" y="97.624653" style="fill: #d14501; stroke: #d14501; stroke-linejoin: miter"/>
     <use xlink:href="#mc7709bea51" x="447.833836" y="105.500919" style="fill: #d14501; stroke: #d14501; stroke-linejoin: miter"/>
     <use xlink:href="#mc7709bea51" x="486.316595" y="100.555637" style="fill: #d14501; stroke: #d14501; stroke-linejoin: miter"/>
     <use xlink:href="#mc7709bea51" x="524.799353" y="119.204049" style="fill: #d14501; stroke: #d14501; stroke-linejoin: miter"/>
     <use xlink:href="#mc7709bea51" x="563.282112" y="114.095116" style="fill: #d14501; stroke: #d14501; stroke-linejoin: miter"/>
     <use xlink:href="#mc7709bea51" x="601.764871" y="121.027712" style="fill: #d14501; stroke: #d14501; stroke-linejoin: miter"/>
    </g>
   </g>
   <g id="line2d_29">
    <path d="M 139.971767 150.745489 
L 178.454526 134.263821 
L 216.937284 155.977455 
L 255.420043 216.660735 
L 293.902802 307.460123 
L 332.38556 389.906303 
L 370.868319 413.773942 
L 409.351078 412.792917 
L 447.833836 413.688192 
L 486.316595 414.58628 
L 524.799353 417.044541 
L 563.282112 416.213244 
L 601.764871 409.557444 
" clip-path="url(#pd45d75ebba)" style="fill: none; stroke: #60a7d2; stroke-width: 3; stroke-linecap: square"/>
    <defs>
     <path id="m67154173f6" d="M 0 3 
C 0.795609 3 1.55874 2.683901 2.12132 2.12132 
C 2.683901 1.55874 3 0.795609 3 0 
C 3 -0.795609 2.683901 -1.55874 2.12132 -2.12132 
C 1.55874 -2.683901 0.795609 -3 0 -3 
C -0.795609 -3 -1.55874 -2.683901 -2.12132 -2.12132 
C -2.683901 -1.55874 -3 -0.795609 -3 0 
C -3 0.795609 -2.683901 1.55874 -2.12132 2.12132 
C -1.55874 2.683901 -0.795609 3 0 3 
z
" style="stroke: #60a7d2"/>
    </defs>
    <g clip-path="url(#pd45d75ebba)">
     <use xlink:href="#m67154173f6" x="139.971767" y="150.745489" style="fill: #60a7d2; stroke: #60a7d2"/>
     <use xlink:href="#m67154173f6" x="178.454526" y="134.263821" style="fill: #60a7d2; stroke: #60a7d2"/>
     <use xlink:href="#m67154173f6" x="216.937284" y="155.977455" style="fill: #60a7d2; stroke: #60a7d2"/>
     <use xlink:href="#m67154173f6" x="255.420043" y="216.660735" style="fill: #60a7d2; stroke: #60a7d2"/>
     <use xlink:href="#m67154173f6" x="293.902802" y="307.460123" style="fill: #60a7d2; stroke: #60a7d2"/>
     <use xlink:href="#m67154173f6" x="332.38556" y="389.906303" style="fill: #60a7d2; stroke: #60a7d2"/>
     <use xlink:href="#m67154173f6" x="370.868319" y="413.773942" style="fill: #60a7d2; stroke: #60a7d2"/>
     <use xlink:href="#m67154173f6" x="409.351078" y="412.792917" style="fill: #60a7d2; stroke: #60a7d2"/>
     <use xlink:href="#m67154173f6" x="447.833836" y="413.688192" style="fill: #60a7d2; stroke: #60a7d2"/>
     <use xlink:href="#m67154173f6" x="486.316595" y="414.58628" style="fill: #60a7d2; stroke: #60a7d2"/>
     <use xlink:href="#m67154173f6" x="524.799353" y="417.044541" style="fill: #60a7d2; stroke: #60a7d2"/>
     <use xlink:href="#m67154173f6" x="563.282112" y="416.213244" style="fill: #60a7d2; stroke: #60a7d2"/>
     <use xlink:href="#m67154173f6" x="601.764871" y="409.557444" style="fill: #60a7d2; stroke: #60a7d2"/>
    </g>
   </g>
   <g id="line2d_30">
    <path d="M 139.971767 149.547047 
L 178.454526 158.084373 
L 216.937284 173.150289 
L 255.420043 157.84147 
L 293.902802 117.81459 
L 332.38556 114.280459 
L 370.868319 99.506026 
L 409.351078 106.453134 
L 447.833836 110.059856 
L 486.316595 106.610588 
L 524.799353 93.680502 
L 563.282112 105.239235 
L 601.764871 117.817099 
" clip-path="url(#pd45d75ebba)" style="fill: none; stroke: #fa8331; stroke-width: 3; stroke-linecap: square"/>
    <defs>
     <path id="md93bed08cf" d="M -3 3 
L 3 3 
L 3 -3 
L -3 -3 
z
" style="stroke: #fa8331; stroke-linejoin: miter"/>
    </defs>
    <g clip-path="url(#pd45d75ebba)">
     <use xlink:href="#md93bed08cf" x="139.971767" y="149.547047" style="fill: #fa8331; stroke: #fa8331; stroke-linejoin: miter"/>
     <use xlink:href="#md93bed08cf" x="178.454526" y="158.084373" style="fill: #fa8331; stroke: #fa8331; stroke-linejoin: miter"/>
     <use xlink:href="#md93bed08cf" x="216.937284" y="173.150289" style="fill: #fa8331; stroke: #fa8331; stroke-linejoin: miter"/>
     <use xlink:href="#md93bed08cf" x="255.420043" y="157.84147" style="fill: #fa8331; stroke: #fa8331; stroke-linejoin: miter"/>
     <use xlink:href="#md93bed08cf" x="293.902802" y="117.81459" style="fill: #fa8331; stroke: #fa8331; stroke-linejoin: miter"/>
     <use xlink:href="#md93bed08cf" x="332.38556" y="114.280459" style="fill: #fa8331; stroke: #fa8331; stroke-linejoin: miter"/>
     <use xlink:href="#md93bed08cf" x="370.868319" y="99.506026" style="fill: #fa8331; stroke: #fa8331; stroke-linejoin: miter"/>
     <use xlink:href="#md93bed08cf" x="409.351078" y="106.453134" style="fill: #fa8331; stroke: #fa8331; stroke-linejoin: miter"/>
     <use xlink:href="#md93bed08cf" x="447.833836" y="110.059856" style="fill: #fa8331; stroke: #fa8331; stroke-linejoin: miter"/>
     <use xlink:href="#md93bed08cf" x="486.316595" y="106.610588" style="fill: #fa8331; stroke: #fa8331; stroke-linejoin: miter"/>
     <use xlink:href="#md93bed08cf" x="524.799353" y="93.680502" style="fill: #fa8331; stroke: #fa8331; stroke-linejoin: miter"/>
     <use xlink:href="#md93bed08cf" x="563.282112" y="105.239235" style="fill: #fa8331; stroke: #fa8331; stroke-linejoin: miter"/>
     <use xlink:href="#md93bed08cf" x="601.764871" y="117.817099" style="fill: #fa8331; stroke: #fa8331; stroke-linejoin: miter"/>
    </g>
   </g>
   <g id="line2d_31">
    <path d="M 139.971767 124.214082 
L 178.454526 159.271868 
L 216.937284 174.420929 
L 255.420043 270.384574 
L 293.902802 405.476477 
L 332.38556 409.458139 
L 370.868319 411.920635 
L 409.351078 415.750574 
L 447.833836 416.423842 
L 486.316595 416.811085 
L 524.799353 412.922071 
L 563.282112 416.618538 
L 601.764871 405.856514 
" clip-path="url(#pd45d75ebba)" style="fill: none; stroke: #b7d4ea; stroke-width: 3; stroke-linecap: square"/>
    <defs>
     <path id="mc0f333fc3f" d="M 0 3 
C 0.795609 3 1.55874 2.683901 2.12132 2.12132 
C 2.683901 1.55874 3 0.795609 3 0 
C 3 -0.795609 2.683901 -1.55874 2.12132 -2.12132 
C 1.55874 -2.683901 0.795609 -3 0 -3 
C -0.795609 -3 -1.55874 -2.683901 -2.12132 -2.12132 
C -2.683901 -1.55874 -3 -0.795609 -3 0 
C -3 0.795609 -2.683901 1.55874 -2.12132 2.12132 
C -1.55874 2.683901 -0.795609 3 0 3 
z
" style="stroke: #b7d4ea"/>
    </defs>
    <g clip-path="url(#pd45d75ebba)">
     <use xlink:href="#mc0f333fc3f" x="139.971767" y="124.214082" style="fill: #b7d4ea; stroke: #b7d4ea"/>
     <use xlink:href="#mc0f333fc3f" x="178.454526" y="159.271868" style="fill: #b7d4ea; stroke: #b7d4ea"/>
     <use xlink:href="#mc0f333fc3f" x="216.937284" y="174.420929" style="fill: #b7d4ea; stroke: #b7d4ea"/>
     <use xlink:href="#mc0f333fc3f" x="255.420043" y="270.384574" style="fill: #b7d4ea; stroke: #b7d4ea"/>
     <use xlink:href="#mc0f333fc3f" x="293.902802" y="405.476477" style="fill: #b7d4ea; stroke: #b7d4ea"/>
     <use xlink:href="#mc0f333fc3f" x="332.38556" y="409.458139" style="fill: #b7d4ea; stroke: #b7d4ea"/>
     <use xlink:href="#mc0f333fc3f" x="370.868319" y="411.920635" style="fill: #b7d4ea; stroke: #b7d4ea"/>
     <use xlink:href="#mc0f333fc3f" x="409.351078" y="415.750574" style="fill: #b7d4ea; stroke: #b7d4ea"/>
     <use xlink:href="#mc0f333fc3f" x="447.833836" y="416.423842" style="fill: #b7d4ea; stroke: #b7d4ea"/>
     <use xlink:href="#mc0f333fc3f" x="486.316595" y="416.811085" style="fill: #b7d4ea; stroke: #b7d4ea"/>
     <use xlink:href="#mc0f333fc3f" x="524.799353" y="412.922071" style="fill: #b7d4ea; stroke: #b7d4ea"/>
     <use xlink:href="#mc0f333fc3f" x="563.282112" y="416.618538" style="fill: #b7d4ea; stroke: #b7d4ea"/>
     <use xlink:href="#mc0f333fc3f" x="601.764871" y="405.856514" style="fill: #b7d4ea; stroke: #b7d4ea"/>
    </g>
   </g>
   <g id="line2d_32">
    <path d="M 139.971767 136.021844 
L 178.454526 154.23463 
L 216.937284 156.165722 
L 255.420043 138.482089 
L 293.902802 100.479269 
L 332.38556 93.030861 
L 370.868319 100.554678 
L 409.351078 99.407915 
L 447.833836 109.332582 
L 486.316595 103.952227 
L 524.799353 108.928095 
L 563.282112 96.339679 
L 601.764871 125.312021 
" clip-path="url(#pd45d75ebba)" style="fill: none; stroke: #fdc38d; stroke-width: 3; stroke-linecap: square"/>
    <defs>
     <path id="ma3e99c6320" d="M -3 3 
L 3 3 
L 3 -3 
L -3 -3 
z
" style="stroke: #fdc38d; stroke-linejoin: miter"/>
    </defs>
    <g clip-path="url(#pd45d75ebba)">
     <use xlink:href="#ma3e99c6320" x="139.971767" y="136.021844" style="fill: #fdc38d; stroke: #fdc38d; stroke-linejoin: miter"/>
     <use xlink:href="#ma3e99c6320" x="178.454526" y="154.23463" style="fill: #fdc38d; stroke: #fdc38d; stroke-linejoin: miter"/>
     <use xlink:href="#ma3e99c6320" x="216.937284" y="156.165722" style="fill: #fdc38d; stroke: #fdc38d; stroke-linejoin: miter"/>
     <use xlink:href="#ma3e99c6320" x="255.420043" y="138.482089" style="fill: #fdc38d; stroke: #fdc38d; stroke-linejoin: miter"/>
     <use xlink:href="#ma3e99c6320" x="293.902802" y="100.479269" style="fill: #fdc38d; stroke: #fdc38d; stroke-linejoin: miter"/>
     <use xlink:href="#ma3e99c6320" x="332.38556" y="93.030861" style="fill: #fdc38d; stroke: #fdc38d; stroke-linejoin: miter"/>
     <use xlink:href="#ma3e99c6320" x="370.868319" y="100.554678" style="fill: #fdc38d; stroke: #fdc38d; stroke-linejoin: miter"/>
     <use xlink:href="#ma3e99c6320" x="409.351078" y="99.407915" style="fill: #fdc38d; stroke: #fdc38d; stroke-linejoin: miter"/>
     <use xlink:href="#ma3e99c6320" x="447.833836" y="109.332582" style="fill: #fdc38d; stroke: #fdc38d; stroke-linejoin: miter"/>
     <use xlink:href="#ma3e99c6320" x="486.316595" y="103.952227" style="fill: #fdc38d; stroke: #fdc38d; stroke-linejoin: miter"/>
     <use xlink:href="#ma3e99c6320" x="524.799353" y="108.928095" style="fill: #fdc38d; stroke: #fdc38d; stroke-linejoin: miter"/>
     <use xlink:href="#ma3e99c6320" x="563.282112" y="96.339679" style="fill: #fdc38d; stroke: #fdc38d; stroke-linejoin: miter"/>
     <use xlink:href="#ma3e99c6320" x="601.764871" y="125.312021" style="fill: #fdc38d; stroke: #fdc38d; stroke-linejoin: miter"/>
    </g>
   </g>
   <g id="patch_3">
    <path d="M 63.00625 450.72 
L 63.00625 7.2 
" style="fill: none; stroke: #000000; stroke-width: 0.8; stroke-linejoin: miter; stroke-linecap: square"/>
   </g>
   <g id="patch_4">
    <path d="M 621.00625 450.72 
L 621.00625 7.2 
" style="fill: none; stroke: #000000; stroke-width: 0.8; stroke-linejoin: miter; stroke-linecap: square"/>
   </g>
   <g id="patch_5">
    <path d="M 63.00625 450.72 
L 621.00625 450.72 
" style="fill: none; stroke: #000000; stroke-width: 0.8; stroke-linejoin: miter; stroke-linecap: square"/>
   </g>
   <g id="patch_6">
    <path d="M 63.00625 7.2 
L 621.00625 7.2 
" style="fill: none; stroke: #000000; stroke-width: 0.8; stroke-linejoin: miter; stroke-linecap: square"/>
   </g>
   <g id="text_15">
    <!-- =0 =0 -->
    <g style="fill: #08306b" transform="translate(80.592112 76.686118)scale(0.08 -0.08)">
     <defs>
      <path id="DejaVuSans-3bc" d="M 544 -1331 
L 544 3500 
L 1119 3500 
L 1119 1325 
Q 1119 872 1334 640 
Q 1550 409 1972 409 
Q 2434 409 2667 671 
Q 2900 934 2900 1459 
L 2900 3500 
L 3475 3500 
L 3475 806 
Q 3475 619 3529 530 
Q 3584 441 3700 441 
Q 3728 441 3778 458 
Q 3828 475 3916 513 
L 3916 50 
Q 3788 -22 3673 -56 
Q 3559 -91 3450 -91 
Q 3234 -91 3106 31 
Q 2978 153 2931 403 
Q 2775 156 2548 32 
Q 2322 -91 2016 -91 
Q 1697 -91 1473 31 
Q 1250 153 1119 397 
L 1119 -1331 
L 544 -1331 
z
" transform="scale(0.015625)"/>
      <path id="DejaVuSans-3d" d="M 678 2906 
L 4684 2906 
L 4684 2381 
L 678 2381 
L 678 2906 
z
M 678 1631 
L 4684 1631 
L 4684 1100 
L 678 1100 
L 678 1631 
z
" transform="scale(0.015625)"/>
      <path id="DejaVuSans-3c3" d="M 1959 3044 
Q 1484 3044 1228 2700 
Q 959 2341 959 1747 
Q 959 1119 1226 758 
Q 1494 397 1959 397 
Q 2419 397 2687 759 
Q 2956 1122 2956 1747 
Q 2956 2319 2688 2700 
Q 2441 3044 1959 3044 
z
M 1959 3500 
L 3869 3500 
L 3869 2925 
L 3225 2925 
Q 3566 2438 3566 1747 
Q 3566 888 3138 400 
Q 2709 -91 1959 -91 
Q 1206 -91 781 400 
Q 353 888 353 1747 
Q 353 2613 781 3097 
Q 1134 3500 1959 3500 
z
" transform="scale(0.015625)"/>
     </defs>
     <use xlink:href="#DejaVuSans-3bc"/>
     <use xlink:href="#DejaVuSans-3d" x="63.623047"/>
     <use xlink:href="#DejaVuSans-30" x="147.412109"/>
     <use xlink:href="#DejaVuSans-20" x="211.035156"/>
     <use xlink:href="#DejaVuSans-3c3" x="242.822266"/>
     <use xlink:href="#DejaVuSans-3d" x="306.201172"/>
     <use xlink:href="#DejaVuSans-30" x="389.990234"/>
    </g>
   </g>
   <g id="text_16">
    <!-- =0 =0 -->
    <g style="fill: #7f2704" transform="translate(80.592112 85.449155)scale(0.08 -0.08)">
     <use xlink:href="#DejaVuSans-3bc"/>
     <use xlink:href="#DejaVuSans-3d" x="63.623047"/>
     <use xlink:href="#DejaVuSans-30" x="147.412109"/>
     <use xlink:href="#DejaVuSans-20" x="211.035156"/>
     <use xlink:href="#DejaVuSans-3c3" x="242.822266"/>
     <use xlink:href="#DejaVuSans-3d" x="306.201172"/>
     <use xlink:href="#DejaVuSans-30" x="389.990234"/>
    </g>
   </g>
   <g id="text_17">
    <!-- =7.5 =2 -->
    <g style="fill: #08306b" transform="translate(72.959612 173.126983)scale(0.08 -0.08)">
     <defs>
      <path id="DejaVuSans-37" d="M 525 4666 
L 3525 4666 
L 3525 4397 
L 1831 0 
L 1172 0 
L 2766 4134 
L 525 4134 
L 525 4666 
z
" transform="scale(0.015625)"/>
      <path id="DejaVuSans-2e" d="M 684 794 
L 1344 794 
L 1344 0 
L 684 0 
L 684 794 
z
" transform="scale(0.015625)"/>
      <path id="DejaVuSans-35" d="M 691 4666 
L 3169 4666 
L 3169 4134 
L 1269 4134 
L 1269 2991 
Q 1406 3038 1543 3061 
Q 1681 3084 1819 3084 
Q 2600 3084 3056 2656 
Q 3513 2228 3513 1497 
Q 3513 744 3044 326 
Q 2575 -91 1722 -91 
Q 1428 -91 1123 -41 
Q 819 9 494 109 
L 494 744 
Q 775 591 1075 516 
Q 1375 441 1709 441 
Q 2250 441 2565 725 
Q 2881 1009 2881 1497 
Q 2881 1984 2565 2268 
Q 2250 2553 1709 2553 
Q 1456 2553 1204 2497 
Q 953 2441 691 2322 
L 691 4666 
z
" transform="scale(0.015625)"/>
     </defs>
     <use xlink:href="#DejaVuSans-3bc"/>
     <use xlink:href="#DejaVuSans-3d" x="63.623047"/>
     <use xlink:href="#DejaVuSans-37" x="147.412109"/>
     <use xlink:href="#DejaVuSans-2e" x="211.035156"/>
     <use xlink:href="#DejaVuSans-35" x="242.822266"/>
     <use xlink:href="#DejaVuSans-20" x="306.445312"/>
     <use xlink:href="#DejaVuSans-3c3" x="338.232422"/>
     <use xlink:href="#DejaVuSans-3d" x="401.611328"/>
     <use xlink:href="#DejaVuSans-32" x="485.400391"/>
    </g>
   </g>
   <g id="text_18">
    <!-- =7.5 =2 -->
    <g style="fill: #7f2704" transform="translate(72.959612 183.823203)scale(0.08 -0.08)">
     <use xlink:href="#DejaVuSans-3bc"/>
     <use xlink:href="#DejaVuSans-3d" x="63.623047"/>
     <use xlink:href="#DejaVuSans-37" x="147.412109"/>
     <use xlink:href="#DejaVuSans-2e" x="211.035156"/>
     <use xlink:href="#DejaVuSans-35" x="242.822266"/>
     <use xlink:href="#DejaVuSans-20" x="306.445312"/>
     <use xlink:href="#DejaVuSans-3c3" x="338.232422"/>
     <use xlink:href="#DejaVuSans-3d" x="401.611328"/>
     <use xlink:href="#DejaVuSans-32" x="485.400391"/>
    </g>
   </g>
   <g id="text_19">
    <!-- =0 =2 -->
    <g style="fill: #08306b" transform="translate(80.592112 150.033956)scale(0.08 -0.08)">
     <use xlink:href="#DejaVuSans-3bc"/>
     <use xlink:href="#DejaVuSans-3d" x="63.623047"/>
     <use xlink:href="#DejaVuSans-30" x="147.412109"/>
     <use xlink:href="#DejaVuSans-20" x="211.035156"/>
     <use xlink:href="#DejaVuSans-3c3" x="242.822266"/>
     <use xlink:href="#DejaVuSans-3d" x="306.201172"/>
     <use xlink:href="#DejaVuSans-32" x="389.990234"/>
    </g>
   </g>
   <g id="text_20">
    <!-- =0 =2 -->
    <g style="fill: #7f2704" transform="translate(80.592112 154.67358)scale(0.08 -0.08)">
     <use xlink:href="#DejaVuSans-3bc"/>
     <use xlink:href="#DejaVuSans-3d" x="63.623047"/>
     <use xlink:href="#DejaVuSans-30" x="147.412109"/>
     <use xlink:href="#DejaVuSans-20" x="211.035156"/>
     <use xlink:href="#DejaVuSans-3c3" x="242.822266"/>
     <use xlink:href="#DejaVuSans-3d" x="306.201172"/>
     <use xlink:href="#DejaVuSans-32" x="389.990234"/>
    </g>
   </g>
   <g id="text_21">
    <!-- =7.5 =0 -->
    <g style="fill: #08306b" transform="translate(72.959612 123.50255)scale(0.08 -0.08)">
     <use xlink:href="#DejaVuSans-3bc"/>
     <use xlink:href="#DejaVuSans-3d" x="63.623047"/>
     <use xlink:href="#DejaVuSans-37" x="147.412109"/>
     <use xlink:href="#DejaVuSans-2e" x="211.035156"/>
     <use xlink:href="#DejaVuSans-35" x="242.822266"/>
     <use xlink:href="#DejaVuSans-20" x="306.445312"/>
     <use xlink:href="#DejaVuSans-3c3" x="338.232422"/>
     <use xlink:href="#DejaVuSans-3d" x="401.611328"/>
     <use xlink:href="#DejaVuSans-30" x="485.400391"/>
    </g>
   </g>
   <g id="text_22">
    <!-- =7.5 =0 -->
    <g style="fill: #7f2704" transform="translate(72.959612 141.148376)scale(0.08 -0.08)">
     <use xlink:href="#DejaVuSans-3bc"/>
     <use xlink:href="#DejaVuSans-3d" x="63.623047"/>
     <use xlink:href="#DejaVuSans-37" x="147.412109"/>
     <use xlink:href="#DejaVuSans-2e" x="211.035156"/>
     <use xlink:href="#DejaVuSans-35" x="242.822266"/>
     <use xlink:href="#DejaVuSans-20" x="306.445312"/>
     <use xlink:href="#DejaVuSans-3c3" x="338.232422"/>
     <use xlink:href="#DejaVuSans-3d" x="401.611328"/>
     <use xlink:href="#DejaVuSans-30" x="485.400391"/>
    </g>
   </g>
   <g id="legend_1">
    <g id="patch_7">
     <path d="M 438.265625 81.9125 
L 607.00625 81.9125 
Q 611.00625 81.9125 611.00625 77.9125 
L 611.00625 21.2 
Q 611.00625 17.2 607.00625 17.2 
L 438.265625 17.2 
Q 434.265625 17.2 434.265625 21.2 
L 434.265625 77.9125 
Q 434.265625 81.9125 438.265625 81.9125 
z
" style="fill: #ffffff; opacity: 0.8; stroke: #cccccc; stroke-linejoin: miter"/>
    </g>
    <g id="LineCollection_9">
     <path d="M 462.265625 43.396875 
L 462.265625 23.396875 
" style="fill: none; stroke: #60a7d2"/>
    </g>
    <g id="line2d_33">
     <path d="M 442.265625 33.396875 
L 482.265625 33.396875 
" style="fill: none; stroke: #60a7d2; stroke-width: 3; stroke-linecap: square"/>
    </g>
    <g id="line2d_34">
     <g>
      <use xlink:href="#m67154173f6" x="462.265625" y="33.396875" style="fill: #60a7d2; stroke: #60a7d2"/>
     </g>
    </g>
    <g id="text_23">
     <!-- Amblyopic -->
     <g transform="translate(498.265625 40.396875)scale(0.2 -0.2)">
      <defs>
       <path id="DejaVuSans-41" d="M 2188 4044 
L 1331 1722 
L 3047 1722 
L 2188 4044 
z
M 1831 4666 
L 2547 4666 
L 4325 0 
L 3669 0 
L 3244 1197 
L 1141 1197 
L 716 0 
L 50 0 
L 1831 4666 
z
" transform="scale(0.015625)"/>
       <path id="DejaVuSans-62" d="M 3116 1747 
Q 3116 2381 2855 2742 
Q 2594 3103 2138 3103 
Q 1681 3103 1420 2742 
Q 1159 2381 1159 1747 
Q 1159 1113 1420 752 
Q 1681 391 2138 391 
Q 2594 391 2855 752 
Q 3116 1113 3116 1747 
z
M 1159 2969 
Q 1341 3281 1617 3432 
Q 1894 3584 2278 3584 
Q 2916 3584 3314 3078 
Q 3713 2572 3713 1747 
Q 3713 922 3314 415 
Q 2916 -91 2278 -91 
Q 1894 -91 1617 61 
Q 1341 213 1159 525 
L 1159 0 
L 581 0 
L 581 4863 
L 1159 4863 
L 1159 2969 
z
" transform="scale(0.015625)"/>
       <path id="DejaVuSans-79" d="M 2059 -325 
Q 1816 -950 1584 -1140 
Q 1353 -1331 966 -1331 
L 506 -1331 
L 506 -850 
L 844 -850 
Q 1081 -850 1212 -737 
Q 1344 -625 1503 -206 
L 1606 56 
L 191 3500 
L 800 3500 
L 1894 763 
L 2988 3500 
L 3597 3500 
L 2059 -325 
z
" transform="scale(0.015625)"/>
       <path id="DejaVuSans-63" d="M 3122 3366 
L 3122 2828 
Q 2878 2963 2633 3030 
Q 2388 3097 2138 3097 
Q 1578 3097 1268 2742 
Q 959 2388 959 1747 
Q 959 1106 1268 751 
Q 1578 397 2138 397 
Q 2388 397 2633 464 
Q 2878 531 3122 666 
L 3122 134 
Q 2881 22 2623 -34 
Q 2366 -91 2075 -91 
Q 1284 -91 818 406 
Q 353 903 353 1747 
Q 353 2603 823 3093 
Q 1294 3584 2113 3584 
Q 2378 3584 2631 3529 
Q 2884 3475 3122 3366 
z
" transform="scale(0.015625)"/>
      </defs>
      <use xlink:href="#DejaVuSans-41"/>
      <use xlink:href="#DejaVuSans-6d" x="68.408203"/>
      <use xlink:href="#DejaVuSans-62" x="165.820312"/>
      <use xlink:href="#DejaVuSans-6c" x="229.296875"/>
      <use xlink:href="#DejaVuSans-79" x="257.080078"/>
      <use xlink:href="#DejaVuSans-6f" x="316.259766"/>
      <use xlink:href="#DejaVuSans-70" x="377.441406"/>
      <use xlink:href="#DejaVuSans-69" x="440.917969"/>
      <use xlink:href="#DejaVuSans-63" x="468.701172"/>
     </g>
    </g>
    <g id="LineCollection_10">
     <path d="M 462.265625 72.753125 
L 462.265625 52.753125 
" style="fill: none; stroke: #fa8331"/>
    </g>
    <g id="line2d_35">
     <path d="M 442.265625 62.753125 
L 482.265625 62.753125 
" style="fill: none; stroke: #fa8331; stroke-width: 3; stroke-linecap: square"/>
    </g>
    <g id="line2d_36">
     <g>
      <use xlink:href="#md93bed08cf" x="462.265625" y="62.753125" style="fill: #fa8331; stroke: #fa8331; stroke-linejoin: miter"/>
     </g>
    </g>
    <g id="text_24">
     <!-- Fellow -->
     <g transform="translate(498.265625 69.753125)scale(0.2 -0.2)">
      <defs>
       <path id="DejaVuSans-46" d="M 628 4666 
L 3309 4666 
L 3309 4134 
L 1259 4134 
L 1259 2759 
L 3109 2759 
L 3109 2228 
L 1259 2228 
L 1259 0 
L 628 0 
L 628 4666 
z
" transform="scale(0.015625)"/>
       <path id="DejaVuSans-77" d="M 269 3500 
L 844 3500 
L 1563 769 
L 2278 3500 
L 2956 3500 
L 3675 769 
L 4391 3500 
L 4966 3500 
L 4050 0 
L 3372 0 
L 2619 2869 
L 1863 0 
L 1184 0 
L 269 3500 
z
" transform="scale(0.015625)"/>
      </defs>
      <use xlink:href="#DejaVuSans-46"/>
      <use xlink:href="#DejaVuSans-65" x="52.019531"/>
      <use xlink:href="#DejaVuSans-6c" x="113.542969"/>
      <use xlink:href="#DejaVuSans-6c" x="141.326172"/>
      <use xlink:href="#DejaVuSans-6f" x="169.109375"/>
      <use xlink:href="#DejaVuSans-77" x="230.291016"/>
     </g>
    </g>
   </g>
  </g>
 </g>
 <defs>
  <clipPath id="pd45d75ebba">
   <rect x="63.00625" y="7.2" width="558" height="443.52"/>
  </clipPath>
 </defs>
</svg>
