<?xml version="1.0" encoding="utf-8" standalone="no"?>
<!DOCTYPE svg PUBLIC "-//W3C//DTD SVG 1.1//EN"
  "http://www.w3.org/Graphics/SVG/1.1/DTD/svg11.dtd">
<svg xmlns:xlink="http://www.w3.org/1999/xlink" width="628.20625pt" height="507.67625pt" viewBox="0 0 628.20625 507.67625" xmlns="http://www.w3.org/2000/svg" version="1.1">
 <metadata>
  <rdf:RDF xmlns:dc="http://purl.org/dc/elements/1.1/" xmlns:cc="http://creativecommons.org/ns#" xmlns:rdf="http://www.w3.org/1999/02/22-rdf-syntax-ns#">
   <cc:Work>
    <dc:type rdf:resource="http://purl.org/dc/dcmitype/StillImage"/>
    <dc:date>2023-06-12T08:48:08.858632</dc:date>
    <dc:format>image/svg+xml</dc:format>
    <dc:creator>
     <cc:Agent>
      <dc:title>Matplotlib v3.5.2, https://matplotlib.org/</dc:title>
     </cc:Agent>
    </dc:creator>
   </cc:Work>
  </rdf:RDF>
 </metadata>
 <defs>
  <style type="text/css">*{stroke-linejoin: round; stroke-linecap: butt}</style>
 </defs>
 <g id="figure_1">
  <g id="patch_1">
   <path d="M 0 507.67625 
L 628.20625 507.67625 
L 628.20625 0 
L 0 0 
z
" style="fill: #ffffff"/>
  </g>
  <g id="axes_1">
   <g id="patch_2">
    <path d="M 63.00625 450.72 
L 621.00625 450.72 
L 621.00625 7.2 
L 63.00625 7.2 
z
" style="fill: #ffffff"/>
   </g>
   <g id="matplotlib.axis_1">
    <g id="xtick_1">
     <g id="line2d_1">
      <path d="M 88.369886 450.72 
L 88.369886 7.2 
" clip-path="url(#p353e713cb2)" style="fill: none; stroke: #b0b0b0; stroke-width: 0.8; stroke-linecap: square"/>
     </g>
     <g id="line2d_2">
      <defs>
       <path id="m834f609c8a" d="M 0 0 
L 0 3.5 
" style="stroke: #000000; stroke-width: 0.8"/>
      </defs>
      <g>
       <use xlink:href="#m834f609c8a" x="88.369886" y="450.72" style="stroke: #000000; stroke-width: 0.8"/>
      </g>
     </g>
     <g id="text_1">
      <!-- 0.0 -->
      <g transform="translate(72.466761 472.916875)scale(0.2 -0.2)">
       <defs>
        <path id="DejaVuSans-30" d="M 2034 4250 
Q 1547 4250 1301 3770 
Q 1056 3291 1056 2328 
Q 1056 1369 1301 889 
Q 1547 409 2034 409 
Q 2525 409 2770 889 
Q 3016 1369 3016 2328 
Q 3016 3291 2770 3770 
Q 2525 4250 2034 4250 
z
M 2034 4750 
Q 2819 4750 3233 4129 
Q 3647 3509 3647 2328 
Q 3647 1150 3233 529 
Q 2819 -91 2034 -91 
Q 1250 -91 836 529 
Q 422 1150 422 2328 
Q 422 3509 836 4129 
Q 1250 4750 2034 4750 
z
" transform="scale(0.015625)"/>
        <path id="DejaVuSans-2e" d="M 684 794 
L 1344 794 
L 1344 0 
L 684 0 
L 684 794 
z
" transform="scale(0.015625)"/>
       </defs>
       <use xlink:href="#DejaVuSans-30"/>
       <use xlink:href="#DejaVuSans-2e" x="63.623047"/>
       <use xlink:href="#DejaVuSans-30" x="95.410156"/>
      </g>
     </g>
    </g>
    <g id="xtick_2">
     <g id="line2d_3">
      <path d="M 151.778977 450.72 
L 151.778977 7.2 
" clip-path="url(#p353e713cb2)" style="fill: none; stroke: #b0b0b0; stroke-width: 0.8; stroke-linecap: square"/>
     </g>
     <g id="line2d_4">
      <g>
       <use xlink:href="#m834f609c8a" x="151.778977" y="450.72" style="stroke: #000000; stroke-width: 0.8"/>
      </g>
     </g>
     <g id="text_2">
      <!-- 2.5 -->
      <g transform="translate(135.875852 472.916875)scale(0.2 -0.2)">
       <defs>
        <path id="DejaVuSans-32" d="M 1228 531 
L 3431 531 
L 3431 0 
L 469 0 
L 469 531 
Q 828 903 1448 1529 
Q 2069 2156 2228 2338 
Q 2531 2678 2651 2914 
Q 2772 3150 2772 3378 
Q 2772 3750 2511 3984 
Q 2250 4219 1831 4219 
Q 1534 4219 1204 4116 
Q 875 4013 500 3803 
L 500 4441 
Q 881 4594 1212 4672 
Q 1544 4750 1819 4750 
Q 2544 4750 2975 4387 
Q 3406 4025 3406 3419 
Q 3406 3131 3298 2873 
Q 3191 2616 2906 2266 
Q 2828 2175 2409 1742 
Q 1991 1309 1228 531 
z
" transform="scale(0.015625)"/>
        <path id="DejaVuSans-35" d="M 691 4666 
L 3169 4666 
L 3169 4134 
L 1269 4134 
L 1269 2991 
Q 1406 3038 1543 3061 
Q 1681 3084 1819 3084 
Q 2600 3084 3056 2656 
Q 3513 2228 3513 1497 
Q 3513 744 3044 326 
Q 2575 -91 1722 -91 
Q 1428 -91 1123 -41 
Q 819 9 494 109 
L 494 744 
Q 775 591 1075 516 
Q 1375 441 1709 441 
Q 2250 441 2565 725 
Q 2881 1009 2881 1497 
Q 2881 1984 2565 2268 
Q 2250 2553 1709 2553 
Q 1456 2553 1204 2497 
Q 953 2441 691 2322 
L 691 4666 
z
" transform="scale(0.015625)"/>
       </defs>
       <use xlink:href="#DejaVuSans-32"/>
       <use xlink:href="#DejaVuSans-2e" x="63.623047"/>
       <use xlink:href="#DejaVuSans-35" x="95.410156"/>
      </g>
     </g>
    </g>
    <g id="xtick_3">
     <g id="line2d_5">
      <path d="M 215.188068 450.72 
L 215.188068 7.2 
" clip-path="url(#p353e713cb2)" style="fill: none; stroke: #b0b0b0; stroke-width: 0.8; stroke-linecap: square"/>
     </g>
     <g id="line2d_6">
      <g>
       <use xlink:href="#m834f609c8a" x="215.188068" y="450.72" style="stroke: #000000; stroke-width: 0.8"/>
      </g>
     </g>
     <g id="text_3">
      <!-- 5.0 -->
      <g transform="translate(199.284943 472.916875)scale(0.2 -0.2)">
       <use xlink:href="#DejaVuSans-35"/>
       <use xlink:href="#DejaVuSans-2e" x="63.623047"/>
       <use xlink:href="#DejaVuSans-30" x="95.410156"/>
      </g>
     </g>
    </g>
    <g id="xtick_4">
     <g id="line2d_7">
      <path d="M 278.597159 450.72 
L 278.597159 7.2 
" clip-path="url(#p353e713cb2)" style="fill: none; stroke: #b0b0b0; stroke-width: 0.8; stroke-linecap: square"/>
     </g>
     <g id="line2d_8">
      <g>
       <use xlink:href="#m834f609c8a" x="278.597159" y="450.72" style="stroke: #000000; stroke-width: 0.8"/>
      </g>
     </g>
     <g id="text_4">
      <!-- 7.5 -->
      <g transform="translate(262.694034 472.916875)scale(0.2 -0.2)">
       <defs>
        <path id="DejaVuSans-37" d="M 525 4666 
L 3525 4666 
L 3525 4397 
L 1831 0 
L 1172 0 
L 2766 4134 
L 525 4134 
L 525 4666 
z
" transform="scale(0.015625)"/>
       </defs>
       <use xlink:href="#DejaVuSans-37"/>
       <use xlink:href="#DejaVuSans-2e" x="63.623047"/>
       <use xlink:href="#DejaVuSans-35" x="95.410156"/>
      </g>
     </g>
    </g>
    <g id="xtick_5">
     <g id="line2d_9">
      <path d="M 342.00625 450.72 
L 342.00625 7.2 
" clip-path="url(#p353e713cb2)" style="fill: none; stroke: #b0b0b0; stroke-width: 0.8; stroke-linecap: square"/>
     </g>
     <g id="line2d_10">
      <g>
       <use xlink:href="#m834f609c8a" x="342.00625" y="450.72" style="stroke: #000000; stroke-width: 0.8"/>
      </g>
     </g>
     <g id="text_5">
      <!-- 10.0 -->
      <g transform="translate(319.740625 472.916875)scale(0.2 -0.2)">
       <defs>
        <path id="DejaVuSans-31" d="M 794 531 
L 1825 531 
L 1825 4091 
L 703 3866 
L 703 4441 
L 1819 4666 
L 2450 4666 
L 2450 531 
L 3481 531 
L 3481 0 
L 794 0 
L 794 531 
z
" transform="scale(0.015625)"/>
       </defs>
       <use xlink:href="#DejaVuSans-31"/>
       <use xlink:href="#DejaVuSans-30" x="63.623047"/>
       <use xlink:href="#DejaVuSans-2e" x="127.246094"/>
       <use xlink:href="#DejaVuSans-30" x="159.033203"/>
      </g>
     </g>
    </g>
    <g id="xtick_6">
     <g id="line2d_11">
      <path d="M 405.415341 450.72 
L 405.415341 7.2 
" clip-path="url(#p353e713cb2)" style="fill: none; stroke: #b0b0b0; stroke-width: 0.8; stroke-linecap: square"/>
     </g>
     <g id="line2d_12">
      <g>
       <use xlink:href="#m834f609c8a" x="405.415341" y="450.72" style="stroke: #000000; stroke-width: 0.8"/>
      </g>
     </g>
     <g id="text_6">
      <!-- 12.5 -->
      <g transform="translate(383.149716 472.916875)scale(0.2 -0.2)">
       <use xlink:href="#DejaVuSans-31"/>
       <use xlink:href="#DejaVuSans-32" x="63.623047"/>
       <use xlink:href="#DejaVuSans-2e" x="127.246094"/>
       <use xlink:href="#DejaVuSans-35" x="159.033203"/>
      </g>
     </g>
    </g>
    <g id="xtick_7">
     <g id="line2d_13">
      <path d="M 468.824432 450.72 
L 468.824432 7.2 
" clip-path="url(#p353e713cb2)" style="fill: none; stroke: #b0b0b0; stroke-width: 0.8; stroke-linecap: square"/>
     </g>
     <g id="line2d_14">
      <g>
       <use xlink:href="#m834f609c8a" x="468.824432" y="450.72" style="stroke: #000000; stroke-width: 0.8"/>
      </g>
     </g>
     <g id="text_7">
      <!-- 15.0 -->
      <g transform="translate(446.558807 472.916875)scale(0.2 -0.2)">
       <use xlink:href="#DejaVuSans-31"/>
       <use xlink:href="#DejaVuSans-35" x="63.623047"/>
       <use xlink:href="#DejaVuSans-2e" x="127.246094"/>
       <use xlink:href="#DejaVuSans-30" x="159.033203"/>
      </g>
     </g>
    </g>
    <g id="xtick_8">
     <g id="line2d_15">
      <path d="M 532.233523 450.72 
L 532.233523 7.2 
" clip-path="url(#p353e713cb2)" style="fill: none; stroke: #b0b0b0; stroke-width: 0.8; stroke-linecap: square"/>
     </g>
     <g id="line2d_16">
      <g>
       <use xlink:href="#m834f609c8a" x="532.233523" y="450.72" style="stroke: #000000; stroke-width: 0.8"/>
      </g>
     </g>
     <g id="text_8">
      <!-- 17.5 -->
      <g transform="translate(509.967898 472.916875)scale(0.2 -0.2)">
       <use xlink:href="#DejaVuSans-31"/>
       <use xlink:href="#DejaVuSans-37" x="63.623047"/>
       <use xlink:href="#DejaVuSans-2e" x="127.246094"/>
       <use xlink:href="#DejaVuSans-35" x="159.033203"/>
      </g>
     </g>
    </g>
    <g id="xtick_9">
     <g id="line2d_17">
      <path d="M 595.642614 450.72 
L 595.642614 7.2 
" clip-path="url(#p353e713cb2)" style="fill: none; stroke: #b0b0b0; stroke-width: 0.8; stroke-linecap: square"/>
     </g>
     <g id="line2d_18">
      <g>
       <use xlink:href="#m834f609c8a" x="595.642614" y="450.72" style="stroke: #000000; stroke-width: 0.8"/>
      </g>
     </g>
     <g id="text_9">
      <!-- 20.0 -->
      <g transform="translate(573.376989 472.916875)scale(0.2 -0.2)">
       <use xlink:href="#DejaVuSans-32"/>
       <use xlink:href="#DejaVuSans-30" x="63.623047"/>
       <use xlink:href="#DejaVuSans-2e" x="127.246094"/>
       <use xlink:href="#DejaVuSans-30" x="159.033203"/>
      </g>
     </g>
    </g>
    <g id="text_10">
     <!-- $\mu_c$ [pixels] -->
     <g transform="translate(291.30625 496.27625)scale(0.2 -0.2)">
      <defs>
       <path id="DejaVuSans-Oblique-3bc" d="M -84 -1331 
L 856 3500 
L 1434 3500 
L 1009 1322 
Q 997 1256 987 1175 
Q 978 1094 978 1013 
Q 978 722 1161 565 
Q 1344 409 1684 409 
Q 2147 409 2431 671 
Q 2716 934 2816 1459 
L 3213 3500 
L 3788 3500 
L 3266 809 
Q 3253 750 3248 706 
Q 3244 663 3244 628 
Q 3244 531 3283 486 
Q 3322 441 3406 441 
Q 3438 441 3492 456 
Q 3547 472 3647 513 
L 3559 50 
Q 3422 -19 3297 -55 
Q 3172 -91 3053 -91 
Q 2847 -91 2730 40 
Q 2613 172 2613 403 
Q 2438 153 2195 31 
Q 1953 -91 1625 -91 
Q 1334 -91 1117 43 
Q 900 178 831 397 
L 494 -1331 
L -84 -1331 
z
" transform="scale(0.015625)"/>
       <path id="DejaVuSans-Oblique-63" d="M 3431 3366 
L 3316 2797 
Q 3109 2947 2876 3022 
Q 2644 3097 2394 3097 
Q 2119 3097 1870 3000 
Q 1622 2903 1453 2725 
Q 1184 2453 1037 2087 
Q 891 1722 891 1331 
Q 891 859 1127 628 
Q 1363 397 1844 397 
Q 2081 397 2348 469 
Q 2616 541 2906 684 
L 2797 116 
Q 2547 13 2283 -39 
Q 2019 -91 1741 -91 
Q 1044 -91 669 257 
Q 294 606 294 1253 
Q 294 1797 489 2255 
Q 684 2713 1069 3078 
Q 1331 3328 1684 3456 
Q 2038 3584 2456 3584 
Q 2700 3584 2940 3529 
Q 3181 3475 3431 3366 
z
" transform="scale(0.015625)"/>
       <path id="DejaVuSans-20" transform="scale(0.015625)"/>
       <path id="DejaVuSans-5b" d="M 550 4863 
L 1875 4863 
L 1875 4416 
L 1125 4416 
L 1125 -397 
L 1875 -397 
L 1875 -844 
L 550 -844 
L 550 4863 
z
" transform="scale(0.015625)"/>
       <path id="DejaVuSans-70" d="M 1159 525 
L 1159 -1331 
L 581 -1331 
L 581 3500 
L 1159 3500 
L 1159 2969 
Q 1341 3281 1617 3432 
Q 1894 3584 2278 3584 
Q 2916 3584 3314 3078 
Q 3713 2572 3713 1747 
Q 3713 922 3314 415 
Q 2916 -91 2278 -91 
Q 1894 -91 1617 61 
Q 1341 213 1159 525 
z
M 3116 1747 
Q 3116 2381 2855 2742 
Q 2594 3103 2138 3103 
Q 1681 3103 1420 2742 
Q 1159 2381 1159 1747 
Q 1159 1113 1420 752 
Q 1681 391 2138 391 
Q 2594 391 2855 752 
Q 3116 1113 3116 1747 
z
" transform="scale(0.015625)"/>
       <path id="DejaVuSans-69" d="M 603 3500 
L 1178 3500 
L 1178 0 
L 603 0 
L 603 3500 
z
M 603 4863 
L 1178 4863 
L 1178 4134 
L 603 4134 
L 603 4863 
z
" transform="scale(0.015625)"/>
       <path id="DejaVuSans-78" d="M 3513 3500 
L 2247 1797 
L 3578 0 
L 2900 0 
L 1881 1375 
L 863 0 
L 184 0 
L 1544 1831 
L 300 3500 
L 978 3500 
L 1906 2253 
L 2834 3500 
L 3513 3500 
z
" transform="scale(0.015625)"/>
       <path id="DejaVuSans-65" d="M 3597 1894 
L 3597 1613 
L 953 1613 
Q 991 1019 1311 708 
Q 1631 397 2203 397 
Q 2534 397 2845 478 
Q 3156 559 3463 722 
L 3463 178 
Q 3153 47 2828 -22 
Q 2503 -91 2169 -91 
Q 1331 -91 842 396 
Q 353 884 353 1716 
Q 353 2575 817 3079 
Q 1281 3584 2069 3584 
Q 2775 3584 3186 3129 
Q 3597 2675 3597 1894 
z
M 3022 2063 
Q 3016 2534 2758 2815 
Q 2500 3097 2075 3097 
Q 1594 3097 1305 2825 
Q 1016 2553 972 2059 
L 3022 2063 
z
" transform="scale(0.015625)"/>
       <path id="DejaVuSans-6c" d="M 603 4863 
L 1178 4863 
L 1178 0 
L 603 0 
L 603 4863 
z
" transform="scale(0.015625)"/>
       <path id="DejaVuSans-73" d="M 2834 3397 
L 2834 2853 
Q 2591 2978 2328 3040 
Q 2066 3103 1784 3103 
Q 1356 3103 1142 2972 
Q 928 2841 928 2578 
Q 928 2378 1081 2264 
Q 1234 2150 1697 2047 
L 1894 2003 
Q 2506 1872 2764 1633 
Q 3022 1394 3022 966 
Q 3022 478 2636 193 
Q 2250 -91 1575 -91 
Q 1294 -91 989 -36 
Q 684 19 347 128 
L 347 722 
Q 666 556 975 473 
Q 1284 391 1588 391 
Q 1994 391 2212 530 
Q 2431 669 2431 922 
Q 2431 1156 2273 1281 
Q 2116 1406 1581 1522 
L 1381 1569 
Q 847 1681 609 1914 
Q 372 2147 372 2553 
Q 372 3047 722 3315 
Q 1072 3584 1716 3584 
Q 2034 3584 2315 3537 
Q 2597 3491 2834 3397 
z
" transform="scale(0.015625)"/>
       <path id="DejaVuSans-5d" d="M 1947 4863 
L 1947 -844 
L 622 -844 
L 622 -397 
L 1369 -397 
L 1369 4416 
L 622 4416 
L 622 4863 
L 1947 4863 
z
" transform="scale(0.015625)"/>
      </defs>
      <use xlink:href="#DejaVuSans-Oblique-3bc" transform="translate(0 0.015625)"/>
      <use xlink:href="#DejaVuSans-Oblique-63" transform="translate(63.623047 -16.390625)scale(0.7)"/>
      <use xlink:href="#DejaVuSans-20" transform="translate(104.84375 0.015625)"/>
      <use xlink:href="#DejaVuSans-5b" transform="translate(136.630859 0.015625)"/>
      <use xlink:href="#DejaVuSans-70" transform="translate(175.644531 0.015625)"/>
      <use xlink:href="#DejaVuSans-69" transform="translate(239.121094 0.015625)"/>
      <use xlink:href="#DejaVuSans-78" transform="translate(266.904297 0.015625)"/>
      <use xlink:href="#DejaVuSans-65" transform="translate(326.083984 0.015625)"/>
      <use xlink:href="#DejaVuSans-6c" transform="translate(387.607422 0.015625)"/>
      <use xlink:href="#DejaVuSans-73" transform="translate(415.390625 0.015625)"/>
      <use xlink:href="#DejaVuSans-5d" transform="translate(467.490234 0.015625)"/>
     </g>
    </g>
   </g>
   <g id="matplotlib.axis_2">
    <g id="ytick_1">
     <g id="line2d_19">
      <path d="M 63.00625 429.767743 
L 621.00625 429.767743 
" clip-path="url(#p353e713cb2)" style="fill: none; stroke: #b0b0b0; stroke-width: 0.8; stroke-linecap: square"/>
     </g>
     <g id="line2d_20">
      <defs>
       <path id="m3d5a59f7dc" d="M 0 0 
L -3.5 0 
" style="stroke: #000000; stroke-width: 0.8"/>
      </defs>
      <g>
       <use xlink:href="#m3d5a59f7dc" x="63.00625" y="429.767743" style="stroke: #000000; stroke-width: 0.8"/>
      </g>
     </g>
     <g id="text_11">
      <!-- 0 -->
      <g transform="translate(43.28125 437.36618)scale(0.2 -0.2)">
       <use xlink:href="#DejaVuSans-30"/>
      </g>
     </g>
    </g>
    <g id="ytick_2">
     <g id="line2d_21">
      <path d="M 63.00625 376.619058 
L 621.00625 376.619058 
" clip-path="url(#p353e713cb2)" style="fill: none; stroke: #b0b0b0; stroke-width: 0.8; stroke-linecap: square"/>
     </g>
     <g id="line2d_22">
      <g>
       <use xlink:href="#m3d5a59f7dc" x="63.00625" y="376.619058" style="stroke: #000000; stroke-width: 0.8"/>
      </g>
     </g>
     <g id="text_12">
      <!-- 5 -->
      <g transform="translate(43.28125 384.217496)scale(0.2 -0.2)">
       <use xlink:href="#DejaVuSans-35"/>
      </g>
     </g>
    </g>
    <g id="ytick_3">
     <g id="line2d_23">
      <path d="M 63.00625 323.470374 
L 621.00625 323.470374 
" clip-path="url(#p353e713cb2)" style="fill: none; stroke: #b0b0b0; stroke-width: 0.8; stroke-linecap: square"/>
     </g>
     <g id="line2d_24">
      <g>
       <use xlink:href="#m3d5a59f7dc" x="63.00625" y="323.470374" style="stroke: #000000; stroke-width: 0.8"/>
      </g>
     </g>
     <g id="text_13">
      <!-- 10 -->
      <g transform="translate(30.55625 331.068812)scale(0.2 -0.2)">
       <use xlink:href="#DejaVuSans-31"/>
       <use xlink:href="#DejaVuSans-30" x="63.623047"/>
      </g>
     </g>
    </g>
    <g id="ytick_4">
     <g id="line2d_25">
      <path d="M 63.00625 270.32169 
L 621.00625 270.32169 
" clip-path="url(#p353e713cb2)" style="fill: none; stroke: #b0b0b0; stroke-width: 0.8; stroke-linecap: square"/>
     </g>
     <g id="line2d_26">
      <g>
       <use xlink:href="#m3d5a59f7dc" x="63.00625" y="270.32169" style="stroke: #000000; stroke-width: 0.8"/>
      </g>
     </g>
     <g id="text_14">
      <!-- 15 -->
      <g transform="translate(30.55625 277.920128)scale(0.2 -0.2)">
       <use xlink:href="#DejaVuSans-31"/>
       <use xlink:href="#DejaVuSans-35" x="63.623047"/>
      </g>
     </g>
    </g>
    <g id="ytick_5">
     <g id="line2d_27">
      <path d="M 63.00625 217.173006 
L 621.00625 217.173006 
" clip-path="url(#p353e713cb2)" style="fill: none; stroke: #b0b0b0; stroke-width: 0.8; stroke-linecap: square"/>
     </g>
     <g id="line2d_28">
      <g>
       <use xlink:href="#m3d5a59f7dc" x="63.00625" y="217.173006" style="stroke: #000000; stroke-width: 0.8"/>
      </g>
     </g>
     <g id="text_15">
      <!-- 20 -->
      <g transform="translate(30.55625 224.771444)scale(0.2 -0.2)">
       <use xlink:href="#DejaVuSans-32"/>
       <use xlink:href="#DejaVuSans-30" x="63.623047"/>
      </g>
     </g>
    </g>
    <g id="ytick_6">
     <g id="line2d_29">
      <path d="M 63.00625 164.024322 
L 621.00625 164.024322 
" clip-path="url(#p353e713cb2)" style="fill: none; stroke: #b0b0b0; stroke-width: 0.8; stroke-linecap: square"/>
     </g>
     <g id="line2d_30">
      <g>
       <use xlink:href="#m3d5a59f7dc" x="63.00625" y="164.024322" style="stroke: #000000; stroke-width: 0.8"/>
      </g>
     </g>
     <g id="text_16">
      <!-- 25 -->
      <g transform="translate(30.55625 171.62276)scale(0.2 -0.2)">
       <use xlink:href="#DejaVuSans-32"/>
       <use xlink:href="#DejaVuSans-35" x="63.623047"/>
      </g>
     </g>
    </g>
    <g id="ytick_7">
     <g id="line2d_31">
      <path d="M 63.00625 110.875638 
L 621.00625 110.875638 
" clip-path="url(#p353e713cb2)" style="fill: none; stroke: #b0b0b0; stroke-width: 0.8; stroke-linecap: square"/>
     </g>
     <g id="line2d_32">
      <g>
       <use xlink:href="#m3d5a59f7dc" x="63.00625" y="110.875638" style="stroke: #000000; stroke-width: 0.8"/>
      </g>
     </g>
     <g id="text_17">
      <!-- 30 -->
      <g transform="translate(30.55625 118.474075)scale(0.2 -0.2)">
       <defs>
        <path id="DejaVuSans-33" d="M 2597 2516 
Q 3050 2419 3304 2112 
Q 3559 1806 3559 1356 
Q 3559 666 3084 287 
Q 2609 -91 1734 -91 
Q 1441 -91 1130 -33 
Q 819 25 488 141 
L 488 750 
Q 750 597 1062 519 
Q 1375 441 1716 441 
Q 2309 441 2620 675 
Q 2931 909 2931 1356 
Q 2931 1769 2642 2001 
Q 2353 2234 1838 2234 
L 1294 2234 
L 1294 2753 
L 1863 2753 
Q 2328 2753 2575 2939 
Q 2822 3125 2822 3475 
Q 2822 3834 2567 4026 
Q 2313 4219 1838 4219 
Q 1578 4219 1281 4162 
Q 984 4106 628 3988 
L 628 4550 
Q 988 4650 1302 4700 
Q 1616 4750 1894 4750 
Q 2613 4750 3031 4423 
Q 3450 4097 3450 3541 
Q 3450 3153 3228 2886 
Q 3006 2619 2597 2516 
z
" transform="scale(0.015625)"/>
       </defs>
       <use xlink:href="#DejaVuSans-33"/>
       <use xlink:href="#DejaVuSans-30" x="63.623047"/>
      </g>
     </g>
    </g>
    <g id="ytick_8">
     <g id="line2d_33">
      <path d="M 63.00625 57.726954 
L 621.00625 57.726954 
" clip-path="url(#p353e713cb2)" style="fill: none; stroke: #b0b0b0; stroke-width: 0.8; stroke-linecap: square"/>
     </g>
     <g id="line2d_34">
      <g>
       <use xlink:href="#m3d5a59f7dc" x="63.00625" y="57.726954" style="stroke: #000000; stroke-width: 0.8"/>
      </g>
     </g>
     <g id="text_18">
      <!-- 35 -->
      <g transform="translate(30.55625 65.325391)scale(0.2 -0.2)">
       <use xlink:href="#DejaVuSans-33"/>
       <use xlink:href="#DejaVuSans-35" x="63.623047"/>
      </g>
     </g>
    </g>
    <g id="text_19">
     <!-- Maximum Response -->
     <g transform="translate(22.396875 329.438125)rotate(-90)scale(0.2 -0.2)">
      <defs>
       <path id="DejaVuSans-4d" d="M 628 4666 
L 1569 4666 
L 2759 1491 
L 3956 4666 
L 4897 4666 
L 4897 0 
L 4281 0 
L 4281 4097 
L 3078 897 
L 2444 897 
L 1241 4097 
L 1241 0 
L 628 0 
L 628 4666 
z
" transform="scale(0.015625)"/>
       <path id="DejaVuSans-61" d="M 2194 1759 
Q 1497 1759 1228 1600 
Q 959 1441 959 1056 
Q 959 750 1161 570 
Q 1363 391 1709 391 
Q 2188 391 2477 730 
Q 2766 1069 2766 1631 
L 2766 1759 
L 2194 1759 
z
M 3341 1997 
L 3341 0 
L 2766 0 
L 2766 531 
Q 2569 213 2275 61 
Q 1981 -91 1556 -91 
Q 1019 -91 701 211 
Q 384 513 384 1019 
Q 384 1609 779 1909 
Q 1175 2209 1959 2209 
L 2766 2209 
L 2766 2266 
Q 2766 2663 2505 2880 
Q 2244 3097 1772 3097 
Q 1472 3097 1187 3025 
Q 903 2953 641 2809 
L 641 3341 
Q 956 3463 1253 3523 
Q 1550 3584 1831 3584 
Q 2591 3584 2966 3190 
Q 3341 2797 3341 1997 
z
" transform="scale(0.015625)"/>
       <path id="DejaVuSans-6d" d="M 3328 2828 
Q 3544 3216 3844 3400 
Q 4144 3584 4550 3584 
Q 5097 3584 5394 3201 
Q 5691 2819 5691 2113 
L 5691 0 
L 5113 0 
L 5113 2094 
Q 5113 2597 4934 2840 
Q 4756 3084 4391 3084 
Q 3944 3084 3684 2787 
Q 3425 2491 3425 1978 
L 3425 0 
L 2847 0 
L 2847 2094 
Q 2847 2600 2669 2842 
Q 2491 3084 2119 3084 
Q 1678 3084 1418 2786 
Q 1159 2488 1159 1978 
L 1159 0 
L 581 0 
L 581 3500 
L 1159 3500 
L 1159 2956 
Q 1356 3278 1631 3431 
Q 1906 3584 2284 3584 
Q 2666 3584 2933 3390 
Q 3200 3197 3328 2828 
z
" transform="scale(0.015625)"/>
       <path id="DejaVuSans-75" d="M 544 1381 
L 544 3500 
L 1119 3500 
L 1119 1403 
Q 1119 906 1312 657 
Q 1506 409 1894 409 
Q 2359 409 2629 706 
Q 2900 1003 2900 1516 
L 2900 3500 
L 3475 3500 
L 3475 0 
L 2900 0 
L 2900 538 
Q 2691 219 2414 64 
Q 2138 -91 1772 -91 
Q 1169 -91 856 284 
Q 544 659 544 1381 
z
M 1991 3584 
L 1991 3584 
z
" transform="scale(0.015625)"/>
       <path id="DejaVuSans-52" d="M 2841 2188 
Q 3044 2119 3236 1894 
Q 3428 1669 3622 1275 
L 4263 0 
L 3584 0 
L 2988 1197 
Q 2756 1666 2539 1819 
Q 2322 1972 1947 1972 
L 1259 1972 
L 1259 0 
L 628 0 
L 628 4666 
L 2053 4666 
Q 2853 4666 3247 4331 
Q 3641 3997 3641 3322 
Q 3641 2881 3436 2590 
Q 3231 2300 2841 2188 
z
M 1259 4147 
L 1259 2491 
L 2053 2491 
Q 2509 2491 2742 2702 
Q 2975 2913 2975 3322 
Q 2975 3731 2742 3939 
Q 2509 4147 2053 4147 
L 1259 4147 
z
" transform="scale(0.015625)"/>
       <path id="DejaVuSans-6f" d="M 1959 3097 
Q 1497 3097 1228 2736 
Q 959 2375 959 1747 
Q 959 1119 1226 758 
Q 1494 397 1959 397 
Q 2419 397 2687 759 
Q 2956 1122 2956 1747 
Q 2956 2369 2687 2733 
Q 2419 3097 1959 3097 
z
M 1959 3584 
Q 2709 3584 3137 3096 
Q 3566 2609 3566 1747 
Q 3566 888 3137 398 
Q 2709 -91 1959 -91 
Q 1206 -91 779 398 
Q 353 888 353 1747 
Q 353 2609 779 3096 
Q 1206 3584 1959 3584 
z
" transform="scale(0.015625)"/>
       <path id="DejaVuSans-6e" d="M 3513 2113 
L 3513 0 
L 2938 0 
L 2938 2094 
Q 2938 2591 2744 2837 
Q 2550 3084 2163 3084 
Q 1697 3084 1428 2787 
Q 1159 2491 1159 1978 
L 1159 0 
L 581 0 
L 581 3500 
L 1159 3500 
L 1159 2956 
Q 1366 3272 1645 3428 
Q 1925 3584 2291 3584 
Q 2894 3584 3203 3211 
Q 3513 2838 3513 2113 
z
" transform="scale(0.015625)"/>
      </defs>
      <use xlink:href="#DejaVuSans-4d"/>
      <use xlink:href="#DejaVuSans-61" x="86.279297"/>
      <use xlink:href="#DejaVuSans-78" x="147.558594"/>
      <use xlink:href="#DejaVuSans-69" x="206.738281"/>
      <use xlink:href="#DejaVuSans-6d" x="234.521484"/>
      <use xlink:href="#DejaVuSans-75" x="331.933594"/>
      <use xlink:href="#DejaVuSans-6d" x="395.3125"/>
      <use xlink:href="#DejaVuSans-20" x="492.724609"/>
      <use xlink:href="#DejaVuSans-52" x="524.511719"/>
      <use xlink:href="#DejaVuSans-65" x="589.494141"/>
      <use xlink:href="#DejaVuSans-73" x="651.017578"/>
      <use xlink:href="#DejaVuSans-70" x="703.117188"/>
      <use xlink:href="#DejaVuSans-6f" x="766.59375"/>
      <use xlink:href="#DejaVuSans-6e" x="827.775391"/>
      <use xlink:href="#DejaVuSans-73" x="891.154297"/>
      <use xlink:href="#DejaVuSans-65" x="943.253906"/>
     </g>
    </g>
   </g>
   <g id="LineCollection_1">
    <path d="M 88.369886 417.402075 
L 88.369886 359.079525 
" clip-path="url(#p353e713cb2)" style="fill: none; stroke: #084285"/>
    <path d="M 113.733523 407.61728 
L 113.733523 296.247256 
" clip-path="url(#p353e713cb2)" style="fill: none; stroke: #084285"/>
    <path d="M 139.097159 386.283658 
L 139.097159 282.131311 
" clip-path="url(#p353e713cb2)" style="fill: none; stroke: #084285"/>
    <path d="M 164.460795 394.418877 
L 164.460795 276.28471 
" clip-path="url(#p353e713cb2)" style="fill: none; stroke: #084285"/>
    <path d="M 189.824432 398.544533 
L 189.824432 319.376106 
" clip-path="url(#p353e713cb2)" style="fill: none; stroke: #084285"/>
    <path d="M 215.188068 408.338798 
L 215.188068 294.59031 
" clip-path="url(#p353e713cb2)" style="fill: none; stroke: #084285"/>
    <path d="M 240.551705 414.759664 
L 240.551705 304.305208 
" clip-path="url(#p353e713cb2)" style="fill: none; stroke: #084285"/>
    <path d="M 265.915341 417.97265 
L 265.915341 311.748001 
" clip-path="url(#p353e713cb2)" style="fill: none; stroke: #084285"/>
    <path d="M 291.278977 413.470707 
L 291.278977 318.938435 
" clip-path="url(#p353e713cb2)" style="fill: none; stroke: #084285"/>
    <path d="M 316.642614 430.56 
L 316.642614 350.495893 
" clip-path="url(#p353e713cb2)" style="fill: none; stroke: #084285"/>
    <path d="M 342.00625 416.899697 
L 342.00625 323.398288 
" clip-path="url(#p353e713cb2)" style="fill: none; stroke: #084285"/>
    <path d="M 367.369886 428.332077 
L 367.369886 349.758942 
" clip-path="url(#p353e713cb2)" style="fill: none; stroke: #084285"/>
    <path d="M 392.733523 418.61806 
L 392.733523 358.448511 
" clip-path="url(#p353e713cb2)" style="fill: none; stroke: #084285"/>
    <path d="M 418.097159 425.595884 
L 418.097159 350.532453 
" clip-path="url(#p353e713cb2)" style="fill: none; stroke: #084285"/>
    <path d="M 443.460795 417.097451 
L 443.460795 353.146702 
" clip-path="url(#p353e713cb2)" style="fill: none; stroke: #084285"/>
    <path d="M 468.824432 422.962637 
L 468.824432 373.796475 
" clip-path="url(#p353e713cb2)" style="fill: none; stroke: #084285"/>
    <path d="M 494.188068 420.168823 
L 494.188068 383.071556 
" clip-path="url(#p353e713cb2)" style="fill: none; stroke: #084285"/>
    <path d="M 519.551705 418.691408 
L 519.551705 383.765914 
" clip-path="url(#p353e713cb2)" style="fill: none; stroke: #084285"/>
    <path d="M 544.915341 423.164272 
L 544.915341 379.220391 
" clip-path="url(#p353e713cb2)" style="fill: none; stroke: #084285"/>
    <path d="M 570.278977 414.514643 
L 570.278977 389.225134 
" clip-path="url(#p353e713cb2)" style="fill: none; stroke: #084285"/>
    <path d="M 595.642614 412.784278 
L 595.642614 350.356203 
" clip-path="url(#p353e713cb2)" style="fill: none; stroke: #084285"/>
   </g>
   <g id="LineCollection_2">
    <path d="M 88.369886 112.22359 
L 88.369886 34.563704 
" clip-path="url(#p353e713cb2)" style="fill: none; stroke: #942f03"/>
    <path d="M 113.733523 121.744879 
L 113.733523 39.259749 
" clip-path="url(#p353e713cb2)" style="fill: none; stroke: #942f03"/>
    <path d="M 139.097159 134.463621 
L 139.097159 46.532084 
" clip-path="url(#p353e713cb2)" style="fill: none; stroke: #942f03"/>
    <path d="M 164.460795 123.172536 
L 164.460795 36.123297 
" clip-path="url(#p353e713cb2)" style="fill: none; stroke: #942f03"/>
    <path d="M 189.824432 112.155229 
L 189.824432 34.309092 
" clip-path="url(#p353e713cb2)" style="fill: none; stroke: #942f03"/>
    <path d="M 215.188068 116.759257 
L 215.188068 36.340636 
" clip-path="url(#p353e713cb2)" style="fill: none; stroke: #942f03"/>
    <path d="M 240.551705 135.995711 
L 240.551705 52.790628 
" clip-path="url(#p353e713cb2)" style="fill: none; stroke: #942f03"/>
    <path d="M 265.915341 120.814487 
L 265.915341 43.207308 
" clip-path="url(#p353e713cb2)" style="fill: none; stroke: #942f03"/>
    <path d="M 291.278977 128.152185 
L 291.278977 48.636748 
" clip-path="url(#p353e713cb2)" style="fill: none; stroke: #942f03"/>
    <path d="M 316.642614 110.266331 
L 316.642614 32.118413 
" clip-path="url(#p353e713cb2)" style="fill: none; stroke: #942f03"/>
    <path d="M 342.00625 123.119228 
L 342.00625 34.39152 
" clip-path="url(#p353e713cb2)" style="fill: none; stroke: #942f03"/>
    <path d="M 367.369886 127.546396 
L 367.369886 52.040629 
" clip-path="url(#p353e713cb2)" style="fill: none; stroke: #942f03"/>
    <path d="M 392.733523 112.709829 
L 392.733523 27.36 
" clip-path="url(#p353e713cb2)" style="fill: none; stroke: #942f03"/>
    <path d="M 418.097159 122.161529 
L 418.097159 37.097843 
" clip-path="url(#p353e713cb2)" style="fill: none; stroke: #942f03"/>
    <path d="M 443.460795 122.371629 
L 443.460795 38.898142 
" clip-path="url(#p353e713cb2)" style="fill: none; stroke: #942f03"/>
    <path d="M 468.824432 122.525903 
L 468.824432 49.414909 
" clip-path="url(#p353e713cb2)" style="fill: none; stroke: #942f03"/>
    <path d="M 494.188068 122.815122 
L 494.188068 45.576963 
" clip-path="url(#p353e713cb2)" style="fill: none; stroke: #942f03"/>
    <path d="M 519.551705 125.782923 
L 519.551705 54.185712 
" clip-path="url(#p353e713cb2)" style="fill: none; stroke: #942f03"/>
    <path d="M 544.915341 134.99043 
L 544.915341 52.161379 
" clip-path="url(#p353e713cb2)" style="fill: none; stroke: #942f03"/>
    <path d="M 570.278977 129.161078 
L 570.278977 59.461472 
" clip-path="url(#p353e713cb2)" style="fill: none; stroke: #942f03"/>
    <path d="M 595.642614 165.598101 
L 595.642614 78.149215 
" clip-path="url(#p353e713cb2)" style="fill: none; stroke: #942f03"/>
   </g>
   <g id="line2d_35">
    <path d="M 88.369886 388.2408 
L 113.733523 351.932268 
L 139.097159 334.207484 
L 164.460795 335.351794 
L 189.824432 358.96032 
L 215.188068 351.464554 
L 240.551705 359.532436 
L 265.915341 364.860325 
L 291.278977 366.204571 
L 316.642614 390.527946 
L 342.00625 370.148992 
L 367.369886 389.045509 
L 392.733523 388.533286 
L 418.097159 388.064169 
L 443.460795 385.122077 
L 468.824432 398.379556 
L 494.188068 401.620189 
L 519.551705 401.228661 
L 544.915341 401.192331 
L 570.278977 401.869889 
L 595.642614 381.57024 
" clip-path="url(#p353e713cb2)" style="fill: none; stroke: #084285; stroke-width: 3; stroke-linecap: square"/>
    <defs>
     <path id="m22a65511d2" d="M 0 3 
C 0.795609 3 1.55874 2.683901 2.12132 2.12132 
C 2.683901 1.55874 3 0.795609 3 0 
C 3 -0.795609 2.683901 -1.55874 2.12132 -2.12132 
C 1.55874 -2.683901 0.795609 -3 0 -3 
C -0.795609 -3 -1.55874 -2.683901 -2.12132 -2.12132 
C -2.683901 -1.55874 -3 -0.795609 -3 0 
C -3 0.795609 -2.683901 1.55874 -2.12132 2.12132 
C -1.55874 2.683901 -0.795609 3 0 3 
z
" style="stroke: #084285"/>
    </defs>
    <g clip-path="url(#p353e713cb2)">
     <use xlink:href="#m22a65511d2" x="88.369886" y="388.2408" style="fill: #084285; stroke: #084285"/>
     <use xlink:href="#m22a65511d2" x="113.733523" y="351.932268" style="fill: #084285; stroke: #084285"/>
     <use xlink:href="#m22a65511d2" x="139.097159" y="334.207484" style="fill: #084285; stroke: #084285"/>
     <use xlink:href="#m22a65511d2" x="164.460795" y="335.351794" style="fill: #084285; stroke: #084285"/>
     <use xlink:href="#m22a65511d2" x="189.824432" y="358.96032" style="fill: #084285; stroke: #084285"/>
     <use xlink:href="#m22a65511d2" x="215.188068" y="351.464554" style="fill: #084285; stroke: #084285"/>
     <use xlink:href="#m22a65511d2" x="240.551705" y="359.532436" style="fill: #084285; stroke: #084285"/>
     <use xlink:href="#m22a65511d2" x="265.915341" y="364.860325" style="fill: #084285; stroke: #084285"/>
     <use xlink:href="#m22a65511d2" x="291.278977" y="366.204571" style="fill: #084285; stroke: #084285"/>
     <use xlink:href="#m22a65511d2" x="316.642614" y="390.527946" style="fill: #084285; stroke: #084285"/>
     <use xlink:href="#m22a65511d2" x="342.00625" y="370.148992" style="fill: #084285; stroke: #084285"/>
     <use xlink:href="#m22a65511d2" x="367.369886" y="389.045509" style="fill: #084285; stroke: #084285"/>
     <use xlink:href="#m22a65511d2" x="392.733523" y="388.533286" style="fill: #084285; stroke: #084285"/>
     <use xlink:href="#m22a65511d2" x="418.097159" y="388.064169" style="fill: #084285; stroke: #084285"/>
     <use xlink:href="#m22a65511d2" x="443.460795" y="385.122077" style="fill: #084285; stroke: #084285"/>
     <use xlink:href="#m22a65511d2" x="468.824432" y="398.379556" style="fill: #084285; stroke: #084285"/>
     <use xlink:href="#m22a65511d2" x="494.188068" y="401.620189" style="fill: #084285; stroke: #084285"/>
     <use xlink:href="#m22a65511d2" x="519.551705" y="401.228661" style="fill: #084285; stroke: #084285"/>
     <use xlink:href="#m22a65511d2" x="544.915341" y="401.192331" style="fill: #084285; stroke: #084285"/>
     <use xlink:href="#m22a65511d2" x="570.278977" y="401.869889" style="fill: #084285; stroke: #084285"/>
     <use xlink:href="#m22a65511d2" x="595.642614" y="381.57024" style="fill: #084285; stroke: #084285"/>
    </g>
   </g>
   <g id="line2d_36">
    <path d="M 88.369886 73.393647 
L 113.733523 80.502314 
L 139.097159 90.497853 
L 164.460795 79.647917 
L 189.824432 73.232161 
L 215.188068 76.549946 
L 240.551705 94.393169 
L 265.915341 82.010898 
L 291.278977 88.394466 
L 316.642614 71.192372 
L 342.00625 78.755374 
L 367.369886 89.793512 
L 392.733523 70.034915 
L 418.097159 79.629686 
L 443.460795 80.634885 
L 468.824432 85.970406 
L 494.188068 84.196043 
L 519.551705 89.984317 
L 544.915341 93.575905 
L 570.278977 94.311275 
L 595.642614 121.873658 
" clip-path="url(#p353e713cb2)" style="fill: none; stroke: #942f03; stroke-width: 3; stroke-linecap: square"/>
    <defs>
     <path id="m689429810d" d="M -3 3 
L 3 3 
L 3 -3 
L -3 -3 
z
" style="stroke: #942f03; stroke-linejoin: miter"/>
    </defs>
    <g clip-path="url(#p353e713cb2)">
     <use xlink:href="#m689429810d" x="88.369886" y="73.393647" style="fill: #942f03; stroke: #942f03; stroke-linejoin: miter"/>
     <use xlink:href="#m689429810d" x="113.733523" y="80.502314" style="fill: #942f03; stroke: #942f03; stroke-linejoin: miter"/>
     <use xlink:href="#m689429810d" x="139.097159" y="90.497853" style="fill: #942f03; stroke: #942f03; stroke-linejoin: miter"/>
     <use xlink:href="#m689429810d" x="164.460795" y="79.647917" style="fill: #942f03; stroke: #942f03; stroke-linejoin: miter"/>
     <use xlink:href="#m689429810d" x="189.824432" y="73.232161" style="fill: #942f03; stroke: #942f03; stroke-linejoin: miter"/>
     <use xlink:href="#m689429810d" x="215.188068" y="76.549946" style="fill: #942f03; stroke: #942f03; stroke-linejoin: miter"/>
     <use xlink:href="#m689429810d" x="240.551705" y="94.393169" style="fill: #942f03; stroke: #942f03; stroke-linejoin: miter"/>
     <use xlink:href="#m689429810d" x="265.915341" y="82.010898" style="fill: #942f03; stroke: #942f03; stroke-linejoin: miter"/>
     <use xlink:href="#m689429810d" x="291.278977" y="88.394466" style="fill: #942f03; stroke: #942f03; stroke-linejoin: miter"/>
     <use xlink:href="#m689429810d" x="316.642614" y="71.192372" style="fill: #942f03; stroke: #942f03; stroke-linejoin: miter"/>
     <use xlink:href="#m689429810d" x="342.00625" y="78.755374" style="fill: #942f03; stroke: #942f03; stroke-linejoin: miter"/>
     <use xlink:href="#m689429810d" x="367.369886" y="89.793512" style="fill: #942f03; stroke: #942f03; stroke-linejoin: miter"/>
     <use xlink:href="#m689429810d" x="392.733523" y="70.034915" style="fill: #942f03; stroke: #942f03; stroke-linejoin: miter"/>
     <use xlink:href="#m689429810d" x="418.097159" y="79.629686" style="fill: #942f03; stroke: #942f03; stroke-linejoin: miter"/>
     <use xlink:href="#m689429810d" x="443.460795" y="80.634885" style="fill: #942f03; stroke: #942f03; stroke-linejoin: miter"/>
     <use xlink:href="#m689429810d" x="468.824432" y="85.970406" style="fill: #942f03; stroke: #942f03; stroke-linejoin: miter"/>
     <use xlink:href="#m689429810d" x="494.188068" y="84.196043" style="fill: #942f03; stroke: #942f03; stroke-linejoin: miter"/>
     <use xlink:href="#m689429810d" x="519.551705" y="89.984317" style="fill: #942f03; stroke: #942f03; stroke-linejoin: miter"/>
     <use xlink:href="#m689429810d" x="544.915341" y="93.575905" style="fill: #942f03; stroke: #942f03; stroke-linejoin: miter"/>
     <use xlink:href="#m689429810d" x="570.278977" y="94.311275" style="fill: #942f03; stroke: #942f03; stroke-linejoin: miter"/>
     <use xlink:href="#m689429810d" x="595.642614" y="121.873658" style="fill: #942f03; stroke: #942f03; stroke-linejoin: miter"/>
    </g>
   </g>
   <g id="patch_3">
    <path d="M 63.00625 450.72 
L 63.00625 7.2 
" style="fill: none; stroke: #000000; stroke-width: 0.8; stroke-linejoin: miter; stroke-linecap: square"/>
   </g>
   <g id="patch_4">
    <path d="M 621.00625 450.72 
L 621.00625 7.2 
" style="fill: none; stroke: #000000; stroke-width: 0.8; stroke-linejoin: miter; stroke-linecap: square"/>
   </g>
   <g id="patch_5">
    <path d="M 63.00625 450.72 
L 621.00625 450.72 
" style="fill: none; stroke: #000000; stroke-width: 0.8; stroke-linejoin: miter; stroke-linecap: square"/>
   </g>
   <g id="patch_6">
    <path d="M 63.00625 7.2 
L 621.00625 7.2 
" style="fill: none; stroke: #000000; stroke-width: 0.8; stroke-linejoin: miter; stroke-linecap: square"/>
   </g>
   <g id="legend_1">
    <g id="patch_7">
     <path d="M 438.265625 261.31625 
L 607.00625 261.31625 
Q 611.00625 261.31625 611.00625 257.31625 
L 611.00625 200.60375 
Q 611.00625 196.60375 607.00625 196.60375 
L 438.265625 196.60375 
Q 434.265625 196.60375 434.265625 200.60375 
L 434.265625 257.31625 
Q 434.265625 261.31625 438.265625 261.31625 
z
" style="fill: #ffffff; opacity: 0.8; stroke: #cccccc; stroke-linejoin: miter"/>
    </g>
    <g id="LineCollection_3">
     <path d="M 462.265625 222.800625 
L 462.265625 202.800625 
" style="fill: none; stroke: #084285"/>
    </g>
    <g id="line2d_37">
     <path d="M 442.265625 212.800625 
L 482.265625 212.800625 
" style="fill: none; stroke: #084285; stroke-width: 3; stroke-linecap: square"/>
    </g>
    <g id="line2d_38">
     <g>
      <use xlink:href="#m22a65511d2" x="462.265625" y="212.800625" style="fill: #084285; stroke: #084285"/>
     </g>
    </g>
    <g id="text_20">
     <!-- Amblyopic -->
     <g transform="translate(498.265625 219.800625)scale(0.2 -0.2)">
      <defs>
       <path id="DejaVuSans-41" d="M 2188 4044 
L 1331 1722 
L 3047 1722 
L 2188 4044 
z
M 1831 4666 
L 2547 4666 
L 4325 0 
L 3669 0 
L 3244 1197 
L 1141 1197 
L 716 0 
L 50 0 
L 1831 4666 
z
" transform="scale(0.015625)"/>
       <path id="DejaVuSans-62" d="M 3116 1747 
Q 3116 2381 2855 2742 
Q 2594 3103 2138 3103 
Q 1681 3103 1420 2742 
Q 1159 2381 1159 1747 
Q 1159 1113 1420 752 
Q 1681 391 2138 391 
Q 2594 391 2855 752 
Q 3116 1113 3116 1747 
z
M 1159 2969 
Q 1341 3281 1617 3432 
Q 1894 3584 2278 3584 
Q 2916 3584 3314 3078 
Q 3713 2572 3713 1747 
Q 3713 922 3314 415 
Q 2916 -91 2278 -91 
Q 1894 -91 1617 61 
Q 1341 213 1159 525 
L 1159 0 
L 581 0 
L 581 4863 
L 1159 4863 
L 1159 2969 
z
" transform="scale(0.015625)"/>
       <path id="DejaVuSans-79" d="M 2059 -325 
Q 1816 -950 1584 -1140 
Q 1353 -1331 966 -1331 
L 506 -1331 
L 506 -850 
L 844 -850 
Q 1081 -850 1212 -737 
Q 1344 -625 1503 -206 
L 1606 56 
L 191 3500 
L 800 3500 
L 1894 763 
L 2988 3500 
L 3597 3500 
L 2059 -325 
z
" transform="scale(0.015625)"/>
       <path id="DejaVuSans-63" d="M 3122 3366 
L 3122 2828 
Q 2878 2963 2633 3030 
Q 2388 3097 2138 3097 
Q 1578 3097 1268 2742 
Q 959 2388 959 1747 
Q 959 1106 1268 751 
Q 1578 397 2138 397 
Q 2388 397 2633 464 
Q 2878 531 3122 666 
L 3122 134 
Q 2881 22 2623 -34 
Q 2366 -91 2075 -91 
Q 1284 -91 818 406 
Q 353 903 353 1747 
Q 353 2603 823 3093 
Q 1294 3584 2113 3584 
Q 2378 3584 2631 3529 
Q 2884 3475 3122 3366 
z
" transform="scale(0.015625)"/>
      </defs>
      <use xlink:href="#DejaVuSans-41"/>
      <use xlink:href="#DejaVuSans-6d" x="68.408203"/>
      <use xlink:href="#DejaVuSans-62" x="165.820312"/>
      <use xlink:href="#DejaVuSans-6c" x="229.296875"/>
      <use xlink:href="#DejaVuSans-79" x="257.080078"/>
      <use xlink:href="#DejaVuSans-6f" x="316.259766"/>
      <use xlink:href="#DejaVuSans-70" x="377.441406"/>
      <use xlink:href="#DejaVuSans-69" x="440.917969"/>
      <use xlink:href="#DejaVuSans-63" x="468.701172"/>
     </g>
    </g>
    <g id="LineCollection_4">
     <path d="M 462.265625 252.156875 
L 462.265625 232.156875 
" style="fill: none; stroke: #942f03"/>
    </g>
    <g id="line2d_39">
     <path d="M 442.265625 242.156875 
L 482.265625 242.156875 
" style="fill: none; stroke: #942f03; stroke-width: 3; stroke-linecap: square"/>
    </g>
    <g id="line2d_40">
     <g>
      <use xlink:href="#m689429810d" x="462.265625" y="242.156875" style="fill: #942f03; stroke: #942f03; stroke-linejoin: miter"/>
     </g>
    </g>
    <g id="text_21">
     <!-- Fellow -->
     <g transform="translate(498.265625 249.156875)scale(0.2 -0.2)">
      <defs>
       <path id="DejaVuSans-46" d="M 628 4666 
L 3309 4666 
L 3309 4134 
L 1259 4134 
L 1259 2759 
L 3109 2759 
L 3109 2228 
L 1259 2228 
L 1259 0 
L 628 0 
L 628 4666 
z
" transform="scale(0.015625)"/>
       <path id="DejaVuSans-77" d="M 269 3500 
L 844 3500 
L 1563 769 
L 2278 3500 
L 2956 3500 
L 3675 769 
L 4391 3500 
L 4966 3500 
L 4050 0 
L 3372 0 
L 2619 2869 
L 1863 0 
L 1184 0 
L 269 3500 
z
" transform="scale(0.015625)"/>
      </defs>
      <use xlink:href="#DejaVuSans-46"/>
      <use xlink:href="#DejaVuSans-65" x="52.019531"/>
      <use xlink:href="#DejaVuSans-6c" x="113.542969"/>
      <use xlink:href="#DejaVuSans-6c" x="141.326172"/>
      <use xlink:href="#DejaVuSans-6f" x="169.109375"/>
      <use xlink:href="#DejaVuSans-77" x="230.291016"/>
     </g>
    </g>
   </g>
  </g>
 </g>
 <defs>
  <clipPath id="p353e713cb2">
   <rect x="63.00625" y="7.2" width="558" height="443.52"/>
  </clipPath>
 </defs>
</svg>
